<svg width="29" height="29" viewBox="0 0 29 29" fill="none" xmlns="http://www.w3.org/2000/svg">
<path d="M5.62528 5.37522H26.6255L24.0004 16.7503H8.2503M24.0004 20.2504H9.12531L4.75027 1.87518H2.12524" stroke="#3A4F63" stroke-width="0.875008" stroke-linecap="round" stroke-linejoin="round"/>
<path d="M22.2506 25.5006C23.2172 25.5006 24.0007 24.717 24.0007 23.7505C24.0007 22.7839 23.2172 22.0004 22.2506 22.0004C21.284 22.0004 20.5005 22.7839 20.5005 23.7505C20.5005 24.717 21.284 25.5006 22.2506 25.5006Z" stroke="#3A4F63" stroke-width="0.875008" stroke-linecap="round" stroke-linejoin="round"/>
<path d="M10.8754 25.5006C11.8419 25.5006 12.6255 24.717 12.6255 23.7505C12.6255 22.7839 11.8419 22.0004 10.8754 22.0004C9.9088 22.0004 9.12524 22.7839 9.12524 23.7505C9.12524 24.717 9.9088 25.5006 10.8754 25.5006Z" stroke="#3A4F63" stroke-width="0.875008" stroke-linecap="round" stroke-linejoin="round"/>
</svg>
