<svg width="224" height="40" viewBox="0 0 224 40" fill="none" xmlns="http://www.w3.org/2000/svg">
<g clip-path="url(#clip0_195_614)">
<path d="M38.6516 35.5247C35.196 38.2121 30.9999 40 27.331 40C22.8656 40 19.567 37.7346 19.8924 32.3154C16.4368 37.4681 10.6362 39.4781 4.57761 39.4781H0L5.20591 2.63187H11.4216C17.8504 2.63187 21.3061 6.26318 21.3061 10.9939C21.3061 15.1471 19.0734 18.6785 15.2475 20.5663H23.5949L22.1027 31.1383C21.3622 36.3465 24.0661 37.9789 27.3086 37.9789C30.394 37.9789 34.3209 36.5019 38.158 33.4037L38.6404 35.5136L38.6516 35.5247ZM21.1602 22.5763H4.52151L2.38978 37.4681H4.56639C14.1367 37.4681 20.3524 32.0489 21.1602 22.5763ZM4.79078 20.5775H8.61668C14.7875 20.5775 19.1968 16.3687 19.1968 11.3715C19.1968 7.47362 16.3807 4.63076 11.4328 4.63076H7.06837L4.77956 20.5775H4.79078Z" fill="white"/>
<path d="M42.6458 13.1594L40.099 31.1605C39.3585 36.3687 42.0624 38.0011 45.3049 38.0011C48.3903 38.0011 52.3284 36.5242 56.1543 33.4259L56.6367 35.5358C53.1811 38.2232 48.9849 40.0111 45.3161 40.0111C40.5365 40.0111 37.0697 37.4348 37.9784 31.1716L40.5365 13.1705H42.6683L42.6458 13.1594ZM42.4326 3.47586C43.7902 3.17602 44.8 4.17547 44.4971 5.51917C44.3288 6.2743 43.7005 6.88507 42.9487 7.05165C41.5912 7.35148 40.5814 6.35204 40.8843 5.00834C41.0526 4.2532 41.6809 3.64243 42.4326 3.47586Z" fill="white"/>
<path d="M77.0004 21.488C77.0565 22.1766 77.0901 22.6541 77.0901 23.387C77.0901 32.0155 71.671 39.9667 64.008 39.9667C58.4206 39.9667 55.3465 35.3359 55.3465 29.1838C55.3465 20.5552 60.7655 12.6041 68.4286 12.6041C72.0974 12.6041 74.6442 14.603 76.0355 17.7124C78.055 21.4992 85.2244 20.1777 88.6912 16.8684C88.6351 18.1233 87.558 19.9111 85.5497 21.0439C83.0814 22.4431 78.9526 22.2432 77.0004 21.4992V21.488ZM74.8574 23.5425C74.8574 18.5452 72.5237 14.7029 68.2603 14.7029C61.9885 14.7029 57.568 21.5436 57.568 29.0172C57.568 34.0144 59.9016 37.8567 64.1651 37.8567C70.4369 37.8567 74.8574 31.0161 74.8574 23.5425Z" fill="white"/>
<path d="M132.818 35.5247C129.362 38.2121 125.166 39.467 120.959 39.467H102.346L107.551 2.63187H109.683L104.735 37.4681H120.948C125.099 37.4681 128.498 36.5241 132.324 33.4148L132.807 35.5247H132.818Z" fill="white"/>
<path d="M166.836 35.5247C163.38 38.2121 159.184 40 155.515 40C151.847 40 148.817 38.4231 148.178 34.6807C145.676 38.945 142.22 40 139.774 40C134.826 40 131.483 36.5797 131.483 29.7946C131.483 19.6891 137.867 12.6374 144.879 12.6374C147.695 12.6374 150.085 13.2704 152.643 14.7474L151.364 23.6979L150.298 31.1716C149.558 36.3798 152.262 38.0122 155.504 38.0122C158.59 38.0122 162.528 36.5353 166.354 33.437L166.836 35.5469V35.5247ZM148.873 26.4187L149.244 23.6868L150.366 15.9023C148.615 15.0583 147.011 14.6363 144.89 14.6363C139.09 14.6363 133.727 20.8995 133.727 29.7946C133.727 35.2138 136.33 38.0011 139.785 38.0011C142.545 38.0011 147.336 36.1577 148.873 26.4187Z" fill="white"/>
<path d="M185.079 40C183.003 40 180.715 39.578 178.65 38.6896C177.158 39.5336 175.408 40 173.489 40C167.487 40 163.818 36.1022 162.539 28.6841L164.558 27.6846C164.873 29.9944 165.411 31.8379 166.152 33.3148C171.099 29.317 174.712 22.3209 175.509 12.6374L177.64 12.1155C177.539 22.432 183.385 25.2748 183.385 30.905C183.385 33.4259 182.319 35.6469 180.625 37.2682C182.005 37.7457 183.553 38.0011 185.09 38.0011C188.176 38.0011 192.114 36.5241 195.94 33.4259L196.422 35.5358C192.966 38.2232 188.77 40.0111 185.102 40.0111L185.079 40ZM173.489 37.99C177.371 37.99 181.253 35.3026 181.253 30.8828C181.253 27.2515 178.067 24.5197 176.462 19.1449C174.869 26.0411 171.627 31.5602 167.206 35.0361C168.743 37.0905 170.875 37.9789 173.478 37.9789L173.489 37.99Z" fill="white"/>
<path d="M224 36.3132V38.4231C221.924 39.5336 219.849 40 218.155 40C214.115 40 210.66 37.4237 211.557 31.1605L212.937 21.477C213.678 16.2687 211.658 14.6363 208.954 14.6363C206.082 14.6363 199.754 17.7901 197.791 31.5825L196.669 39.4781H194.537L200.125 0H202.256L199.44 19.8445C202.47 14.2143 206.565 12.6374 209.224 12.6374C214.273 12.6374 215.765 16.6907 215.069 21.5325L213.689 31.1605C212.949 36.3687 215.653 38.0011 218.312 38.0011C219.905 38.0011 221.924 37.4792 224 36.3132Z" fill="white"/>
</g>
<defs>
<clipPath id="clip0_195_614">
<rect width="224" height="40" fill="white"/>
</clipPath>
</defs>
</svg>
