<svg width="224" height="41" viewBox="0 0 224 41" fill="none" xmlns="http://www.w3.org/2000/svg">
<path d="M38.6516 35.5247C35.196 38.2121 30.9999 40 27.331 40C22.8656 40 19.567 37.7346 19.8924 32.3153C16.4368 37.468 10.6362 39.478 4.57761 39.478H0L5.20591 2.63184H11.4216C17.8504 2.63184 21.3061 6.26315 21.3061 10.9939C21.3061 15.1471 19.0734 18.6785 15.2475 20.5663H23.5949L22.1027 31.1382C21.3622 36.3464 24.0661 37.9789 27.3086 37.9789C30.394 37.9789 34.3209 36.5019 38.158 33.4036L38.6404 35.5136L38.6516 35.5247ZM21.1602 22.5763H4.52151L2.38978 37.468H4.56639C14.1367 37.468 20.3524 32.0488 21.1602 22.5763ZM4.79078 20.5774H8.61668C14.7875 20.5774 19.1968 16.3686 19.1968 11.3714C19.1968 7.47359 16.3807 4.63073 11.4328 4.63073H7.06837L4.77956 20.5774H4.79078Z" fill="black"/>
<path d="M42.6458 13.1598L40.099 31.1609C39.3585 36.3692 42.0624 38.0016 45.3049 38.0016C48.3903 38.0016 52.3284 36.5246 56.1543 33.4263L56.6367 35.5363C53.1811 38.2237 48.9849 40.0116 45.3161 40.0116C40.5365 40.0116 37.0697 37.4352 37.9784 31.172L40.5365 13.1709H42.6683L42.6458 13.1598ZM42.4326 3.47632C43.7902 3.17648 44.8 4.17593 44.4971 5.51962C44.3288 6.27476 43.7005 6.88553 42.9487 7.05211C41.5912 7.35194 40.5814 6.3525 40.8843 5.0088C41.0526 4.25366 41.6809 3.64289 42.4326 3.47632Z" fill="black"/>
<path d="M77.0004 21.4884C77.0565 22.177 77.0901 22.6545 77.0901 23.3874C77.0901 32.0159 71.671 39.9671 64.008 39.9671C58.4206 39.9671 55.3465 35.3363 55.3465 29.1842C55.3465 20.5556 60.7655 12.6045 68.4286 12.6045C72.0974 12.6045 74.6442 14.6034 76.0355 17.7128C78.055 21.4995 85.2244 20.1781 88.6912 16.8688C88.6351 18.1236 87.558 19.9115 85.5497 21.0442C83.0814 22.4435 78.9526 22.2436 77.0004 21.4996V21.4884ZM74.8574 23.5429C74.8574 18.5456 72.5237 14.7033 68.2603 14.7033C61.9885 14.7033 57.568 21.544 57.568 29.0176C57.568 34.0148 59.9016 37.8571 64.1651 37.8571C70.4369 37.8571 74.8574 31.0165 74.8574 23.5429Z" fill="black"/>
<path d="M132.818 35.5247C129.362 38.2121 125.166 39.4669 120.959 39.4669H102.346L107.551 2.63184H109.683L104.735 37.468H120.948C125.099 37.468 128.498 36.5241 132.324 33.4147L132.807 35.5247H132.818Z" fill="black"/>
<path d="M166.836 35.525C163.38 38.2124 159.184 40.0003 155.515 40.0003C151.847 40.0003 148.817 38.4234 148.178 34.681C145.676 38.9453 142.22 40.0003 139.774 40.0003C134.826 40.0003 131.483 36.5799 131.483 29.7948C131.483 19.6893 137.867 12.6377 144.879 12.6377C147.695 12.6377 150.085 13.2707 152.643 14.7476L151.364 23.6982L150.298 31.1718C149.558 36.3801 152.262 38.0125 155.504 38.0125C158.59 38.0125 162.528 36.5355 166.354 33.4372L166.836 35.5472V35.525ZM148.873 26.4189L149.244 23.6871L150.366 15.9025C148.615 15.0586 147.011 14.6366 144.89 14.6366C139.09 14.6366 133.727 20.8998 133.727 29.7948C133.727 35.214 136.33 38.0014 139.785 38.0014C142.545 38.0014 147.336 36.158 148.873 26.4189Z" fill="black"/>
<path d="M185.079 39.9997C183.003 39.9997 180.715 39.5778 178.65 38.6894C177.158 39.5333 175.408 39.9997 173.489 39.9997C167.487 39.9997 163.818 36.1019 162.539 28.6838L164.558 27.6844C164.873 29.9942 165.411 31.8376 166.152 33.3146C171.099 29.3168 174.712 22.3207 175.509 12.6372L177.64 12.1152C177.539 22.4317 183.385 25.2746 183.385 30.9048C183.385 33.4256 182.319 35.6466 180.625 37.2679C182.005 37.7454 183.553 38.0009 185.09 38.0009C188.176 38.0009 192.114 36.5239 195.94 33.4256L196.422 35.5356C192.966 38.223 188.77 40.0108 185.102 40.0108L185.079 39.9997ZM173.489 37.9897C177.371 37.9897 181.253 35.3024 181.253 30.8826C181.253 27.2513 178.067 24.5195 176.462 19.1447C174.869 26.0408 171.627 31.56 167.206 35.0358C168.743 37.0902 170.875 37.9786 173.478 37.9786L173.489 37.9897Z" fill="black"/>
<path d="M224 36.3132V38.4231C221.924 39.5336 219.849 40 218.155 40C214.115 40 210.66 37.4237 211.557 31.1605L212.937 21.477C213.678 16.2687 211.658 14.6363 208.954 14.6363C206.082 14.6363 199.754 17.7901 197.791 31.5825L196.669 39.4781H194.537L200.125 0H202.256L199.44 19.8445C202.47 14.2143 206.565 12.6374 209.224 12.6374C214.273 12.6374 215.765 16.6907 215.069 21.5325L213.689 31.1605C212.949 36.3687 215.653 38.0011 218.312 38.0011C219.905 38.0011 221.924 37.4792 224 36.3132Z" fill="black"/>
</svg>
