<svg width="239" height="239" viewBox="0 0 239 239" fill="none" xmlns="http://www.w3.org/2000/svg">
<circle cx="119.5" cy="119.5" r="119.5" fill="#E4BD3B"/>
<path d="M189.135 157.3L188.575 169.28H186.795L186.255 157.3H189.135ZM187.695 170.66C188.575 170.66 189.275 171.36 189.275 172.24C189.275 173.12 188.575 173.82 187.695 173.82C186.815 173.82 186.115 173.12 186.115 172.24C186.115 171.36 186.815 170.66 187.695 170.66Z" fill="white"/>
<path d="M164.341 167.3C164.521 167.72 164.641 167.92 165.001 168.46C165.061 168.56 165.081 168.64 165.081 168.74C165.081 168.88 165.061 168.9 164.881 169.34C164.481 170.26 164.001 171.7 163.761 172.78C163.701 173 163.641 173.12 163.561 173.16C163.461 173.2 162.781 173.3 162.561 173.3C162.541 173.3 162.521 173.3 162.481 173.3C162.381 173.3 162.241 173.28 162.081 173.28C161.821 173.28 161.761 173.22 161.681 172.98C161.301 171.68 161.001 169 161.001 166.98C161.001 164.78 161.141 163.42 161.701 160.42C161.901 159.34 162.001 158.74 162.081 158.08C162.921 158.24 163.641 158.44 164.241 158.72C164.581 158.86 164.681 158.96 164.681 159.16C164.681 159.3 164.661 159.36 164.441 159.68C163.781 160.74 163.041 164.98 163.041 167.84C163.041 168.3 163.061 168.92 163.121 169.92C163.681 168.66 163.881 168.28 164.341 167.3ZM167.841 159.66C167.861 159.66 167.901 159.66 167.941 159.68C168.381 159.78 169.661 159.86 170.641 159.86C171.961 159.86 173.281 159.76 174.521 159.54C174.621 159.52 174.621 159.52 174.701 159.52C174.841 159.52 174.901 159.58 174.941 159.74C174.981 159.94 175.041 160.82 175.041 161.36C175.041 161.66 174.981 161.76 174.761 161.8C173.941 161.96 172.581 162.06 171.141 162.06C169.421 162.06 167.881 161.96 167.681 161.84C167.581 161.78 167.541 161.64 167.541 161.28C167.541 160.74 167.601 159.94 167.641 159.78C167.661 159.7 167.721 159.66 167.841 159.66ZM168.001 168.46C168.361 169.18 168.701 169.54 169.341 169.88C169.981 170.22 170.741 170.34 172.081 170.34C173.361 170.34 174.121 170.24 175.361 169.88C175.481 169.84 175.581 169.82 175.641 169.82C175.781 169.82 175.881 169.9 175.901 170.1C176.001 170.78 176.081 171.58 176.081 171.98C176.081 172.18 176.021 172.24 175.741 172.32C174.661 172.6 173.561 172.74 172.221 172.74C170.381 172.74 169.241 172.52 168.301 171.96C167.421 171.42 166.501 170.32 166.501 169.78C166.501 169.5 166.921 169.12 168.001 168.46Z" fill="white"/>
<path d="M146.101 162.36V160.26C144.341 160.48 142.821 160.64 140.741 160.8C140.541 159.98 140.421 159.66 140.021 158.84C145.541 158.68 150.981 157.68 153.381 156.4L154.801 158.28C154.521 158.36 154.521 158.36 153.861 158.54C153.821 158.54 153.661 158.58 153.421 158.66C151.561 159.24 150.041 159.6 148.221 159.94V162.16L153.321 161.66C154.601 161.54 154.981 161.48 155.521 161.34L155.661 163.44C155.441 163.42 155.321 163.42 155.241 163.42C154.841 163.42 154.081 163.46 153.481 163.54L148.221 164.06V166.26L154.401 165.74C155.581 165.64 155.981 165.58 156.601 165.44L156.721 167.58C156.481 167.56 156.341 167.56 156.201 167.56C155.841 167.56 155.141 167.6 154.541 167.66L148.221 168.22V171.14C148.221 171.88 148.561 171.98 151.201 171.98C153.801 171.98 154.421 171.88 154.661 171.4C154.821 171.06 154.901 170.42 154.901 169.38V168.96C155.561 169.26 156.181 169.44 156.921 169.58C156.821 171.88 156.521 172.9 155.781 173.36C155.181 173.74 153.661 173.9 150.821 173.9C148.461 173.9 147.461 173.76 146.781 173.36C146.281 173.08 146.101 172.58 146.101 171.62V168.4L141.921 168.76C140.861 168.86 140.481 168.9 139.721 169.04L139.581 166.88C139.841 166.9 139.941 166.9 140.081 166.9C140.341 166.9 141.261 166.86 141.781 166.82L146.101 166.44V164.26L142.781 164.58C141.481 164.72 141.141 164.76 140.561 164.88L140.421 162.78C140.621 162.8 140.741 162.8 140.841 162.8C141.321 162.8 141.961 162.76 142.621 162.7L146.101 162.36Z" fill="white"/>
<path d="M119.501 161.92C120.421 161.8 121.341 161.58 123.521 160.98C126.841 160.04 128.561 159.74 130.441 159.74C132.461 159.74 134.041 160.28 135.101 161.32C135.981 162.22 136.461 163.46 136.461 164.92C136.461 167.48 135.081 169.64 132.681 170.88C131.401 171.52 130.101 171.96 128.321 172.3C127.541 172.46 127.141 172.52 126.841 172.52C126.601 172.52 126.481 172.44 126.361 172.22C125.901 171.3 125.721 171.02 125.121 170.4C128.101 170.04 129.721 169.64 131.281 168.86C132.981 168.02 133.921 166.64 133.921 164.96C133.921 163.08 132.641 161.86 130.681 161.86C128.301 161.86 125.661 162.54 122.621 163.94C122.081 164.18 121.801 164.32 121.601 164.44C121.241 164.64 121.141 164.68 121.021 164.68C120.641 164.68 119.961 163.46 119.501 161.92Z" fill="white"/>
<path d="M107.902 164.04H108.082C108.042 163.06 108.042 163.06 108.022 161.82C107.842 161.84 107.662 161.84 107.582 161.84C106.262 161.84 104.562 161.7 103.862 161.52C103.662 161.46 103.622 161.42 103.622 161.22C103.622 160.78 103.682 160.24 103.822 159.46C104.942 159.68 106.322 159.82 107.522 159.82C107.622 159.82 107.802 159.82 108.022 159.8V158.48C108.022 157.78 108.002 157.46 107.962 156.76C108.962 156.82 109.642 156.88 110.122 157C110.522 157.08 110.642 157.18 110.642 157.4C110.642 157.5 110.622 157.54 110.482 157.86C110.342 158.2 110.322 158.28 110.242 159.66C111.442 159.52 112.402 159.32 113.342 159.04C113.402 159.02 113.422 159.02 113.442 159.02C113.582 159.02 113.582 159.04 113.802 159.68C113.942 160.1 114.082 160.62 114.082 160.78C114.082 160.92 114.022 161 113.822 161.06C113.162 161.28 111.442 161.58 110.182 161.72C110.182 163.14 110.182 163.2 110.202 163.9C111.602 163.72 112.362 163.52 113.942 162.94C114.042 162.9 114.082 162.88 114.142 162.88C114.262 162.88 114.302 162.94 114.502 163.42C114.702 163.92 114.882 164.48 114.882 164.68C114.882 164.78 114.802 164.86 114.662 164.92C113.562 165.32 111.562 165.8 110.302 165.94C110.342 166.7 110.382 167.12 110.502 168.68C111.622 169.02 112.082 169.2 112.942 169.66C113.902 170.14 114.422 170.48 115.282 171.16C115.442 171.28 115.502 171.38 115.502 171.54C115.502 171.68 115.322 172.02 114.942 172.62C114.502 173.28 114.282 173.54 114.142 173.54C114.082 173.54 114.022 173.52 113.962 173.46C112.762 172.32 111.982 171.76 110.642 171.1C110.562 172.06 110.342 172.6 109.802 173.1C109.122 173.76 107.982 174.12 106.562 174.12C104.102 174.12 102.582 173.04 102.582 171.3C102.582 170.54 102.902 169.8 103.442 169.3C104.222 168.58 105.402 168.2 106.902 168.2C107.382 168.2 107.802 168.24 108.302 168.3C108.202 167 108.162 166.54 108.142 166.12C107.682 166.14 107.422 166.14 107.182 166.14C105.802 166.14 104.122 165.92 103.182 165.64C102.982 165.58 102.902 165.48 102.902 165.32C102.902 165.02 103.022 164.38 103.202 163.56C104.442 163.86 106.022 164.04 107.502 164.04C107.502 164.04 107.622 164.04 107.902 164.04ZM108.322 170.32C107.802 170.18 107.402 170.14 106.702 170.14C105.422 170.14 104.722 170.52 104.722 171.2C104.722 171.8 105.302 172.12 106.422 172.12C107.722 172.12 108.322 171.66 108.322 170.66C108.322 170.52 108.322 170.32 108.322 170.32Z" fill="white"/>
<path d="M82.4423 162.92V160.82C82.4423 160.24 82.4223 159.46 82.3823 159.02C83.3023 159.12 83.9823 159.26 84.5223 159.46C85.0023 159.64 85.1623 159.76 85.1623 159.98C85.1623 160.1 85.1623 160.1 85.0823 160.3C84.8223 160.98 84.7423 161.74 84.7423 163.56C84.7423 166.12 84.9023 167.72 85.3023 168.94C85.6023 169.88 86.0623 170.42 86.6023 170.42C87.4223 170.42 88.1023 169.46 88.8423 167.24C89.2223 168.26 89.3623 168.56 89.9223 169.28C90.0223 169.42 90.0823 169.56 90.0823 169.7C90.0823 170.02 89.7823 170.7 89.3823 171.28C88.6023 172.42 87.6023 173.04 86.5423 173.04C85.0023 173.04 83.8423 171.8 83.1223 169.34C82.6623 167.74 82.4423 165.72 82.4423 162.92ZM92.6023 162.12C93.4423 161.5 94.1023 161.14 94.3423 161.14C94.4623 161.14 94.5623 161.2 94.7223 161.34C95.7223 162.3 96.7623 163.9 97.4223 165.46C97.8623 166.52 98.2823 167.94 98.2823 168.36C98.2823 168.56 98.1823 168.66 97.7623 168.88C97.3023 169.12 96.3623 169.44 96.1223 169.44C95.9423 169.44 95.8623 169.34 95.8023 168.98C95.5423 167.44 95.1823 166.32 94.5623 165.02C94.0023 163.86 93.9623 163.8 92.6023 162.12Z" fill="white"/>
<path d="M72.0384 156.68C73.5984 157.54 74.4584 158.2 74.4584 158.56C74.4584 158.74 74.3784 158.8 74.0384 159C73.8984 159.08 73.7184 159.24 73.5384 159.46C72.2984 160.9 70.5184 162.84 68.9384 164.44C68.5984 164.78 68.4584 165.04 68.4584 165.28C68.4584 165.5 68.6184 165.74 68.9984 166.08C70.1784 167.16 72.0984 169.12 73.5184 170.74C74.5184 171.86 74.7784 172.22 74.7784 172.42C74.7784 172.64 74.4384 172.98 73.6184 173.62C73.2384 173.92 72.9984 174.06 72.8784 174.06C72.6984 174.06 72.6184 173.98 72.4184 173.66C71.5584 172.3 69.4584 169.76 67.8584 168.14C66.9584 167.24 66.7784 167.04 66.4984 166.64C66.1584 166.16 66.0184 165.76 66.0184 165.3C66.0184 164.9 66.1384 164.48 66.3784 164.08C66.5984 163.72 66.5984 163.72 67.8184 162.42C68.9784 161.22 70.2184 159.7 70.9984 158.58C71.5184 157.84 71.7784 157.36 72.0384 156.68Z" fill="white"/>
<path d="M48.3446 167.3C48.5246 167.72 48.6446 167.92 49.0046 168.46C49.0646 168.56 49.0846 168.64 49.0846 168.74C49.0846 168.88 49.0646 168.9 48.8846 169.34C48.4846 170.26 48.0046 171.7 47.7646 172.78C47.7046 173 47.6446 173.12 47.5646 173.16C47.4646 173.2 46.7846 173.3 46.5646 173.3C46.5446 173.3 46.5246 173.3 46.4846 173.3C46.3846 173.3 46.2446 173.28 46.0846 173.28C45.8246 173.28 45.7646 173.22 45.6846 172.98C45.3046 171.68 45.0046 169 45.0046 166.98C45.0046 164.78 45.1446 163.42 45.7046 160.42C45.9046 159.34 46.0046 158.74 46.0846 158.08C46.9246 158.24 47.6446 158.44 48.2446 158.72C48.5846 158.86 48.6846 158.96 48.6846 159.16C48.6846 159.3 48.6646 159.36 48.4446 159.68C47.7846 160.74 47.0446 164.98 47.0446 167.84C47.0446 168.3 47.0646 168.92 47.1246 169.92C47.6846 168.66 47.8846 168.28 48.3446 167.3ZM51.8446 159.66C51.8646 159.66 51.9046 159.66 51.9446 159.68C52.3846 159.78 53.6646 159.86 54.6446 159.86C55.9646 159.86 57.2846 159.76 58.5246 159.54C58.6246 159.52 58.6246 159.52 58.7046 159.52C58.8446 159.52 58.9046 159.58 58.9446 159.74C58.9846 159.94 59.0446 160.82 59.0446 161.36C59.0446 161.66 58.9846 161.76 58.7646 161.8C57.9446 161.96 56.5846 162.06 55.1446 162.06C53.4246 162.06 51.8846 161.96 51.6846 161.84C51.5846 161.78 51.5446 161.64 51.5446 161.28C51.5446 160.74 51.6046 159.94 51.6446 159.78C51.6646 159.7 51.7246 159.66 51.8446 159.66ZM52.0046 168.46C52.3646 169.18 52.7046 169.54 53.3446 169.88C53.9846 170.22 54.7446 170.34 56.0846 170.34C57.3646 170.34 58.1246 170.24 59.3646 169.88C59.4846 169.84 59.5846 169.82 59.6446 169.82C59.7846 169.82 59.8846 169.9 59.9046 170.1C60.0046 170.78 60.0846 171.58 60.0846 171.98C60.0846 172.18 60.0246 172.24 59.7446 172.32C58.6646 172.6 57.5646 172.74 56.2246 172.74C54.3846 172.74 53.2446 172.52 52.3046 171.96C51.4246 171.42 50.5046 170.32 50.5046 169.78C50.5046 169.5 50.9246 169.12 52.0046 168.46Z" fill="white"/>
<path d="M200.527 133.38C199.807 133.44 198.187 133.52 197.787 133.52C196.667 133.52 196.347 133.48 196.247 133.34C196.107 133.16 195.987 132.34 195.987 131.6C195.987 131.54 195.987 131.44 195.987 131.3C196.787 131.38 197.427 131.42 198.447 131.42C199.227 131.42 199.667 131.4 200.467 131.34C200.407 129.26 200.287 128.02 200.047 127.38C200.287 127.38 200.467 127.38 200.587 127.38C201.287 127.38 202.147 127.44 202.587 127.54C202.787 127.58 202.887 127.7 202.887 127.86C202.887 127.94 202.867 128.02 202.827 128.16C202.727 128.44 202.667 128.88 202.667 129.4C202.667 129.7 202.687 130.64 202.687 130.88C202.687 130.98 202.687 131 202.687 131.08C203.687 130.92 204.167 130.82 205.007 130.54C205.087 130.52 205.167 130.5 205.247 130.5C205.367 130.5 205.427 130.56 205.467 130.68C205.547 130.9 205.627 131.68 205.627 132.12C205.627 132.44 205.567 132.58 205.407 132.64C205.147 132.74 203.927 132.98 202.747 133.14C202.767 133.7 202.767 134 202.767 134.32C202.767 137.26 202.407 139.36 201.607 140.94C200.887 142.36 199.327 144.02 198.687 144.02C198.507 144.02 198.427 143.98 198.207 143.78C197.547 143.2 197.427 143.1 196.647 142.74C198.047 141.96 198.947 141.12 199.567 139.98C200.227 138.76 200.587 137.08 200.587 135.24C200.587 135.1 200.587 134.76 200.567 134.28C200.547 134.08 200.547 133.78 200.527 133.38ZM190.967 128.08V127.86C190.967 127.74 190.967 127.66 190.967 127.58C192.227 127.8 192.867 127.98 193.387 128.24C193.527 128.3 193.567 128.38 193.567 128.52C193.567 128.6 193.527 128.7 193.447 128.84C193.267 129.16 193.207 129.4 192.907 130.72C192.527 132.44 192.327 134.36 192.327 136.46C192.327 137.58 192.367 138.2 192.487 139.26L193.547 137.12C193.667 137.54 193.827 137.88 194.067 138.16C194.227 138.36 194.247 138.42 194.247 138.58C194.247 138.74 194.247 138.74 193.867 139.58C193.447 140.48 193.207 141.26 192.987 142.28C192.927 142.6 192.867 142.7 192.767 142.74C192.607 142.82 191.927 142.92 191.527 142.92C191.247 142.92 191.147 142.86 191.087 142.68C190.607 141.32 190.207 138.52 190.207 136.52C190.207 134.8 190.427 132.42 190.787 129.92C190.907 129.1 190.967 128.5 190.967 128.08Z" fill="white"/>
<path d="M171.287 129.72L170.007 129.74C169.807 129 169.647 128.54 169.307 127.8C169.967 127.82 170.487 127.82 170.827 127.82C173.587 127.82 177.107 127.6 179.527 127.3C181.087 127.1 182.427 126.8 183.407 126.44L184.727 128.3C184.427 128.36 184.407 128.36 183.907 128.48C183.167 128.64 182.507 128.78 181.567 128.92L183.447 129.5C182.547 131.24 182.547 131.24 182.267 131.72H183.527C184.627 131.72 185.067 131.7 185.607 131.64C185.567 132.16 185.547 132.56 185.547 133.26V134.66C185.547 135.2 185.587 135.68 185.647 136.08H183.507V133.68H170.887V136.16H168.767C168.827 135.72 168.867 135.22 168.867 134.7V133.26C168.867 132.72 168.847 132.36 168.787 131.64C169.367 131.7 169.867 131.72 170.907 131.72H172.127C171.927 131.12 171.587 130.28 171.287 129.72ZM174.227 131.72H176.427C176.187 130.86 175.947 130.18 175.647 129.52C175.527 129.52 174.787 129.58 173.407 129.64C173.687 130.26 173.987 131 174.227 131.72ZM178.447 131.72H180.047C180.527 130.9 180.967 129.94 181.327 128.96C180.967 129 179.747 129.14 177.687 129.34C178.067 130.34 178.167 130.62 178.447 131.72ZM181.967 135.02L183.207 136.48C182.887 136.8 182.887 136.8 181.527 138.34C180.887 139.02 180.207 139.62 179.127 140.44C181.187 141.36 182.747 141.74 186.027 142.14C185.607 142.8 185.307 143.46 185.047 144.26C182.567 143.9 181.367 143.6 179.847 143C178.867 142.62 178.087 142.24 177.187 141.7C175.087 142.88 172.667 143.72 169.607 144.3C169.267 143.46 169.027 143 168.547 142.26C171.187 141.94 173.467 141.32 175.407 140.4C174.147 139.36 173.567 138.72 172.327 136.9C171.747 136.94 171.707 136.94 171.367 136.98V135C171.887 135.06 172.567 135.1 173.327 135.1H180.307C181.087 135.1 181.587 135.08 181.967 135.02ZM180.087 136.88H174.607C175.407 138 176.107 138.66 177.207 139.4C178.387 138.66 179.227 137.92 180.087 136.88Z" fill="white"/>
<path d="M157.007 138.18V138.08C155.027 139.24 154.467 139.82 154.467 140.7C154.467 141.06 154.607 141.3 154.907 141.48C155.347 141.74 156.327 141.88 157.587 141.88C158.667 141.88 160.167 141.78 161.187 141.64C161.607 141.58 161.847 141.52 162.647 141.32C162.687 141.32 162.707 141.32 162.747 141.32C162.887 141.32 162.987 141.42 163.047 141.56C163.167 141.98 163.247 142.58 163.247 143.3C163.247 143.6 163.147 143.72 162.887 143.78C162.407 143.88 160.187 144 158.727 144C156.287 144 154.987 143.84 154.027 143.44C152.867 142.96 152.287 142.06 152.287 140.8C152.287 139.64 152.827 138.62 153.907 137.76C154.767 137.08 154.967 136.94 156.807 135.9C156.647 135.24 156.347 134.96 155.727 134.96C154.907 134.96 154.047 135.28 153.107 135.9C152.527 136.3 151.847 136.86 151.427 137.28C150.827 137.9 150.767 137.94 150.607 137.94C150.407 137.94 149.987 137.48 149.567 136.78C149.367 136.44 149.247 136.18 149.247 136.04C149.247 135.86 149.287 135.82 149.767 135.52C151.407 134.42 152.767 133.02 153.587 131.58C152.167 131.68 151.427 131.7 150.647 131.7C150.347 131.7 150.287 131.64 150.187 131.3C150.127 131.04 150.027 129.98 150.007 129.44C150.687 129.54 151.087 129.56 152.047 129.56C152.827 129.56 153.687 129.54 154.587 129.5C155.007 128.36 155.147 127.64 155.167 126.7C156.947 127 157.767 127.3 157.767 127.64C157.767 127.72 157.747 127.76 157.687 127.88C157.547 128.14 157.387 128.46 157.127 129.08C157.087 129.16 157.087 129.16 157.067 129.22C158.207 129.06 159.207 128.86 159.907 128.7C160.347 128.58 160.447 128.56 160.547 128.56C160.707 128.56 160.787 128.62 160.827 128.74C160.907 129.1 161.027 130.02 161.027 130.3C161.027 130.52 160.947 130.62 160.687 130.68C160.047 130.86 157.847 131.2 156.007 131.38C155.407 132.48 154.987 133.12 154.367 133.8C155.267 133.38 155.947 133.22 156.747 133.22C157.647 133.22 158.247 133.74 158.647 134.86C160.627 133.78 161.687 133.2 161.807 133.12C162.727 132.58 163.107 132.28 163.547 131.78C164.367 132.62 165.247 133.88 165.247 134.22C165.247 134.34 165.167 134.42 164.907 134.48C163.927 134.74 162.107 135.52 159.067 137C159.087 137.36 159.127 138.28 159.127 138.92C159.127 139.02 159.127 139.18 159.127 139.34C159.127 139.44 159.127 139.48 159.127 139.54V139.88C159.127 140.12 159.087 140.24 158.987 140.3C158.887 140.4 158.347 140.46 157.747 140.46C157.067 140.46 156.947 140.4 156.947 140.08C156.947 140.06 156.947 140.04 156.947 140C156.987 139.42 157.007 138.66 157.007 138.18Z" fill="white"/>
<path d="M144.427 131.34C144.547 132.28 144.627 132.54 145.047 133.64C145.127 133.84 145.147 133.96 145.147 134.08C145.147 134.34 145.047 134.5 144.667 134.92C143.007 136.76 141.307 138.26 139.267 139.64C137.527 140.82 135.527 141.88 133.587 142.7C133.007 142.94 132.827 143.04 132.607 143.24C132.427 143.38 132.367 143.42 132.267 143.42C131.887 143.42 131.207 142.32 130.607 140.74C132.547 140.4 134.827 139.46 137.147 138.06C138.587 137.2 140.307 135.9 141.547 134.74C142.647 133.72 143.267 132.96 144.427 131.34ZM143.487 130.84C143.407 130.84 143.367 130.8 143.287 130.68C142.827 129.86 142.427 129.3 141.807 128.66C141.707 128.56 141.687 128.52 141.687 128.48C141.687 128.36 141.807 128.22 142.147 127.98C142.467 127.76 142.587 127.68 142.707 127.68C142.867 127.68 143.067 127.84 143.567 128.38C144.187 129.08 144.667 129.72 144.667 129.9C144.667 130.12 143.767 130.84 143.487 130.84ZM135.487 134.44C135.487 134.64 135.207 135.18 134.747 135.92C134.467 136.36 134.387 136.44 134.227 136.44C134.087 136.44 134.087 136.44 133.227 135.86C132.527 135.4 131.647 134.98 130.207 134.48C129.887 134.36 129.787 134.28 129.787 134.14C129.787 134.04 129.947 133.7 130.267 133.16C130.347 133 130.427 132.88 130.467 132.78C130.687 132.38 130.787 132.26 130.947 132.26C131.287 132.26 132.787 132.82 133.867 133.34C134.467 133.64 135.227 134.08 135.387 134.2C135.447 134.28 135.487 134.34 135.487 134.44ZM146.687 128.58C146.687 128.72 146.527 128.86 146.087 129.18C145.827 129.36 145.647 129.46 145.547 129.46C145.487 129.46 145.447 129.44 145.347 129.28C144.807 128.4 144.447 127.94 143.847 127.32C143.767 127.26 143.747 127.2 143.747 127.18C143.747 127 144.547 126.44 144.787 126.44C144.947 126.44 145.227 126.66 145.627 127.1C146.207 127.74 146.687 128.42 146.687 128.58ZM137.607 130.38C137.607 130.6 137.147 131.4 136.667 132C136.407 132.32 136.307 132.4 136.167 132.4C136.087 132.4 135.987 132.36 135.867 132.24C134.627 131.16 133.447 130.4 132.167 129.9C131.967 129.82 131.887 129.74 131.887 129.62C131.887 129.54 131.907 129.48 132.007 129.32C132.967 127.86 133.007 127.8 133.227 127.8C133.627 127.8 135.287 128.6 136.427 129.36C137.387 130 137.607 130.18 137.607 130.38Z" fill="white"/>
<path d="M110.028 134.04C111.648 134.2 113.068 134.24 117.248 134.24C120.908 134.24 123.008 134.2 125.028 134.06C125.088 134.06 125.208 134.06 125.288 134.06C125.888 134.06 125.888 134.08 125.888 135.68C125.888 136.5 125.828 136.64 125.488 136.64C125.488 136.64 125.428 136.64 125.408 136.64C124.088 136.58 123.348 136.58 117.568 136.58C115.448 136.58 114.388 136.6 112.548 136.66C112.408 136.66 112.248 136.66 111.968 136.66C111.328 136.66 111.228 136.68 110.848 136.74C110.748 136.74 110.668 136.76 110.628 136.76C110.408 136.76 110.268 136.66 110.228 136.48C110.108 135.98 110.028 134.96 110.028 134.04Z" fill="white"/>
<path d="M99.5592 134C100.599 132.32 101.319 130.88 101.899 129.34C102.119 128.74 102.219 128.32 102.339 127.6C104.079 128.22 105.139 128.82 105.139 129.2C105.139 129.3 105.099 129.36 104.959 129.52C104.579 129.92 104.279 130.38 103.959 131.06C102.959 133.12 102.419 134.1 101.479 135.56C102.379 136.3 103.279 137.18 103.959 137.92C104.139 138.12 104.219 138.26 104.219 138.42C104.219 138.62 103.979 138.98 103.419 139.58C102.999 140.04 102.759 140.24 102.579 140.24C102.479 140.24 102.379 140.18 102.219 140C101.019 138.64 100.899 138.5 100.019 137.62C98.3192 139.76 96.3792 141.58 94.4992 142.82C93.8992 143.24 93.5392 143.4 93.3192 143.4C93.1192 143.4 93.0992 143.4 92.5992 142.92C92.2592 142.62 91.7592 142.26 91.1592 141.92C93.9192 140.56 96.1992 138.66 98.1992 135.98C97.2592 135.2 96.7792 134.86 95.0792 133.76C94.6792 133.52 94.6392 133.48 94.6392 133.34C94.6392 133.12 94.8792 132.78 95.5192 132.04C95.7392 131.78 95.8992 131.68 96.0592 131.68C96.3192 131.68 97.6592 132.58 99.5592 134Z" fill="white"/>
<path d="M90.7129 129.78C90.7129 129.92 90.6529 130 90.4729 130.16C90.0329 130.54 89.7729 130.72 89.6529 130.72C89.5329 130.72 89.5329 130.72 89.1729 130.12C88.8529 129.58 88.3729 128.96 87.9129 128.5C87.8329 128.42 87.8129 128.38 87.8129 128.32C87.8129 128.16 88.5729 127.6 88.7929 127.6C88.9529 127.6 89.1929 127.8 89.7929 128.48C90.3329 129.1 90.7129 129.64 90.7129 129.78ZM91.5929 129.34C91.5129 129.34 91.4529 129.3 91.3729 129.14C90.8929 128.32 90.4329 127.74 89.8929 127.24C89.8129 127.16 89.7929 127.12 89.7929 127.08C89.7929 126.98 89.8929 126.88 90.2329 126.64C90.4929 126.44 90.6129 126.4 90.7529 126.4C90.9729 126.42 91.4929 126.92 92.1729 127.78C92.4529 128.14 92.6329 128.44 92.6329 128.54C92.6329 128.66 92.5729 128.74 92.3329 128.92C92.0129 129.16 91.7129 129.34 91.5929 129.34ZM80.7329 131.82C79.8129 133.02 78.6529 134.2 77.3129 135.3C76.7129 135.78 76.3929 135.98 76.2329 135.98C76.0729 135.98 76.0529 135.98 75.6729 135.58C75.3129 135.22 74.8129 134.86 74.2529 134.56C76.3929 133.26 77.6729 132.1 78.9129 130.36C79.7529 129.18 80.3729 128.02 80.6929 126.92C82.8129 127.72 83.3129 127.96 83.3129 128.24C83.3129 128.36 83.2529 128.42 83.0529 128.56C82.8529 128.7 82.5929 129.06 82.0529 129.88C82.2329 129.88 82.2529 129.88 82.4129 129.88C83.1129 129.9 83.6129 129.9 83.7329 129.9C85.6729 129.9 86.1729 129.86 86.7929 129.62C86.9529 129.56 87.0129 129.54 87.1329 129.54C87.4129 129.54 87.6929 129.76 88.3129 130.5C88.8129 131.06 88.9529 131.3 88.9529 131.52C88.9529 131.7 88.8929 131.8 88.6729 132.02C88.5129 132.18 88.2729 132.56 87.9729 133.14C86.0929 136.56 84.6929 138.44 82.4329 140.48C80.6529 142.1 77.8329 144 77.2129 144C77.0329 144 76.8729 143.92 76.7129 143.76C76.1129 143.18 75.6129 142.82 75.0329 142.58C77.7929 141.24 79.9329 139.76 81.8329 137.84C81.6929 137.7 81.6929 137.7 81.2529 137.24C80.8329 136.8 80.3729 136.42 79.3529 135.66C79.2329 135.56 79.1929 135.5 79.1929 135.42C79.1929 135.32 79.4529 135.02 80.1529 134.3C80.4929 133.96 80.5729 133.9 80.6929 133.9C81.0129 133.9 82.1929 134.86 83.3929 136.08C84.5929 134.52 85.4529 133.04 85.9329 131.76C83.6529 131.8 83.6529 131.8 80.7329 131.82Z" fill="white"/>
<path d="M55.333 132.92V130.82C55.333 130.24 55.3129 129.46 55.2729 129.02C56.1929 129.12 56.8729 129.26 57.4129 129.46C57.8929 129.64 58.053 129.76 58.053 129.98C58.053 130.1 58.053 130.1 57.9729 130.3C57.713 130.98 57.6329 131.74 57.6329 133.56C57.6329 136.12 57.793 137.72 58.193 138.94C58.493 139.88 58.953 140.42 59.493 140.42C60.313 140.42 60.993 139.46 61.733 137.24C62.113 138.26 62.2529 138.56 62.813 139.28C62.913 139.42 62.9729 139.56 62.9729 139.7C62.9729 140.02 62.6729 140.7 62.2729 141.28C61.4929 142.42 60.4929 143.04 59.4329 143.04C57.8929 143.04 56.733 141.8 56.013 139.34C55.553 137.74 55.333 135.72 55.333 132.92ZM65.493 132.12C66.333 131.5 66.993 131.14 67.233 131.14C67.353 131.14 67.4529 131.2 67.6129 131.34C68.6129 132.3 69.653 133.9 70.313 135.46C70.753 136.52 71.173 137.94 71.173 138.36C71.173 138.56 71.0729 138.66 70.653 138.88C70.193 139.12 69.253 139.44 69.013 139.44C68.833 139.44 68.753 139.34 68.693 138.98C68.433 137.44 68.0729 136.32 67.4529 135.02C66.8929 133.86 66.8529 133.8 65.493 132.12Z" fill="white"/>
<path d="M51.4729 128.22V130.12C51.1129 130.08 50.8329 130.06 50.1529 130.04C49.5529 131.82 49.2529 132.4 48.4329 133.44C49.2929 134.02 50.1529 134.38 51.6929 134.82C51.2329 135.48 51.0529 135.84 50.7729 136.72C49.2129 136.16 48.2129 135.62 47.1129 134.76C45.9929 135.7 45.0929 136.18 43.5129 136.72C43.2529 136.14 42.9929 135.68 42.6529 135.26C42.3729 135.64 42.2729 135.8 42.0329 136.3C40.9529 135.68 40.1529 135 39.5929 134.26C39.6129 134.36 39.6129 134.44 39.6129 134.48C39.6329 134.7 39.6529 135.02 39.6529 135.16V135.68C39.6529 136.02 39.6729 136.26 39.7129 136.52H37.8329C37.8729 136.26 37.8929 136.1 37.8929 135.68V135.16C37.8929 134.96 37.9129 134.58 37.9529 134.3C37.2529 135.28 36.2729 136.06 34.8129 136.82C34.4329 136.16 34.2529 135.9 33.7529 135.38C35.0329 134.9 35.9129 134.38 36.7529 133.56H36.2129C35.3929 133.56 35.1329 133.58 34.7529 133.62C34.7929 133.22 34.8129 132.86 34.8129 132.36V130.96C34.8129 130.38 34.7929 130.08 34.7529 129.74C35.1529 129.78 35.4529 129.8 36.2729 129.8H37.8929V129.14H35.8529C35.1129 129.14 34.5329 129.16 34.1329 129.22V127.46C34.5929 127.52 35.1329 127.56 35.8729 127.56H37.8929C37.8929 127.1 37.8529 126.86 37.8129 126.58H39.7329C39.6729 126.92 39.6729 127.08 39.6529 127.56H41.8129C42.5329 127.56 43.0129 127.52 43.4929 127.46V129.2C43.3129 129.18 42.7729 129.16 41.8529 129.14H39.6529V129.8H41.2929C42.1129 129.8 42.4329 129.78 42.8129 129.74C42.7729 130.1 42.7529 130.32 42.7529 130.9C43.2129 130.48 43.7129 129.82 44.1129 129.2C44.7129 128.22 45.0329 127.46 45.2129 126.48L47.1929 126.8C46.8929 127.58 46.7729 127.86 46.5529 128.32H49.5929C50.2729 128.32 50.8729 128.28 51.4729 128.22ZM42.9929 134.86L42.8929 134.96C44.2329 134.54 44.9729 134.18 45.8329 133.52C45.2529 132.86 44.9529 132.42 44.5329 131.58C44.0729 132.16 43.9529 132.3 43.5129 132.74C43.2129 132.32 43.0929 132.18 42.7529 131.84V132.36C42.7529 132.92 42.7729 133.22 42.8129 133.6C42.4529 133.56 42.2529 133.56 41.3729 133.56H40.6129C41.3529 134.16 41.9329 134.48 42.9929 134.86ZM45.5929 130.04L45.5529 130.08C45.6129 130.18 45.6129 130.18 45.6729 130.32C45.9929 131.06 46.3929 131.62 47.0529 132.3C47.6529 131.56 47.8729 131.12 48.2129 130.04H45.5929ZM37.8929 131.16H36.4129V132.26H37.8929V131.16ZM39.6529 131.16V132.26H41.1729V131.16H39.6529ZM41.8329 142.08V138.5H36.9929C36.0729 138.5 35.5929 138.52 35.0529 138.58V136.76C35.5929 136.84 35.9929 136.86 36.9929 136.86H48.6129C49.6929 136.86 50.0529 136.84 50.6129 136.76V138.58C50.0529 138.52 49.5729 138.5 48.6129 138.5H43.8729V139.42H47.9129C48.7929 139.42 49.1329 139.4 49.6529 139.34V141.14C49.1729 141.08 48.6729 141.06 47.9129 141.06H43.8729V142.08H49.3929C50.3329 142.08 51.0529 142.04 51.5729 141.96V143.88C50.8529 143.8 50.2129 143.76 49.4129 143.76H36.2729C35.4729 143.76 34.8129 143.8 34.1129 143.88V141.96C34.6129 142.04 35.4129 142.08 36.2729 142.08H37.3929V140.52C37.3929 139.96 37.3729 139.62 37.3129 139.24H39.4929C39.4329 139.64 39.4129 140 39.4129 140.52V142.08H41.8329Z" fill="white"/>
<path d="M222.138 99.7998C222.138 99.9198 221.978 100.06 221.578 100.36C221.258 100.6 221.038 100.7 220.938 100.7C220.878 100.7 220.818 100.66 220.758 100.56C220.338 99.8798 219.638 99.0998 219.058 98.5998C219.018 98.5598 218.998 98.5198 218.998 98.4798C218.998 98.3998 219.138 98.2598 219.478 97.9998C219.818 97.7598 219.918 97.6998 220.058 97.6998C220.378 97.6998 222.138 99.4798 222.138 99.7998ZM219.578 102.72C219.498 102.62 219.458 102.56 219.458 102.48C219.458 102.34 219.638 102.16 220.218 101.7C220.618 101.4 220.818 101.28 220.978 101.28C221.238 101.28 222.138 102.24 222.978 103.42C223.678 104.42 224.438 105.84 224.438 106.18C224.438 106.38 224.378 106.44 223.738 106.96C223.338 107.28 222.878 107.54 222.718 107.54C222.578 107.54 222.518 107.48 222.378 107.14C221.998 106.18 221.658 105.52 221.118 104.66C220.578 103.8 220.538 103.76 219.578 102.72ZM221.038 97.0998C221.038 96.9398 221.858 96.3398 222.078 96.3398C222.418 96.3398 224.118 98.0398 224.118 98.3798C224.118 98.4798 223.998 98.5998 223.598 98.8798C223.238 99.1598 223.058 99.2598 222.978 99.2598C222.878 99.2598 222.878 99.2598 222.478 98.6998C222.138 98.2398 221.498 97.5598 221.138 97.2598C221.078 97.1998 221.038 97.1598 221.038 97.0998ZM211.498 103.88C210.018 104.22 209.198 104.4 209.018 104.46C208.858 104.5 208.778 104.54 208.658 104.6C208.558 104.66 208.498 104.68 208.418 104.68C207.978 104.68 207.658 103.92 207.418 102.44C207.578 102.44 207.718 102.44 207.798 102.44C208.638 102.44 210.778 102.18 212.058 101.92C212.478 100.18 212.698 98.8398 212.698 97.8998C212.698 97.8198 212.698 97.6998 212.678 97.5598C213.538 97.6398 214.358 97.8198 214.918 98.0598C215.238 98.1798 215.398 98.3398 215.398 98.5398C215.398 98.6398 215.378 98.7198 215.278 98.8798C214.978 99.3998 214.978 99.3998 214.358 101.6C214.838 101.54 215.378 101.5 215.718 101.5C216.538 101.5 217.178 101.66 217.638 101.98C218.438 102.56 218.838 103.74 218.838 105.56C218.838 108.54 218.298 111.1 217.378 112.36C216.738 113.24 215.898 113.66 214.718 113.66C213.998 113.66 213.318 113.56 213.118 113.44C212.958 113.34 212.958 113.34 212.898 112.6C212.838 112.06 212.718 111.58 212.478 111.02C213.518 111.38 213.778 111.44 214.418 111.44C215.378 111.44 215.778 110.98 216.218 109.36C216.518 108.3 216.678 106.94 216.678 105.46C216.678 103.9 216.298 103.34 215.238 103.34C214.878 103.34 214.298 103.4 213.838 103.46C213.778 103.7 213.758 103.72 213.678 103.98C213.118 106.04 212.098 108.72 211.078 110.88C210.018 113.06 209.758 113.5 209.498 113.5C209.338 113.5 208.798 113.22 208.218 112.84C207.758 112.56 207.638 112.44 207.638 112.28C207.638 112.18 207.638 112.18 208.458 110.88C209.558 109.18 210.998 105.86 211.498 103.88Z" fill="white"/>
<path d="M190.738 98.6798C191.858 98.6998 192.778 98.8198 193.318 98.9998C193.478 99.0598 193.558 99.1798 193.558 99.3398C193.558 99.4198 193.558 99.4598 193.518 99.6198C193.398 100.06 193.378 100.38 193.378 101.18C193.338 106.06 192.458 109.18 190.358 111.84C189.898 112.4 189.718 112.58 189.518 112.58C189.438 112.58 189.338 112.54 189.178 112.46C188.638 112.12 188.138 111.94 187.238 111.74C188.618 110.34 189.158 109.6 189.758 108.24C190.598 106.36 190.938 104.46 190.938 101.6C190.938 100.28 190.898 99.6798 190.738 98.6798ZM195.458 108.44V100.94C195.458 99.9598 195.398 99.1798 195.278 98.3398C197.438 98.4198 198.218 98.5798 198.218 98.9798C198.218 99.0998 198.198 99.1598 198.118 99.3798C198.058 99.4998 197.998 99.8198 197.978 100.12C197.918 100.66 197.918 100.66 197.878 109.46C200.418 108.02 202.078 106.64 203.758 104.52C203.798 105.56 203.878 106.32 204.058 106.92C204.118 107.1 204.118 107.16 204.118 107.26C204.118 107.58 203.918 107.84 202.998 108.7C201.518 110.06 200.518 110.76 198.658 111.74C198.218 111.96 197.958 112.14 197.718 112.36C197.578 112.48 197.398 112.56 197.258 112.56C197.018 112.56 196.298 112.08 195.778 111.58C195.378 111.18 195.198 110.88 195.198 110.62C195.198 110.52 195.218 110.46 195.278 110.28C195.418 109.9 195.458 109.54 195.458 108.44Z" fill="white"/>
<path d="M181.715 101.94L176.655 101.96C175.275 103.8 172.915 106 172.335 106C172.155 106 172.075 105.96 171.675 105.62C171.375 105.36 170.855 105 170.195 104.62C171.615 103.84 173.075 102.66 174.175 101.34C175.355 99.96 176.055 98.8 176.755 97.04C177.735 97.36 178.255 97.58 178.915 97.96C179.195 98.12 179.295 98.22 179.295 98.4C179.295 98.56 179.235 98.66 179.055 98.8C178.855 98.94 178.655 99.2 178.135 99.9L181.115 99.92C182.195 99.92 182.395 99.9 182.995 99.68C183.075 99.66 183.135 99.64 183.215 99.64C183.535 99.64 183.875 99.94 184.455 100.68C184.835 101.18 184.935 101.36 184.935 101.58C184.935 101.8 184.875 101.9 184.595 102.18C184.435 102.36 184.175 102.74 183.975 103.08C181.815 106.98 179.735 109.44 176.555 111.82C175.175 112.86 173.355 113.92 172.975 113.92C172.815 113.92 172.675 113.84 172.495 113.64C172.155 113.28 171.615 112.9 170.835 112.48C173.755 111.08 175.795 109.68 177.795 107.66C179.215 106.22 180.215 104.86 181.095 103.2C181.275 102.86 181.395 102.6 181.715 101.94Z" fill="white"/>
<path d="M157.541 108.9V107.24C155.961 108.24 153.881 109.34 153.521 109.34C153.321 109.34 153.321 109.34 152.941 108.92C152.601 108.54 152.201 108.18 151.701 107.82C154.341 106.96 156.961 105.42 159.321 103.34C160.281 102.5 160.721 101.98 161.261 101.16C162.321 101.86 163.121 102.62 163.121 102.92C163.121 103.04 163.061 103.1 162.881 103.18C162.601 103.3 162.421 103.46 161.821 103.98C161.401 104.36 160.601 105.02 159.701 105.7V108.9C159.701 110.64 159.741 112.42 159.801 113.26C159.801 113.34 159.801 113.44 159.801 113.48C159.801 113.8 159.601 113.84 158.341 113.84C157.541 113.84 157.461 113.82 157.461 113.6C157.461 113.58 157.461 113.56 157.461 113.52C157.461 113.48 157.461 113.46 157.461 113.46C157.461 113.4 157.461 113.26 157.481 113.06C157.521 112.56 157.541 110.8 157.541 108.9Z" fill="white"/>
<path d="M139.062 104.84C135.822 104.86 134.722 104.88 133.182 104.92C132.962 104.94 132.822 104.94 132.742 104.94C132.662 104.94 132.602 104.94 132.562 104.96C132.482 104.96 132.422 104.96 132.382 104.96C132.182 104.96 132.042 104.86 132.002 104.62C131.902 104.14 131.842 103.48 131.842 102.56C132.722 102.66 132.902 102.66 134.922 102.7C137.542 102.74 139.122 102.76 139.662 102.76C143.002 102.76 146.902 102.7 147.522 102.64C147.602 102.64 147.662 102.64 147.702 102.64C147.982 102.64 147.982 102.66 147.982 103.98C147.982 104.86 147.942 104.96 147.662 104.96C147.642 104.96 147.582 104.96 147.522 104.96C146.602 104.92 146.222 104.92 141.522 104.86C141.442 106.38 141.362 107.02 141.102 107.94C140.482 110.2 139.302 111.78 137.302 113.02C136.742 113.38 136.302 113.58 136.122 113.58C136.022 113.58 135.942 113.54 135.782 113.38C135.062 112.66 134.822 112.46 134.102 112.1C137.642 110.44 138.942 108.54 139.062 104.84ZM134.242 97.98C135.102 98.08 137.702 98.16 140.162 98.16C142.082 98.16 144.182 98.1 145.022 98C145.042 98 145.082 98 145.122 98C145.402 98 145.462 98.14 145.462 98.76C145.462 98.8 145.462 98.98 145.462 99.18C145.462 99.3 145.462 99.5 145.442 99.74C145.442 100.28 145.402 100.34 145.022 100.34C144.962 100.34 144.902 100.34 144.782 100.34C144.242 100.32 140.582 100.26 139.682 100.26C137.282 100.26 135.542 100.3 134.902 100.38C134.842 100.4 134.782 100.4 134.742 100.4C134.542 100.4 134.442 100.32 134.402 100.14C134.322 99.72 134.242 98.76 134.242 97.98Z" fill="white"/>
<path d="M112.528 104.04C114.148 104.2 115.568 104.24 119.748 104.24C123.408 104.24 125.508 104.2 127.528 104.06C127.588 104.06 127.708 104.06 127.788 104.06C128.388 104.06 128.388 104.08 128.388 105.68C128.388 106.5 128.328 106.64 127.988 106.64C127.988 106.64 127.928 106.64 127.908 106.64C126.588 106.58 125.848 106.58 120.068 106.58C117.948 106.58 116.888 106.6 115.048 106.66C114.908 106.66 114.748 106.66 114.468 106.66C113.828 106.66 113.728 106.68 113.348 106.74C113.248 106.74 113.168 106.76 113.128 106.76C112.908 106.76 112.768 106.66 112.728 106.48C112.608 105.98 112.528 104.96 112.528 104.04Z" fill="white"/>
<path d="M103.689 105.3H100.189C99.4694 105.3 98.9894 105.34 98.5494 105.4C98.4894 105.42 98.4494 105.42 98.4094 105.42C98.2294 105.42 98.1094 105.32 98.0694 105.1C97.9694 104.66 97.9094 104.02 97.9094 103.14C98.5894 103.28 99.8094 103.34 102.009 103.34C103.829 103.34 104.009 103.32 104.369 103.16C104.449 103.14 104.529 103.12 104.589 103.12C104.929 103.12 105.249 103.3 105.729 103.72C106.149 104.1 106.429 104.5 106.429 104.7C106.429 104.78 106.389 104.88 106.269 105.04C106.029 105.36 106.029 105.36 105.709 107.26C105.469 108.84 105.349 109.48 105.209 110.14C105.189 110.2 105.189 110.2 105.189 110.26C106.969 110.26 107.309 110.24 108.169 110.18C108.209 110.18 108.269 110.18 108.289 110.18C108.569 110.18 108.629 110.38 108.629 111.42C108.629 112.24 108.589 112.36 108.329 112.36C108.229 112.36 108.189 112.36 107.369 112.32C106.709 112.28 104.569 112.26 102.669 112.26C99.5694 112.26 97.2494 112.32 96.4094 112.42C96.3494 112.42 96.2894 112.42 96.2294 112.42C95.9494 112.42 95.8294 112.36 95.7494 112.2C95.6694 111.96 95.5894 111.38 95.5094 110.14C96.9094 110.26 97.4694 110.28 102.949 110.28C102.989 110.12 102.989 110.1 103.009 109.94C103.269 108.68 103.509 107 103.689 105.3Z" fill="white"/>
<path d="M81.1655 100.82C80.8455 99.2801 80.5255 98.1401 80.1655 97.4001C81.0655 97.2201 81.9255 97.1401 82.7055 97.1401C83.1055 97.1401 83.2455 97.2401 83.2455 97.5201C83.2455 97.6001 83.2455 97.6601 83.1855 97.8601C83.1655 97.9801 83.1455 98.1201 83.1455 98.2601C83.1455 98.6401 83.1855 98.9601 83.4455 100.42C85.5055 100.08 87.1455 99.7401 87.9855 99.4801C88.1255 99.4201 88.1655 99.4201 88.2855 99.4201C88.4255 99.4201 88.4855 99.5401 88.5655 99.9201C88.6455 100.3 88.8055 101.32 88.8055 101.48C88.8055 101.74 88.7255 101.76 87.9455 101.84C87.2255 101.9 86.8255 101.96 83.8255 102.48C84.1655 104.24 84.1655 104.24 84.3455 105.18C84.7855 105.1 84.7855 105.1 85.2255 105.02C87.2255 104.66 88.5855 104.36 89.5055 104.08C89.8255 103.98 90.0255 103.92 90.0855 103.92C90.2455 103.92 90.3055 104 90.3655 104.2C90.5255 104.72 90.7255 105.7 90.7255 106C90.7255 106.18 90.6855 106.2 90.0855 106.3C89.7655 106.36 89.7655 106.36 89.1055 106.48C88.0255 106.66 88.0255 106.66 84.7655 107.24C85.2855 109.74 85.2855 109.74 86.0055 112.64C86.0455 112.8 86.0655 112.92 86.0655 112.96C86.0655 113.16 85.9855 113.22 85.6455 113.34C85.0855 113.54 84.0455 113.76 83.7655 113.76C83.5655 113.76 83.5255 113.7 83.4655 113.32C83.3255 112.36 83.0055 110.58 82.4855 107.64C78.4055 108.4 78.0855 108.48 76.9455 108.88C76.6855 108.96 76.6055 108.98 76.5055 108.98C76.3455 108.98 76.2455 108.9 76.1455 108.68C75.9055 108.18 75.7055 107.54 75.4655 106.56C76.5055 106.52 77.6055 106.36 82.1055 105.6C81.8655 104.4 81.7055 103.54 81.5655 102.86C77.9255 103.5 77.9255 103.5 76.9055 103.8C76.7455 103.86 76.7055 103.86 76.6655 103.86C76.3455 103.86 76.3455 103.86 75.7655 101.54C76.8655 101.5 76.8655 101.5 81.1655 100.82Z" fill="white"/>
<path d="M68.0254 102.6H68.0654C68.3454 102.6 70.0454 104.5 70.0454 104.8C70.0454 104.9 69.9254 105.02 69.5654 105.34C69.1854 105.66 69.1654 105.66 69.0054 105.72C68.9054 105.76 68.9054 105.76 68.8654 105.76C68.7854 105.76 68.7654 105.74 68.4054 105.18C68.0854 104.68 67.7454 104.24 67.1054 103.58C67.0654 103.54 67.0054 103.44 67.0054 103.42C67.0454 103.32 67.0654 103.26 67.0854 103.26C67.1454 103.18 67.4854 102.9 67.5654 102.84C67.7654 102.74 67.8854 102.66 67.9054 102.64C67.9254 102.6 67.9654 102.6 67.9654 102.6H68.0254ZM72.0054 103.44C72.0054 103.56 71.8654 103.7 71.4854 103.98C71.1854 104.2 71.0054 104.32 70.9054 104.32C70.8254 104.32 70.7854 104.28 70.6854 104.12C70.0854 103.22 69.7854 102.84 69.1454 102.22C69.1054 102.16 69.0654 102.1 69.0654 102.06C69.0654 101.96 69.1854 101.84 69.4654 101.64C69.7454 101.44 69.9854 101.32 70.0854 101.32C70.2254 101.32 70.4654 101.5 70.8854 101.92C71.4654 102.52 72.0054 103.26 72.0054 103.44ZM64.7254 100.74C62.1054 101.18 59.3454 101.7 57.8254 102.08C57.3054 102.2 57.1254 102.26 56.4054 102.52C56.1454 102.62 56.0054 102.66 55.8854 102.66C55.4454 102.66 55.0454 101.84 54.6854 100.12C55.9654 100.06 56.4254 100 58.6454 99.66C61.0454 99.3 64.0854 98.84 65.6854 98.64C67.4854 98.4 68.9254 98.16 69.6854 98C69.8254 97.96 69.8854 97.96 69.9854 97.96C70.2454 97.96 70.3454 98.08 70.5254 98.58C70.6854 99 70.8054 99.6 70.8054 99.88C70.8054 100.12 70.7254 100.2 70.4454 100.2C70.0254 100.2 69.6454 100.24 69.2654 100.3C65.8854 100.86 63.1854 103.82 63.1854 106.94C63.1854 109.28 65.0254 110.82 68.1454 111.1C68.4254 111.12 68.5254 111.22 68.5254 111.46C68.5254 111.96 68.3254 112.92 68.1454 113.36C68.0454 113.58 67.8854 113.68 67.6254 113.68C67.3654 113.68 66.7654 113.56 66.1454 113.38C62.7454 112.38 60.9654 110.22 60.9654 107.16C60.9654 105.5 61.5054 103.96 62.5454 102.64C63.1054 101.92 63.5854 101.52 64.7254 100.74Z" fill="white"/>
<path d="M42.1215 104.56C41.7015 104.18 41.5415 103.9 41.3615 103.28C41.1015 102.4 41.0215 101.86 40.7815 99.3998C40.7015 98.4398 40.6215 97.9598 40.4215 97.2798C41.6415 97.2998 42.4215 97.3598 42.9615 97.4998C43.2615 97.5798 43.4015 97.7198 43.4015 97.9398C43.4015 98.0198 43.3815 98.1198 43.3415 98.2798C43.2015 98.7598 43.1415 99.1198 43.1415 99.6398C43.1415 100.62 43.3415 102.22 43.5615 102.92C43.6815 103.3 43.8015 103.44 44.0215 103.44C44.5015 103.44 46.2615 102.52 47.2215 101.78C47.4815 101.58 47.5215 101.56 47.6215 101.56C47.8015 101.56 47.9815 101.7 48.2815 102.08C48.7815 102.76 49.1815 103.5 49.1815 103.78C49.1815 104 49.0415 104.14 48.7015 104.24C47.4615 104.58 45.4215 105.38 44.0415 106.04C41.6015 107.24 40.5015 108.34 40.5015 109.58C40.5015 110.8 41.5215 111.3 44.1015 111.3C45.6015 111.3 46.9615 111.16 48.8015 110.86C48.8815 110.84 49.0215 110.82 49.0615 110.82C49.2215 110.82 49.3215 110.9 49.4015 111.06C49.4615 111.26 49.6015 112.48 49.6015 112.96C49.6015 113.24 49.5215 113.34 49.2615 113.42C48.8215 113.52 46.4015 113.66 44.8815 113.66C42.3215 113.66 40.6215 113.32 39.5615 112.6C38.6615 111.98 38.1815 111 38.1815 109.8C38.1815 108.88 38.4415 108.06 38.9815 107.26C39.6815 106.22 40.4415 105.56 42.1215 104.56Z" fill="white"/>
<path d="M19.2616 98.0801C21.0016 98.6201 22.9016 98.8801 25.0016 98.8801C26.1616 98.8801 26.8416 98.8401 28.2016 98.6401C28.2416 98.6401 28.3016 98.6401 28.3416 98.6401C28.5016 98.6401 28.5616 98.7001 28.6016 98.8201C28.6416 99.0601 28.6816 99.6601 28.6816 100.38C28.6816 100.84 28.6416 101 28.5216 101.08C28.3616 101.18 26.6216 101.3 25.2816 101.3C23.5016 101.3 22.0216 101.16 20.3616 100.84C19.2216 100.62 19.1616 100.56 19.1616 99.8601C19.1616 99.4001 19.2016 98.6401 19.2616 98.0801ZM19.1616 107.56C19.8816 109.54 21.5416 110.38 24.8216 110.38C26.4616 110.38 28.2816 110.14 30.0816 109.68C30.1816 109.64 30.2416 109.64 30.3016 109.64C30.4216 109.64 30.4816 109.72 30.5216 109.9C30.5816 110.34 30.6216 110.98 30.6216 111.64C30.6216 112.04 30.5816 112.16 30.4016 112.24C29.8016 112.56 27.1016 112.86 24.7816 112.86C21.7616 112.86 20.0416 112.36 18.6616 111.06C18.0016 110.44 17.3416 109.36 17.3416 108.92C17.3416 108.62 17.5216 108.5 19.1616 107.56Z" fill="white"/>
<path d="M187.964 74.6402C189.264 73.9202 190.284 73.6202 191.484 73.6202C194.304 73.6202 196.304 75.5402 196.304 78.2602C196.304 80.1202 195.324 81.8002 193.684 82.7802C192.544 83.4602 191.144 83.8002 189.564 83.8002C187.024 83.8002 185.544 82.7802 185.544 81.0402C185.544 79.4602 186.864 78.3402 188.744 78.3402C190.444 78.3402 191.664 79.2002 192.484 80.9602C193.504 80.2202 193.924 79.4402 193.924 78.3602C193.924 76.6402 192.704 75.5202 190.784 75.5202C188.824 75.5202 186.724 76.5002 184.984 78.2402C184.664 78.5602 184.364 78.9002 184.004 79.3602C183.864 79.5602 183.764 79.6402 183.644 79.6402C183.284 79.6402 181.864 78.2402 181.864 77.8802C181.864 77.7002 181.944 77.6002 182.384 77.2802C182.844 76.9202 183.504 76.3402 184.344 75.5402C186.284 73.7002 187.704 72.1602 189.804 69.6002C187.304 69.9202 185.624 70.2002 185.004 70.4202C184.904 70.4402 184.844 70.4602 184.784 70.4602C184.624 70.4602 184.524 70.3602 184.404 70.0602C184.164 69.4602 184.044 68.8002 183.984 67.9202C184.524 68.0002 184.904 68.0202 185.344 68.0202C186.304 68.0202 187.924 67.8802 190.024 67.6402C190.764 67.5602 191.004 67.5002 191.564 67.2802C191.744 67.2002 191.844 67.1802 191.964 67.1802C192.244 67.1802 192.524 67.4202 193.044 68.2202C193.424 68.7402 193.544 69.0002 193.544 69.1602C193.544 69.4202 193.484 69.5002 193.044 69.7802C192.684 70.0002 192.464 70.1802 192.004 70.6202C191.004 71.5802 190.984 71.5802 189.744 72.8402C188.864 73.7402 188.764 73.8402 187.964 74.6402ZM190.424 81.7802C190.184 81.1202 189.984 80.8202 189.564 80.5402C189.264 80.3402 188.924 80.2402 188.544 80.2402C187.924 80.2402 187.524 80.5402 187.524 81.0202C187.524 81.6002 188.144 81.9602 189.104 81.9602C189.544 81.9602 189.924 81.9202 190.424 81.7802Z" fill="white"/>
<path d="M170.436 73.3399V71.7999C166.056 72.0799 164.356 72.2599 163.096 72.5999C163.016 72.6199 162.936 72.6399 162.876 72.6399C162.736 72.6399 162.616 72.5399 162.556 72.3799C162.376 71.8799 162.276 71.2199 162.216 70.2199C162.456 70.2199 162.616 70.2199 162.696 70.2199C163.336 70.2199 163.936 70.1999 165.856 70.0799C167.336 69.9999 168.596 69.9399 170.396 69.8799C170.376 68.0799 170.356 67.7999 170.176 66.8999C171.716 66.9399 172.496 66.9999 172.776 67.1199C172.896 67.1799 172.956 67.2799 172.956 67.4799C172.956 67.5199 172.936 67.5999 172.896 67.6999C172.716 68.1399 172.656 68.5799 172.616 69.8199C175.536 69.7399 175.976 69.7399 177.976 69.7399C178.516 69.7399 178.596 69.7399 178.656 69.7999C178.736 69.8799 178.776 70.1799 178.776 70.8599C178.776 71.7799 178.756 71.8799 178.496 71.8799C178.476 71.8799 178.456 71.8799 178.416 71.8799C177.556 71.7999 175.416 71.7199 174.016 71.7199C173.556 71.7199 173.556 71.7199 172.556 71.7399L172.516 75.0199C172.816 75.6799 172.916 76.2399 172.916 77.1999C172.916 79.6999 171.996 81.6199 170.056 83.0399C169.256 83.6399 168.236 84.1599 167.876 84.1599C167.696 84.1599 167.596 84.0999 167.436 83.9399C166.876 83.2999 166.456 82.9799 165.736 82.5799C166.936 82.2399 167.556 81.9599 168.336 81.4799C168.916 81.0999 169.436 80.6799 169.816 80.2599C170.076 79.9399 170.276 79.6399 170.576 78.9999C169.996 79.5999 169.516 79.8199 168.776 79.8199C167.096 79.8199 165.996 78.5399 165.996 76.5999C165.996 74.5599 167.296 73.0799 169.096 73.0799C169.676 73.0799 170.036 73.1599 170.436 73.3399ZM169.236 74.9599C168.516 74.9599 168.016 75.5799 168.016 76.4799C168.016 77.3199 168.496 77.8999 169.216 77.8999C169.976 77.8999 170.436 77.3599 170.436 76.4399C170.436 75.4999 169.996 74.9599 169.236 74.9599Z" fill="white"/>
<path d="M150.336 76.12H147.276V80.78C147.276 81.92 147.296 82.36 147.356 82.96H145.056C145.136 82.34 145.176 81.72 145.176 80.78V76.82C144.416 77.54 143.696 78.14 142.596 78.96C142.316 78.24 141.956 77.6 141.496 77C143.956 75.42 145.616 73.66 147.116 71.04H144.296C143.236 71.04 142.576 71.08 141.876 71.16V68.98C142.476 69.06 143.116 69.1 144.296 69.1H148.016C148.456 67.96 148.596 67.36 148.716 66.46L151.096 66.72C150.896 67.14 150.896 67.14 150.736 67.7C150.616 68.04 150.436 68.56 150.236 69.1H156.876C158.036 69.1 158.676 69.06 159.296 68.98V71.16C158.636 71.06 158.016 71.04 156.876 71.04H149.416C148.876 72.14 148.216 73.2 147.436 74.26H150.336V74.14C150.336 73.04 150.296 72.46 150.216 71.92H152.536C152.456 72.46 152.436 73.02 152.436 74.14V74.26H156.156C156.916 74.26 157.436 74.24 157.956 74.18C157.916 74.7 157.896 75.14 157.896 75.82V80.62C157.896 81.62 157.636 82.14 156.996 82.4C156.476 82.62 156.016 82.68 154.896 82.68C154.636 82.68 154.416 82.68 153.716 82.64C153.636 81.82 153.496 81.36 153.116 80.58C153.936 80.7 154.456 80.76 154.916 80.76C155.596 80.76 155.796 80.62 155.796 80.16V76.12H152.436V82.08C152.436 83.12 152.476 83.84 152.556 84.36H150.196C150.296 83.8 150.336 83.1 150.336 82.06V76.12Z" fill="white"/>
<path d="M131.776 71.66H130.836C130.156 71.66 129.776 71.68 129.216 71.74V70.78C128.316 71.28 127.896 71.5 126.796 71.94C126.556 71.3 126.276 70.78 125.856 70.18C127.196 69.76 128.076 69.34 129.176 68.6C130.256 67.9 131.036 67.2 131.496 66.58H133.616C135.236 68.22 137.236 69.32 139.676 69.94C139.576 70.12 139.516 70.22 139.476 70.3C138.996 71.08 138.916 71.22 138.636 71.88C137.476 71.4 137.016 71.2 136.276 70.76V71.74C135.696 71.68 135.376 71.66 134.656 71.66H133.716V72.54H136.536C137.296 72.54 137.836 72.52 138.416 72.44V74.3C137.836 74.24 137.396 74.22 136.636 74.22H133.716V76.06C133.716 76.94 133.536 77.38 133.076 77.62C132.756 77.78 132.376 77.82 131.516 77.86C131.496 78.08 131.476 78.34 131.476 78.64V78.84H135.596C136.656 78.84 137.196 78.82 137.776 78.74V80.66C137.216 80.6 136.596 80.58 135.616 80.58H131.476V81.9H136.956C137.976 81.9 138.636 81.86 139.196 81.8V83.84C138.496 83.76 137.816 83.72 136.796 83.72H124.316C123.336 83.72 122.656 83.76 121.956 83.84V81.8C122.516 81.86 123.156 81.9 124.176 81.9H129.416V80.58H125.756C124.956 80.58 124.276 80.6 123.476 80.66V78.72C124.016 78.8 124.656 78.84 125.776 78.84H129.416V78.64C129.416 78.14 129.396 77.82 129.316 77.54H130.336C130.216 76.96 130.136 76.7 129.856 76.18C130.356 76.24 130.796 76.28 131.116 76.28C131.676 76.28 131.776 76.22 131.776 75.82V74.22H128.836C128.136 74.22 127.676 74.24 127.156 74.3V72.44C127.716 72.5 128.396 72.54 129.096 72.54H131.776V71.66ZM134.836 70.06H135.076C134.156 69.48 133.616 69.02 132.636 68.06C131.596 69.14 131.176 69.52 130.376 70.06H134.836ZM122.736 68.06L123.916 66.5C125.216 67.14 125.816 67.52 127.036 68.42L125.716 70.06C124.776 69.2 123.956 68.64 122.736 68.06ZM125.736 72.88L126.836 74.16C126.016 75.18 124.836 76.4 123.836 77.28C123.516 77.54 123.216 77.86 122.896 78.2L121.776 76.28C123.016 75.64 124.396 74.44 125.736 72.88ZM121.736 71.46L122.876 69.92C124.216 70.6 125.036 71.08 125.756 71.64L124.576 73.3C123.656 72.56 123.056 72.16 121.736 71.46ZM128.816 74.28L130.416 75.16C129.136 76.68 128.556 77.22 127.216 78.08C126.756 77.5 126.476 77.22 125.876 76.76C127.256 76.02 127.996 75.4 128.816 74.28ZM134.576 75.34L136.036 74.3C137.096 75.36 137.916 75.86 139.576 76.48C139.136 76.98 138.856 77.36 138.376 78.06C136.736 77.26 135.776 76.58 134.576 75.34Z" fill="white"/>
<path d="M110.396 78.1802V78.0802C108.416 79.2402 107.856 79.8202 107.856 80.7002C107.856 81.0602 107.996 81.3002 108.296 81.4802C108.736 81.7402 109.716 81.8802 110.976 81.8802C112.056 81.8802 113.556 81.7802 114.576 81.6402C114.996 81.5802 115.236 81.5202 116.036 81.3202C116.076 81.3202 116.096 81.3202 116.136 81.3202C116.276 81.3202 116.376 81.4202 116.436 81.5602C116.556 81.9802 116.636 82.5802 116.636 83.3002C116.636 83.6002 116.536 83.7202 116.276 83.7802C115.796 83.8802 113.576 84.0002 112.116 84.0002C109.676 84.0002 108.376 83.8402 107.416 83.4402C106.256 82.9602 105.676 82.0602 105.676 80.8002C105.676 79.6402 106.216 78.6202 107.296 77.7602C108.156 77.0802 108.356 76.9402 110.196 75.9002C110.036 75.2402 109.736 74.9602 109.116 74.9602C108.296 74.9602 107.436 75.2802 106.496 75.9002C105.916 76.3002 105.236 76.8602 104.816 77.2802C104.216 77.9002 104.156 77.9402 103.996 77.9402C103.796 77.9402 103.376 77.4802 102.956 76.7802C102.756 76.4402 102.636 76.1802 102.636 76.0402C102.636 75.8602 102.676 75.8202 103.156 75.5202C104.796 74.4202 106.156 73.0202 106.976 71.5802C105.556 71.6802 104.816 71.7002 104.036 71.7002C103.736 71.7002 103.676 71.6402 103.576 71.3002C103.516 71.0402 103.416 69.9802 103.396 69.4402C104.076 69.5402 104.476 69.5602 105.436 69.5602C106.216 69.5602 107.076 69.5402 107.976 69.5002C108.396 68.3602 108.536 67.6402 108.556 66.7002C110.336 67.0002 111.156 67.3002 111.156 67.6402C111.156 67.7202 111.136 67.7602 111.076 67.8802C110.936 68.1402 110.776 68.4602 110.516 69.0802C110.476 69.1602 110.476 69.1602 110.456 69.2202C111.596 69.0602 112.596 68.8602 113.296 68.7002C113.736 68.5802 113.836 68.5602 113.936 68.5602C114.096 68.5602 114.176 68.6202 114.216 68.7402C114.296 69.1002 114.416 70.0202 114.416 70.3002C114.416 70.5202 114.336 70.6202 114.076 70.6802C113.436 70.8602 111.236 71.2002 109.396 71.3802C108.796 72.4802 108.376 73.1202 107.756 73.8002C108.656 73.3802 109.336 73.2202 110.136 73.2202C111.036 73.2202 111.636 73.7402 112.036 74.8602C114.016 73.7802 115.076 73.2002 115.196 73.1202C116.116 72.5802 116.496 72.2802 116.936 71.7802C117.756 72.6202 118.636 73.8802 118.636 74.2202C118.636 74.3402 118.556 74.4202 118.296 74.4802C117.316 74.7402 115.496 75.5202 112.456 77.0002C112.476 77.3602 112.516 78.2802 112.516 78.9202C112.516 79.0202 112.516 79.1802 112.516 79.3402C112.516 79.4402 112.516 79.4802 112.516 79.5402V79.8802C112.516 80.1202 112.476 80.2402 112.376 80.3002C112.276 80.4002 111.736 80.4602 111.136 80.4602C110.456 80.4602 110.336 80.4002 110.336 80.0802C110.336 80.0602 110.336 80.0402 110.336 80.0002C110.376 79.4202 110.396 78.6602 110.396 78.1802Z" fill="white"/>
<path d="M95.5157 75.84L94.4358 77.22C93.8358 76.52 93.3758 76.06 92.7158 75.58L93.7957 74.34C94.5157 74.84 94.9357 75.2 95.5157 75.84ZM97.8158 71.84L98.8158 72.92C98.6757 73.3 98.6357 73.42 98.3757 74.32C97.6957 76.58 96.8357 78.28 95.5157 80.02C96.8557 81.02 98.0558 81.58 99.8958 82.06C99.3758 82.88 99.2357 83.22 98.9557 84.2C96.9157 83.44 95.6357 82.72 94.1957 81.5C93.0357 82.62 91.9157 83.44 90.4757 84.22C90.1557 83.44 89.9158 83.1 89.2558 82.44C90.5358 81.86 91.7358 81.06 92.7558 80.12C92.0758 79.4 91.5158 78.64 90.8958 77.68C90.6758 77.94 90.5357 78.12 90.1957 78.52C89.8557 77.88 89.5557 77.5 89.0157 77.06V82.12C89.0157 83.08 89.0358 83.66 89.1158 84.28H86.9357C87.0157 83.72 87.0557 82.98 87.0557 82.04V78.88C87.0557 78.2 87.0757 77.74 87.0957 77.06C86.8157 77.6 86.4957 78 85.9757 78.54C85.6957 77.66 85.4757 77.26 84.8757 76.5C86.0757 75.44 86.9157 74.32 87.8357 72.54C88.2757 71.7 88.5158 71.1 88.6758 70.46L90.7357 71.16C90.5557 71.52 90.4358 71.78 90.3558 71.94C89.9358 72.86 89.6757 73.34 89.0157 74.44V76.86C90.2757 75.48 91.3158 73.84 91.8958 72.32C92.1958 71.56 92.3157 71.16 92.4157 70.5L94.4557 70.96C94.3958 71.12 94.3958 71.12 94.2757 71.42C94.1957 71.6 94.1557 71.7 94.0957 71.92H96.4757C97.1357 71.92 97.4557 71.9 97.8158 71.84ZM96.5157 73.7H93.3558C92.9558 74.54 92.5957 75.22 92.0557 76.08C92.6157 77.02 93.2757 77.9 94.0557 78.72C95.2557 77.18 95.7957 76.1 96.5157 73.7ZM91.3958 68.42V67.72C91.3958 67.18 91.3757 66.84 91.2957 66.52H93.5557C93.4757 66.88 93.4557 67.16 93.4557 67.72V68.42H97.4157C98.1157 68.42 98.7157 68.38 99.3757 68.3V70.38C98.5757 70.3 98.1757 70.28 97.4757 70.28H88.3158C87.6558 70.28 87.0158 70.32 86.3958 70.38V68.3C87.1558 68.4 87.5558 68.42 88.3958 68.42H91.3958ZM81.9557 68.12L83.3357 66.7C84.7357 67.64 85.3357 68.14 86.2357 69.14L84.8757 70.7C83.7757 69.46 83.2757 69.02 81.9557 68.12ZM81.5157 72.98L82.7957 71.44C84.0357 72.2 84.5958 72.62 85.8558 73.72L84.5758 75.44C83.4158 74.26 82.8757 73.82 81.5157 72.98ZM83.9958 77.02L85.6357 78.2C85.0158 80.52 84.4757 81.9 83.3357 84.08L81.6357 82.62C82.5557 81.52 83.3158 79.72 83.9958 77.02Z" fill="white"/>
<path d="M69.3357 67.94V67.7C69.3357 67.22 69.2957 66.88 69.2357 66.48H71.5757C71.4957 66.88 71.4757 67.2 71.4757 67.68V67.94H76.8157C77.5757 67.94 78.2357 67.92 78.9357 67.86C78.8757 68.28 78.8557 68.74 78.8557 69.28V70.68C78.8557 71.26 78.8757 71.64 78.9357 72.12H76.8557V69.88H64.3757V72.12H62.2957C62.3557 71.64 62.3757 71.24 62.3757 70.68V69.28C62.3757 68.76 62.3557 68.3 62.2957 67.86C62.9957 67.92 63.6557 67.94 64.4157 67.94H69.3357ZM64.7957 82.38V78.84C64.0357 79.28 63.6957 79.46 62.7357 79.92C62.4557 79.1 62.2557 78.72 61.7557 78.06C63.4757 77.36 64.8757 76.62 66.0957 75.82C66.9157 75.28 67.8357 74.54 68.6557 73.76C69.0957 73.32 69.2757 73.1 69.6157 72.6H71.5757C72.9357 74.68 75.8357 76.58 79.5757 77.84C79.0757 78.6 78.9557 78.88 78.5957 79.9C77.6757 79.5 77.4557 79.38 76.3957 78.82V82.4C76.3957 83.2 76.4357 83.7 76.5157 84.3H74.3557V83.48H66.8357V84.3H64.6757C64.7557 83.7 64.7957 83.14 64.7957 82.38ZM67.3357 77.24H73.8357C72.3557 76.18 71.6957 75.56 70.6357 74.26C69.6557 75.44 68.5357 76.44 67.3357 77.24ZM66.8357 79.08V81.54H74.3557V79.08H66.8357ZM67.5157 70.08L69.2357 71.08C68.2357 72.24 67.6957 72.76 66.5557 73.6C65.5957 74.34 65.0557 74.68 63.8357 75.28C63.3757 74.58 63.1157 74.28 62.4557 73.66C63.6157 73.2 64.1757 72.9 64.9557 72.38C65.9757 71.72 66.5357 71.22 67.5157 70.08ZM71.8357 71.12L73.4357 70C75.3557 71.88 76.4557 72.58 78.8557 73.46C78.4157 74.1 78.2757 74.34 77.8357 75.26C75.1357 74.12 74.0757 73.38 71.8357 71.12Z" fill="white"/>
<path d="M49.3357 76.1199H44.1557C43.3757 76.1199 42.7357 76.1599 42.0957 76.2199V74.2599C42.6957 74.3399 43.2957 74.3799 44.1557 74.3799H49.4357V73.1599H45.3157C44.5757 73.1599 44.1557 73.1799 43.5957 73.2399V71.3999C44.1357 71.4599 44.4957 71.4799 45.3157 71.4799H49.4357V70.3199H44.8357C43.9757 70.3199 43.3357 70.3599 42.7757 70.4199V68.4799C43.3757 68.5599 43.9957 68.5999 44.8357 68.5999H47.0757C46.6357 67.8799 46.3557 67.4999 45.9557 67.0799L47.8757 66.3799C48.4957 67.2199 48.9357 67.8999 49.3157 68.5999H51.7557C52.2557 67.9599 52.6357 67.2999 52.9957 66.4799L55.0957 67.0199C54.7757 67.5399 54.3957 68.0599 53.9757 68.5999H56.3557C57.2357 68.5999 57.8357 68.5599 58.3957 68.4799V70.4199C57.8357 70.3599 57.1957 70.3199 56.3557 70.3199H51.5157V71.4799H55.8557C56.6557 71.4799 57.0357 71.4599 57.5757 71.3999V73.2399C57.0157 73.1799 56.6157 73.1599 55.8557 73.1599H51.5157V74.3799H57.0357C57.9357 74.3799 58.5157 74.3399 59.0757 74.2599V76.2199C58.5157 76.1399 57.9557 76.1199 57.0357 76.1199H51.4757C51.4757 76.1999 51.4757 76.2599 51.4757 76.2999C51.4357 76.5599 51.3957 76.9399 51.3157 77.4399H56.7957C57.7357 77.4399 58.1957 77.4199 58.8357 77.3399V79.3399C58.1957 79.2599 57.4957 79.2199 56.6357 79.2199H52.3157C53.1157 80.1399 54.1357 80.8599 55.3757 81.3599C56.5957 81.8399 57.6357 82.0399 59.3757 82.1599C58.8557 83.0599 58.6957 83.4599 58.4957 84.3599C56.2957 83.9799 54.9357 83.5399 53.5757 82.7599C52.2357 81.9999 51.2357 81.0999 50.3957 79.8799C49.8357 80.8399 49.0557 81.6799 48.0557 82.3799C46.7557 83.2999 45.4357 83.7799 42.7557 84.3199C42.5357 83.5199 42.3757 83.1399 41.8157 82.2399C44.9357 81.9199 46.9757 80.9799 48.3757 79.2199H44.5357C43.6757 79.2199 42.9957 79.2599 42.3357 79.3399V77.3399C42.9757 77.4199 43.5357 77.4399 44.3957 77.4399H49.1757C49.2757 76.9999 49.3357 76.4999 49.3357 76.1199Z" fill="white"/>
<path d="M19.5743 224.927L42.5427 189.817L59.1259 210.93L19.5743 224.927Z" fill="#E4BD3B"/>
</svg>
