<svg width="239" height="239" viewBox="0 0 239 239" fill="none" xmlns="http://www.w3.org/2000/svg">
<circle cx="119.5" cy="119.5" r="119.5" fill="#E4BD3B"/>
<path d="M191.24 158.2L190.84 163.44V167.32L190.98 169H189.02L189.16 167.32V163.44L188.76 158.2H191.24ZM188.76 173V170.74H191.24V173H188.76Z" fill="white"/>
<path d="M164.06 158.1L166.02 158.52C165.7 159 165.293 160.273 164.8 162.34C164.493 163.673 164.333 165.327 164.32 167.3V167.48C164.32 169.333 164.413 170.633 164.6 171.38C164.72 170.74 165.053 169.587 165.6 167.92L166.94 169.14C166.1 170.38 165.527 171.72 165.22 173.16V173.18L163.44 173C163.12 171 162.96 168.853 162.96 166.56C162.96 165.32 163.147 163.68 163.52 161.64C163.88 159.587 164.06 158.407 164.06 158.1ZM169.08 162.34L168.38 160.94C170.647 160.233 172.353 159.88 173.5 159.88H177L177.02 161.44H173.76C171.773 161.44 170.213 161.74 169.08 162.34ZM173.88 172.04C170.44 172.04 168.72 170.953 168.72 168.78C168.72 168.207 168.753 167.727 168.82 167.34H170.12C169.987 167.58 169.92 167.787 169.92 167.96L169.94 168.34C169.94 169.793 171.253 170.52 173.88 170.52C174.453 170.52 175.12 170.48 175.88 170.4C176.64 170.333 177.187 170.233 177.52 170.1V171.94C177.493 171.94 177.187 171.953 176.6 171.98C176.027 172.02 175.12 172.04 173.88 172.04Z" fill="white"/>
<path d="M156.02 172.5C156.327 172.433 156.587 172.08 156.8 171.44C157.013 170.8 157.12 170.053 157.12 169.2C157.12 168.987 157.113 168.767 157.1 168.54C157.447 168.98 157.787 169.307 158.12 169.52C158.453 169.733 158.647 169.84 158.7 169.84C158.66 169.88 158.6 170.213 158.52 170.84C158.427 171.467 158.3 171.96 158.14 172.32C157.98 172.667 157.733 173.04 157.4 173.44C157.067 173.827 156.56 174.02 155.88 174.02H149.56C148.253 174.02 147.6 173.34 147.6 171.98V168.5L142.52 168.96C142.2 168.987 141.827 169.053 141.4 169.16V167.48L142.02 167.5L147.6 166.96V164.12L142.72 164.58C142.373 164.607 142.013 164.667 141.64 164.76V163.06C141.853 163.073 142.027 163.08 142.16 163.08C142.28 163.08 142.413 163.073 142.56 163.06L147.6 162.6V159.86C146.04 160.073 144.96 160.187 144.36 160.2C143.747 160.2 143.233 160.233 142.82 160.3C142.807 160.207 142.713 159.947 142.54 159.52C142.367 159.08 142.187 158.747 142 158.52C142.52 158.587 143.06 158.633 143.62 158.66C145.887 158.66 148.373 158.32 151.08 157.64C152.547 157.267 153.42 156.94 153.7 156.66L154.92 158.06C154.6 158.113 154.293 158.2 154 158.32C152.84 158.76 151.207 159.2 149.1 159.64V162.42L155.62 161.78C156.1 161.727 156.4 161.667 156.52 161.6V163.3H155.76L149.1 163.96V166.8L156.12 166.08C156.467 166.04 156.787 165.98 157.08 165.9V167.62H156.28L149.1 168.34V171.48C149.1 172.16 149.373 172.5 149.92 172.5H156.02Z" fill="white"/>
<path d="M126.52 171.56C132.587 170.667 135.627 168.467 135.64 164.96C135.64 162.667 134.387 161.513 131.88 161.5C129.027 161.5 126.06 162.187 122.98 163.56L121.26 161.7C122.673 161.673 123.9 161.5 124.94 161.18C127.367 160.407 129.44 159.993 131.16 159.94C133.507 159.94 135.107 160.44 135.96 161.44C136.88 162.4 137.34 163.547 137.34 164.88C137.167 169.28 134.1 171.94 128.14 172.86L126.52 171.56Z" fill="white"/>
<path d="M107.3 171.68H107.38C109.313 171.68 110.273 170.793 110.26 169.02C109.313 168.766 108.507 168.633 107.84 168.62C106.267 168.62 105.48 169.173 105.48 170.28C105.493 171.213 106.1 171.68 107.3 171.68ZM110.22 167.7C110.113 166.513 110.06 165.773 110.06 165.48C110.06 165.2 110.06 165.033 110.06 164.98H107.18C105.62 164.98 104.647 164.56 104.26 163.72L105.52 162.92C105.947 163.32 106.44 163.526 107 163.54H107.04L110.02 163.5C110.007 162.953 110 162.44 110 161.96C110 161.493 110 161.093 110 160.76C105.747 160.76 103.36 160.726 102.84 160.66L102.66 159.04C103.273 159.2 104 159.3 104.84 159.34C105.693 159.38 107.387 159.4 109.92 159.4V158.64C109.92 158.173 109.88 157.566 109.8 156.82L111.5 157.1C111.46 157.34 111.44 157.693 111.44 158.16C111.44 158.613 111.447 159.013 111.46 159.36C113.913 159.293 115.747 159.106 116.96 158.8V160.38C115.787 160.58 113.953 160.686 111.46 160.7C111.473 162.113 111.48 162.88 111.48 163V163.4C113.507 163.346 115.14 163.153 116.38 162.82L116.3 164.54L111.48 164.86V165.92C111.48 166.626 111.52 167.306 111.6 167.96C113.48 168.613 115.073 169.68 116.38 171.16L115.02 172.4C114.047 170.8 112.967 169.813 111.78 169.44C111.74 170.72 111.313 171.66 110.5 172.26C109.593 172.873 108.713 173.18 107.86 173.18C105.273 173.18 103.98 172.3 103.98 170.54C103.98 168.366 105.193 167.28 107.62 167.28C108.54 167.28 109.407 167.42 110.22 167.7Z" fill="white"/>
<path d="M82.04 163.16L81.96 161.16C81.92 160.253 81.8667 159.487 81.8 158.86L83.68 159.14C83.56 160.273 83.5 161.147 83.5 161.76C83.5 162.373 83.5134 162.767 83.54 162.94C83.98 167.873 84.9667 170.593 86.5 171.1C86.7667 169.38 87.2467 167.847 87.94 166.5L89.28 168.04L88.96 168.7C88.3867 169.887 88.02 170.833 87.86 171.54C87.7 172.247 87.62 172.647 87.62 172.74L86.2 173.18C83.8 172.167 82.4134 168.827 82.04 163.16ZM96.56 169.26C96.5334 167.447 96.2934 165.853 95.84 164.48C95.3867 163.107 94.4067 161.667 92.9 160.16L94.0201 159.5C95.5001 160.74 96.62 162.293 97.38 164.16C97.82 165.24 98.0934 166.567 98.2 168.14L96.56 169.26Z" fill="white"/>
<path d="M72.9001 173.54C70.7934 171.1 68.3867 168.727 65.68 166.42C65.5067 166.274 65.1134 166.027 64.5 165.68C64.3667 165.547 64.3 165.354 64.3 165.1C64.3 164.714 64.5601 164.32 65.0801 163.92C67.3067 162.214 69.7801 159.8 72.5 156.68L73.8801 157.74C71.4401 160.394 68.8667 162.827 66.16 165.04C70.0667 168.307 72.9134 170.807 74.7 172.54L72.9001 173.54Z" fill="white"/>
<path d="M44.06 158.1L46.02 158.52C45.7 159 45.2933 160.273 44.8 162.34C44.4933 163.673 44.3333 165.327 44.32 167.3V167.48C44.32 169.333 44.4133 170.633 44.6 171.38C44.72 170.74 45.0533 169.587 45.6 167.92L46.94 169.14C46.1 170.38 45.5266 171.72 45.22 173.16V173.18L43.44 173C43.12 171 42.96 168.853 42.96 166.56C42.96 165.32 43.1466 163.68 43.52 161.64C43.88 159.587 44.06 158.407 44.06 158.1ZM49.08 162.34L48.38 160.94C50.6466 160.233 52.3533 159.88 53.5 159.88H57L57.02 161.44H53.76C51.7733 161.44 50.2133 161.74 49.08 162.34ZM53.88 172.04C50.44 172.04 48.72 170.953 48.72 168.78C48.72 168.207 48.7533 167.727 48.82 167.34H50.12C49.9866 167.58 49.92 167.787 49.92 167.96L49.94 168.34C49.94 169.793 51.2533 170.52 53.88 170.52C54.4533 170.52 55.12 170.48 55.88 170.4C56.64 170.333 57.1866 170.233 57.52 170.1V171.94C57.4933 171.94 57.1866 171.953 56.6 171.98C56.0266 172.02 55.12 172.04 53.88 172.04Z" fill="white"/>
<path d="M198.84 142.5C200.667 141.874 201.92 140.874 202.6 139.5C203.067 138.58 203.3 137.02 203.3 134.82V132.84C201.407 132.947 200 133.02 199.08 133.06H197.52L197.22 131.4C198.167 131.52 198.847 131.58 199.26 131.58L200.78 131.6H200.8C201 131.6 201.82 131.547 203.26 131.44C203.26 130.787 203.193 129.72 203.06 128.24L202.88 127.22L204.54 127.48C204.607 128.987 204.7 130.247 204.82 131.26C206.807 131.034 207.92 130.88 208.16 130.8V132.32C208.107 132.36 207.707 132.427 206.96 132.52C206.213 132.627 205.513 132.694 204.86 132.72V133.1C204.86 136.674 204.567 139.034 203.98 140.18C203.14 141.807 201.9 142.96 200.26 143.64L198.84 142.5ZM195.16 142.68L193.7 142.38L193.48 141.9C192.653 139.914 192.24 137.76 192.24 135.44C192.24 133.907 192.42 132.387 192.78 130.88C193.14 129.36 193.32 128.294 193.32 127.68L195.02 128.22L194.84 128.96C194.147 131.894 193.8 134.147 193.8 135.72C193.8 136.32 193.853 137.134 193.96 138.16C194.053 139.174 194.153 139.92 194.26 140.4C194.607 138.92 195.033 137.747 195.54 136.88L196.38 138.1C195.82 138.994 195.453 140.2 195.28 141.72L195.16 142.68Z" fill="white"/>
<path d="M172.64 127.18C173.52 127.287 174.38 127.34 175.22 127.34C179.527 127.34 183.213 126.933 186.28 126.12L187.22 127.68C181.38 128.493 177.013 128.9 174.12 128.9C173.907 128.9 173.7 128.9 173.5 128.9L172.64 127.18ZM178.66 140.36C177.753 139.653 176.767 138.38 175.7 136.54H175.2C174.867 136.54 174.56 136.573 174.28 136.64V134.92C174.573 134.987 174.893 135.02 175.24 135.02H184.5L186.08 136.08C184.893 137.72 183.427 139.16 181.68 140.4C184.307 141.787 186.527 142.48 188.34 142.48L187.28 144.44C187.16 144.32 186.687 144.153 185.86 143.94C183.86 143.46 181.947 142.613 180.12 141.4C177.987 142.667 175.507 143.68 172.68 144.44L171.72 142.64C174.333 142.213 176.647 141.453 178.66 140.36ZM175.38 132.06C174.98 131.14 174.507 130.42 173.96 129.9L175.46 129.18C176.113 130.153 176.587 131.113 176.88 132.06H179.62C179.38 131.247 178.913 130.42 178.22 129.58L179.74 128.86C180.433 130.007 180.86 131.067 181.02 132.04H182.54C183.513 131.16 184.293 129.94 184.88 128.38L186.36 129.38C186.2 129.54 185.953 129.873 185.62 130.38C185.287 130.887 184.84 131.44 184.28 132.04H188.32V135.44C188.32 135.813 188.353 136.1 188.42 136.3H186.72C186.787 136.127 186.82 135.84 186.82 135.44V133.46H173.14V135.44C173.14 135.813 173.173 136.1 173.24 136.3H171.54C171.607 136.127 171.64 135.84 171.64 135.44V132.06H175.38ZM180.1 139.5C181.353 138.66 182.467 137.673 183.44 136.54H177.48C178.453 138.047 179.327 139.033 180.1 139.5Z" fill="white"/>
<path d="M160.3 135.34C159.86 134.353 159.313 133.86 158.66 133.86C157.993 133.86 157.267 134.1 156.48 134.58C155.827 135.526 155.093 136.433 154.28 137.3L152.8 136.22C154.44 134.713 155.747 132.886 156.72 130.74C154.88 130.793 153.88 130.826 153.72 130.84L153.58 129.02C154.033 129.206 155.073 129.3 156.7 129.3C156.887 129.3 157.087 129.3 157.3 129.3C157.7 128.193 158.02 127.013 158.26 125.76L159.96 126.14C159.747 127.206 159.473 128.233 159.14 129.22C159.407 129.193 159.673 129.166 159.94 129.14C162.033 129.006 163.48 128.76 164.28 128.4L164.3 130.12C163.1 130.333 161.193 130.513 158.58 130.66C158.3 131.353 157.98 132.033 157.62 132.7C157.927 132.593 158.253 132.54 158.6 132.54C159.88 132.54 160.847 133.086 161.5 134.18C161.58 134.34 161.66 134.513 161.74 134.7C163.447 133.966 164.907 133.413 166.12 133.04L167.04 134.7C166.067 134.766 164.427 135.293 162.12 136.28C162.24 137 162.32 138.106 162.36 139.6L160.58 139.9C160.713 139.113 160.78 138.493 160.78 138.04C160.78 137.573 160.76 137.186 160.72 136.88C160.387 137.026 160.04 137.186 159.68 137.36C157.893 138.373 157 139.273 157 140.06C157 141.02 157.547 141.566 158.64 141.7C159.52 141.806 160.447 141.86 161.42 141.86C162.393 141.86 163.8 141.673 165.64 141.3L165.54 143.24C163.9 143.386 162.507 143.46 161.36 143.46C160.2 143.46 159.247 143.4 158.5 143.28C156.313 142.92 155.22 141.766 155.22 139.82C155.22 138.46 156.913 136.966 160.3 135.34Z" fill="white"/>
<path d="M143.18 126.76L144.34 126.42C145.353 127.58 145.967 128.76 146.18 129.96L144.84 130.46C144.613 129.047 144.06 127.813 143.18 126.76ZM146.82 126C147.767 127.16 148.367 128.34 148.62 129.54L147.3 130.02C147.087 128.513 146.527 127.287 145.62 126.34L146.82 126ZM139.88 129.84L139.14 131.24C137.247 130.16 135.527 129.487 133.98 129.22L134.66 127.66C134.7 127.713 134.953 127.8 135.42 127.92C136.887 128.293 138.373 128.933 139.88 129.84ZM132.86 132.32C134.593 132.693 136.32 133.447 138.04 134.58L137.36 136.04C135.76 134.96 134.053 134.233 132.24 133.86L132.86 132.32ZM147.94 132.1C145.447 137.98 141.007 141.927 134.62 143.94L133.56 142.26C139.947 140.673 144.287 136.94 146.58 131.06L147.96 132.08L147.94 132.1Z" fill="white"/>
<path d="M112.56 136.3L111.7 134.26L114.24 134.88H124.6L128.2 134.78L127.7 136.54L124.6 136.3H112.56Z" fill="white"/>
<path d="M101.36 134.1C102.347 132.74 103.053 130.733 103.48 128.08C103.493 128 103.5 127.88 103.5 127.72C103.5 127.546 103.487 127.24 103.46 126.8L105.28 127.26C105.24 127.3 105.14 127.76 104.98 128.64C104.487 131.546 103.72 133.686 102.68 135.06C103.92 135.913 105.36 137.3 107 139.22L107.78 139.96L106.2 141.1L105.08 139.5C104.32 138.446 103.26 137.4 101.9 136.36C99.86 139.413 97.3067 141.706 94.24 143.24C94.16 143.28 93.86 143.426 93.34 143.68L92.04 142.08C95.2 141.24 98.0467 139.02 100.58 135.42C99.66 134.793 97.96 133.96 95.48 132.92C95.24 132.813 94.9467 132.746 94.6 132.72L96.02 131.24C96.4734 131.493 97.0267 131.753 97.68 132.02C98.32 132.286 99.5467 132.98 101.36 134.1Z" fill="white"/>
<path d="M84.1399 126.62L85.2999 126.28C86.3133 127.44 86.9266 128.62 87.1399 129.82L85.7999 130.32C85.5733 128.907 85.0199 127.673 84.1399 126.62ZM87.7799 125.86C88.7266 127.02 89.3266 128.2 89.5799 129.4L88.2599 129.88C88.0466 128.373 87.4866 127.147 86.5799 126.2L87.7799 125.86ZM74.6199 144.28L73.2399 142.86C75.8266 142.087 78.3266 140.367 80.7399 137.7C79.6866 136.66 78.2333 135.673 76.3799 134.74L77.4399 133.54C79.3733 134.647 80.7999 135.62 81.7199 136.46C82.9733 134.847 83.8266 133.02 84.2799 130.98L77.6399 131.08C76.6933 133.027 75.2733 134.8 73.3799 136.4L72.1799 135.08C74.9133 132.96 76.7333 130.153 77.6399 126.66L79.2599 127.14C79.0733 127.607 78.9666 127.893 78.9399 128C78.6599 128.893 78.4133 129.473 78.1999 129.74L84.9799 129.46L86.0199 130.6C84.5799 136.8 80.7799 141.36 74.6199 144.28Z" fill="white"/>
<path d="M52.0401 133.16L51.96 131.16C51.92 130.253 51.8667 129.487 51.8 128.86L53.68 129.14C53.56 130.273 53.5 131.147 53.5 131.76C53.5 132.373 53.5134 132.767 53.5401 132.94C53.9801 137.873 54.9667 140.593 56.5 141.1C56.7667 139.38 57.2467 137.847 57.94 136.5L59.28 138.04L58.96 138.7C58.3867 139.887 58.0201 140.833 57.8601 141.54C57.7001 142.247 57.62 142.647 57.62 142.74L56.2001 143.18C53.8001 142.167 52.4134 138.827 52.0401 133.16ZM66.5601 139.26C66.5334 137.447 66.2934 135.853 65.84 134.48C65.3867 133.107 64.4067 131.667 62.9001 130.16L64.0201 129.5C65.5001 130.74 66.6201 132.293 67.3801 134.16C67.8201 135.24 68.0934 136.567 68.2001 138.14L66.5601 139.26Z" fill="white"/>
<path d="M47.6799 129.82C47.4666 131.46 46.8332 132.84 45.7799 133.96C46.4599 134.707 47.1466 135.267 47.8399 135.64C48.5332 136.027 49.1199 136.254 49.5999 136.32L48.5199 137.84C48.5199 137.787 48.3066 137.647 47.8799 137.42C47.4399 137.194 47.1799 137.034 47.0999 136.94C46.5266 136.554 45.7532 135.874 44.7799 134.9C43.6332 135.807 42.2732 136.487 40.6999 136.94L39.7399 137.32L38.4399 135.74L39.5399 135.64C40.8199 135.547 42.3066 134.92 43.9999 133.76C43.4266 132.84 43.0132 132.034 42.7599 131.34C42.5732 131.647 42.3732 131.947 42.1599 132.24C41.9466 132.534 41.8199 132.72 41.7799 132.8L40.5599 131.74V133.14C40.5599 133.367 40.5932 133.574 40.6599 133.76H38.9399C39.0066 133.694 39.0399 133.494 39.0399 133.16H37.6199C38.1932 133.547 38.7132 133.84 39.1799 134.04C39.6466 134.227 39.9732 134.32 40.1599 134.32L39.0799 135.64L38.0599 134.9L37.1999 134.18V136.26C37.1999 136.58 37.2332 136.874 37.2999 137.14H35.5999C35.6666 136.847 35.6999 136.554 35.6999 136.26V134.4C34.8866 135.254 34.0599 135.987 33.2199 136.6C33.1399 136.68 32.9199 136.84 32.5599 137.08C32.1866 137.32 31.9266 137.514 31.7799 137.66L30.3999 136.16C30.7466 136.16 31.4066 135.92 32.3799 135.44C33.3399 134.947 34.3066 134.187 35.2799 133.16H33.5399C33.5399 133.374 33.5666 133.574 33.6199 133.76H31.9199C31.9866 133.587 32.0199 133.38 32.0199 133.14V129.66H35.6999V128.84H32.3399C31.9666 128.84 31.6332 128.874 31.3399 128.94V127.46C31.6066 127.527 31.9399 127.56 32.3399 127.56H35.6999V127.18C35.6999 126.874 35.6666 126.587 35.5999 126.32H37.2999C37.2332 126.587 37.1999 126.887 37.1999 127.22V127.56H40.1399C40.4866 127.56 40.8132 127.527 41.1199 127.46V128.94C40.8132 128.874 40.4799 128.84 40.1199 128.84H37.1999V129.66H40.5599V131.46C42.0399 130.154 42.7799 128.54 42.7799 126.62V126.18L44.3199 126.46C44.2532 126.527 44.1932 126.834 44.1399 127.38C44.0866 127.927 44.0066 128.307 43.8999 128.52H47.9599C48.2799 128.52 48.5999 128.487 48.9199 128.42V129.92C48.6532 129.854 48.3666 129.82 48.0599 129.82H47.6799ZM40.7599 142.64H48.0999C48.5532 142.64 48.8866 142.607 49.0999 142.54V144.14C48.8866 144.074 48.6332 144.04 48.3399 144.04H32.1599C31.5866 144.04 31.2666 144.074 31.1999 144.14V142.54C31.2666 142.607 31.5799 142.64 32.1399 142.64H35.1399V140.16C35.1399 139.894 35.1132 139.647 35.0599 139.42H36.7599C36.6932 139.62 36.6599 139.867 36.6599 140.16V142.64H39.2399V138.86H33.7799C33.4599 138.86 33.1532 138.887 32.8599 138.94V137.36C32.9266 137.427 33.2332 137.46 33.7799 137.46H46.2399C46.5599 137.46 46.8599 137.427 47.1399 137.36V138.96C46.9532 138.894 46.6666 138.86 46.2799 138.86H40.7599V140.06H45.0599C45.4732 140.06 45.7866 140.027 45.9999 139.96V141.48C45.8266 141.414 45.6066 141.38 45.3399 141.38H40.7599V142.64ZM35.6999 132.04V130.9H33.5399V132.04H35.6999ZM37.1999 132.04H39.0399V130.9H37.1999V132.04ZM44.9399 132.9C45.5132 132.26 45.9266 131.527 46.1799 130.7C46.2866 130.34 46.3399 130.047 46.3399 129.82H43.5799L43.6799 130.3C43.8799 131.154 44.2999 132.02 44.9399 132.9Z" fill="white"/>
<path d="M228.6 106.94L227.04 107.74C225.96 104.393 224.553 101.913 222.82 100.3L224.02 99.3398C225.74 101.126 227.267 103.66 228.6 106.94ZM212.02 101.58C212.62 101.62 213.22 101.64 213.82 101.64C214.407 101.64 215.08 101.606 215.84 101.54C216.133 99.3931 216.28 98.0598 216.28 97.5398C216.28 97.0198 216.273 96.7131 216.26 96.6198L218.24 96.9998C218.213 97.1064 218.147 97.5331 218.04 98.2798C217.92 99.0131 217.713 100.046 217.42 101.38L219.4 101.14C221.32 101.14 222.34 102.373 222.46 104.84C222.46 105.466 222.433 106.013 222.38 106.48C221.887 110.773 220.793 112.92 219.1 112.92H218.4C218.253 112.92 217.673 112.773 216.66 112.48L216.4 110.64C217.173 111.026 217.893 111.246 218.56 111.3C220.147 111.26 220.94 109.033 220.94 104.62V104.5C220.94 103.246 220.493 102.62 219.6 102.62C219.187 102.62 218.34 102.7 217.06 102.86C216.313 107.126 215 110.46 213.12 112.86L211.6 112.06C213.547 109.446 214.88 106.42 215.6 102.98C215.253 103.06 214.24 103.2 212.56 103.4L212.02 101.58ZM224.12 96.5598L225.38 96.1598C226.34 97.3864 226.98 98.8464 227.3 100.54L225.88 101.04C225.627 99.2664 225.04 97.7731 224.12 96.5598ZM227.9 95.7598C228.82 96.9731 229.453 98.4131 229.8 100.08L228.4 100.6C228.16 98.7864 227.567 97.2864 226.62 96.0998L227.9 95.7598Z" fill="white"/>
<path d="M196.56 99.0601V103.42C196.56 107.207 195.433 110.293 193.18 112.68C192.953 112.92 192.7 113.147 192.42 113.36L191.06 111.82C193.673 110.447 194.98 107.28 194.98 102.32C194.98 102.28 194.973 101.22 194.96 99.1401L194.86 98.1601L196.64 98.4401C196.587 98.6401 196.56 98.8467 196.56 99.0601ZM206.74 103.6L208.06 105.2C208.02 105.387 207.947 105.64 207.84 105.96C206.533 109.627 204.373 112.127 201.36 113.46L199.94 112.7V98.6001C199.94 98.0667 199.913 97.7267 199.86 97.5801L201.6 97.8601C201.547 98.1401 201.52 98.4801 201.52 98.8801V111.54C204.507 109.953 206.247 107.307 206.74 103.6Z" fill="white"/>
<path d="M173.94 105.96L172.6 104.54C174.04 103.633 175.38 102.333 176.62 100.64C177.7 99.2534 178.42 97.9001 178.78 96.5801L180.56 97.2001C180.547 97.2401 180.493 97.3334 180.4 97.4801C180.293 97.6401 180.04 98.1001 179.64 98.8601C179.227 99.6201 178.993 100.033 178.94 100.1L185.4 99.6801L185.74 99.2601L187.2 100.8L186.74 101.54C185.22 107.073 181.647 111.073 176.02 113.54L174.82 112.16C179.927 110.333 183.367 106.633 185.14 101.06C181.447 101.233 179.147 101.38 178.24 101.5C177.36 102.633 176.207 103.86 174.78 105.18L173.94 105.96Z" fill="white"/>
<path d="M165.72 101.04C164.52 102.787 163.247 104.107 161.9 105V114.08H160.28V106.2C158.787 107.2 157.013 108.08 154.96 108.84L153.98 107.28C155.633 106.894 157.48 106.074 159.52 104.82C161.84 103.434 163.427 101.887 164.28 100.18L165.72 101.04Z" fill="white"/>
<path d="M139.98 104.68H132.82C132.38 104.68 131.993 104.72 131.66 104.8V103C131.967 103.067 132.353 103.1 132.82 103.1H147.36C147.893 103.1 148.22 103.067 148.34 103V104.78C148.1 104.714 147.787 104.68 147.4 104.68H141.7C141.233 109.307 139.293 112.287 135.88 113.62L134.42 112.1C137.633 111.42 139.487 108.947 139.98 104.68ZM144.96 98.3202C145.48 98.3202 145.807 98.2802 145.94 98.2002V99.8802C145.647 99.8135 145.32 99.7802 144.96 99.7802H135.24C134.64 99.7802 134.313 99.8135 134.26 99.8802V98.2002C134.34 98.2802 134.667 98.3202 135.24 98.3202H144.96Z" fill="white"/>
<path d="M112.56 106.3L111.7 104.26L114.24 104.88H124.6L128.2 104.78L127.7 106.54L124.6 106.3H112.56Z" fill="white"/>
<path d="M102.26 110.98H106.28V112.56H93.46L92.8 110.98H100.64L101.96 104.16H95.36L94.7 102.56H102.94L103.66 103.34L102.26 110.98Z" fill="white"/>
<path d="M80.0401 96.9002C80.0401 97.0335 80.1601 98.2468 80.4001 100.54L85.7201 100.08C86.0668 100.04 86.3801 99.9735 86.6601 99.8802L86.8401 101.62C86.7068 101.607 86.5601 101.6 86.4001 101.6C86.2401 101.6 86.0601 101.607 85.8601 101.62L80.5401 102.1L80.9001 105.58L87.2401 104.88C87.5468 104.84 87.8334 104.767 88.1001 104.66L88.3001 106.36L87.4201 106.4L81.0601 107.12L81.6401 112.86C81.6801 113.26 81.7468 113.58 81.8401 113.82L79.9401 113.98C79.9401 113.714 79.9268 113.34 79.9001 112.86L79.3201 107.32L72.7801 108.06C72.3934 108.1 72.0934 108.16 71.8801 108.24L71.6001 106.56C71.6134 106.56 71.6734 106.56 71.7801 106.56C71.8868 106.56 72.1534 106.54 72.5801 106.5L79.1601 105.78L78.8001 102.24L73.2801 102.74C72.9868 102.767 72.6668 102.834 72.3201 102.94L72.1401 101.2C72.6068 101.2 72.9334 101.194 73.1201 101.18L78.6401 100.7L78.3401 97.7402C78.3134 97.5135 78.2468 97.2002 78.1401 96.8002L80.0601 96.6802C80.0468 96.7068 80.0401 96.7802 80.0401 96.9002Z" fill="white"/>
<path d="M63.0001 101.82L64.2601 101.42C65.2201 102.647 65.8601 104.107 66.1801 105.8L64.7601 106.3C64.5068 104.527 63.9201 103.033 63.0001 101.82ZM66.7801 101.02C67.7001 102.233 68.3334 103.673 68.6801 105.34L67.2801 105.86C67.0401 104.047 66.4468 102.547 65.5001 101.36L66.7801 101.02ZM64.8001 111.28L64.2001 113.2C63.0268 113.2 61.9068 113.06 60.8401 112.78C57.6134 111.887 56.0001 110.107 56.0001 107.44C56.0001 104.773 58.0668 102.433 62.2001 100.42C61.8134 100.487 60.2334 100.587 57.4601 100.72L52.1401 101.02L51.8401 99.3801C52.3068 99.4068 52.8468 99.4201 53.4601 99.4201C54.0734 99.4201 54.7601 99.4068 55.5201 99.3801C59.0268 99.2868 61.6534 99.1401 63.4001 98.9401C65.1468 98.7401 66.0268 98.6268 66.0401 98.6001L66.5801 100.02L65.2001 100.26C63.6668 100.767 62.1868 101.573 60.7601 102.68C58.6134 104.347 57.5334 106 57.5201 107.64C57.5201 109.307 58.8734 110.487 61.5801 111.18C61.9534 111.287 62.4401 111.34 63.0401 111.34C63.6401 111.34 64.2268 111.32 64.8001 111.28Z" fill="white"/>
<path d="M45.6999 102.72C38.7266 104.666 35.2399 106.7 35.2399 108.82V108.88C35.2399 109.52 35.3999 109.993 35.7199 110.3C36.2532 111.06 37.5866 111.44 39.7199 111.44C41.8532 111.44 43.8132 111.246 45.5999 110.86L45.1999 112.7C41.7332 112.94 39.8599 113.06 39.5799 113.06C35.4599 113.06 33.3999 111.726 33.3999 109.06C33.3999 107.566 34.6132 105.986 37.0399 104.32C36.5332 102.013 35.9732 99.9398 35.3599 98.0998L35.1599 97.4998L37.0199 97.2598C37.0199 97.6864 37.5066 99.8598 38.4799 103.78C39.4132 103.366 40.3732 102.973 41.3599 102.6C42.3599 102.213 43.5199 101.68 44.8399 101L45.6999 102.72Z" fill="white"/>
<path d="M25.06 100.78H21.94C20.2733 100.78 19.0133 100.733 18.16 100.64L14.76 100.38L14.56 98.6401C16.1067 99.0935 18.4333 99.3201 21.54 99.3201C22.7 99.3201 23.8733 99.2135 25.06 99.0001V100.78ZM25.58 111.78C23.8733 112.327 21.84 112.6 19.48 112.6C17.12 112.6 15.38 112.127 14.26 111.18C13.42 110.5 13 109.633 13 108.58C13 107.847 13.2067 107.14 13.62 106.46C14.02 105.793 14.5733 105.207 15.28 104.7L16.18 105.94C15.6333 106.34 15.2267 106.767 14.96 107.22C14.6933 107.673 14.56 108.1 14.56 108.5C14.56 110.193 16.0933 111.04 19.16 111.04H19.24C21.0133 111.04 22.7133 110.833 24.34 110.42C25.0467 110.18 25.5733 109.933 25.92 109.68L26.8 111.38C26.64 111.46 26.2333 111.593 25.58 111.78Z" fill="white"/>
<path d="M194.84 77.8999C194.84 76.0333 193.213 75.0999 189.96 75.0999C188.64 75.0999 187.313 75.5733 185.98 76.5199C184.927 77.2533 184.14 77.8733 183.62 78.3799L182.06 76.8799C182.58 76.7199 183.54 76.1733 184.94 75.2399C187.633 73.4666 189.94 71.5333 191.86 69.4399C190.513 69.5733 188.847 69.6866 186.86 69.7799L184.56 69.7999L184.4 68.0399C185.387 68.2266 186.813 68.3199 188.68 68.3199C190.547 68.3199 191.973 68.1933 192.96 67.9399L194.34 69.2799L188.04 74.6199C189.053 74.0999 189.867 73.8399 190.48 73.8399C192.933 73.8399 194.66 74.3933 195.66 75.4999C196.313 76.2733 196.64 77.1066 196.64 77.9999C196.64 78.9066 196.327 79.7999 195.7 80.6799C194.753 81.8799 193.4 82.6799 191.64 83.0799C190.867 83.2533 190.12 83.3466 189.4 83.3599C186.587 83.3599 185.167 82.4799 185.14 80.7199C185.14 78.9333 186.413 78.0399 188.96 78.0399C189.707 78.0399 190.387 78.2399 191 78.6399C191.88 79.1999 192.4 80.0599 192.56 81.2199C194.08 80.5399 194.84 79.4333 194.84 77.8999ZM189.04 79.4399C187.533 79.4399 186.773 79.8333 186.76 80.6199C186.76 81.5133 187.607 81.9599 189.3 81.9599C189.847 81.9599 190.473 81.8533 191.18 81.6399C191.113 81.1466 191.08 80.8666 191.08 80.7999C190.88 79.8933 190.2 79.4399 189.04 79.4399Z" fill="white"/>
<path d="M170.62 75.3002C170.62 74.3535 170.147 73.8802 169.2 73.8802L169.18 73.8602C168.1 73.8602 167.56 74.5335 167.56 75.8802C167.56 77.2135 168.053 77.8802 169.04 77.8802C170.013 77.8802 170.54 77.4669 170.62 76.6402V75.3002ZM161.7 69.4802C161.913 69.6269 162.527 69.7002 163.54 69.7002C164.553 69.7002 165.987 69.6735 167.84 69.6202L170.62 69.5402V68.0202C170.62 67.6202 170.553 67.1802 170.42 66.7002L172.38 66.9802C172.26 67.4735 172.2 67.9869 172.2 68.5202V69.4802C174.853 69.4002 176.853 69.2069 178.2 68.9002V70.6002L172.2 70.8402V74.4002C172.413 74.8269 172.52 75.5469 172.52 76.5602C172.52 76.9469 172.507 77.3735 172.48 77.8402C172.213 81.3469 170.547 83.3469 167.48 83.8402L166.28 82.5002C169 82.1135 170.493 80.8269 170.76 78.6402C170.2 78.9869 169.52 79.1602 168.72 79.1602C167.933 79.1602 167.267 78.7869 166.72 78.0402C166.187 77.3869 165.92 76.7802 165.92 76.2202C165.92 75.6602 166.093 75.0469 166.44 74.3802C166.787 73.7135 167.247 73.2402 167.82 72.9602C168.393 72.6669 168.867 72.5202 169.24 72.5202C169.627 72.5202 170.087 72.7202 170.62 73.1202V70.9002L162.14 71.1402L161.7 69.4802Z" fill="white"/>
<path d="M148.26 68.7398C148.593 67.6998 148.76 67.0598 148.76 66.8198V66.2598L150.44 66.5198C150.4 66.5464 150.307 66.8531 150.16 67.4398C150.027 68.0398 149.92 68.4731 149.84 68.7398H158.06C158.42 68.7398 158.767 68.7064 159.1 68.6398V70.5398C158.793 70.4598 158.44 70.4198 158.04 70.4198H149.26C148.887 71.5531 148.313 72.6131 147.54 73.5998H150.78V72.3598C150.78 71.9598 150.747 71.5931 150.68 71.2598H152.58C152.5 71.4198 152.46 71.7864 152.46 72.3598V73.5998H158.1V80.7598C158.1 81.8398 157.547 82.3798 156.44 82.3798C155.347 82.3798 154.747 82.3731 154.64 82.3598L153.36 80.2998C154.187 80.5398 155.053 80.6598 155.96 80.6598C156.267 80.6598 156.42 80.4798 156.42 80.1198V75.1998H152.46V83.1798C152.46 83.7531 152.5 84.1198 152.58 84.2798H150.68L150.78 83.3998V75.1998H146.92V81.1398C146.92 81.5664 146.953 81.9531 147.02 82.2998H145.12C145.187 81.9798 145.22 81.5931 145.22 81.1398V76.6598L142.38 79.5398L140.9 78.0998C141.887 77.6198 142.933 76.8131 144.04 75.6798C145.533 74.1731 146.72 72.4198 147.6 70.4198H141.98C141.42 70.4198 141.06 70.4598 140.9 70.5398V68.6398C141.167 68.7064 141.527 68.7398 141.98 68.7398H148.26Z" fill="white"/>
<path d="M135.86 71.26C135.793 71.1934 135.52 71.16 135.04 71.16H133.1V72.42H137.72C137.987 72.42 138.267 72.3934 138.56 72.34V74.04C138.227 73.9734 137.927 73.94 137.66 73.94H133.1V77.2C133.1 77.84 132.72 78.16 131.96 78.16H130.12L129.04 76.38L130.5 76.68C130.807 76.7467 131.067 76.78 131.28 76.78C131.48 76.78 131.58 76.72 131.58 76.6V73.94H127C126.707 73.94 126.42 73.9734 126.14 74.04V72.34H126.16C126.36 72.3934 126.667 72.42 127.08 72.42H131.58V71.16H129.8C129.227 71.16 128.907 71.1934 128.84 71.26V70.64C128.28 71.0134 127.707 71.3334 127.12 71.6C126.547 71.88 126.193 72.0867 126.06 72.22L124.8 70.66C125.267 70.66 126.173 70.3267 127.52 69.66C128.867 68.9934 130.227 67.8534 131.6 66.24H133.1C133.887 67.1734 134.84 68.0267 135.96 68.8C137.093 69.5734 137.973 70.0667 138.6 70.28C139.24 70.4934 139.6 70.6 139.68 70.6L138.62 72.22C138.433 72.0334 138.12 71.84 137.68 71.64C137.24 71.4267 136.633 71.04 135.86 70.48V71.26ZM139.12 76.86L137.72 78.26C136.653 77.6334 135.547 76.4467 134.4 74.7L136 74.12C136.8 75.48 137.84 76.3934 139.12 76.86ZM128.28 74.12L129.9 74.68L129.88 74.7C128.92 76.2867 127.867 77.4734 126.72 78.26L125.28 76.92C126.72 76.36 127.72 75.4267 128.28 74.12ZM125.52 74.38C124.56 76.5 123.433 78.04 122.14 79L120.62 77.82C122.353 76.82 123.673 75.2534 124.58 73.12L125.52 74.38ZM124.8 71.22L123.64 72.48C122.787 71.5467 121.687 70.84 120.34 70.36L121.18 69.2C122.433 69.68 123.64 70.3534 124.8 71.22ZM126.36 68.02L125.34 69.36C124.66 68.5334 123.533 67.7867 121.96 67.12L123.02 66.04C124.127 66.4934 125.24 67.1534 126.36 68.02ZM130.76 79.42H136.04C136.507 79.42 136.807 79.3867 136.94 79.32V81.04C136.607 80.9734 136.307 80.94 136.04 80.94H130.76V82.34H138.08C138.4 82.34 138.673 82.3067 138.9 82.24V83.96C138.673 83.8934 138.427 83.86 138.16 83.86H122.02C121.54 83.86 121.233 83.8934 121.1 83.96V82.24C121.233 82.3067 121.507 82.34 121.92 82.34H129.24V80.94H123.96C123.627 80.94 123.327 80.9734 123.06 81.04V79.32C123.193 79.3867 123.48 79.42 123.92 79.42H129.24V79.38C129.24 78.9534 129.207 78.6734 129.14 78.54H130.86L130.76 79.22V79.42ZM130.18 69.64H134.78C134.047 69.0534 133.24 68.36 132.36 67.56C131.64 68.3467 130.913 69.04 130.18 69.64Z" fill="white"/>
<path d="M110.3 75.3398C109.86 74.3531 109.313 73.8598 108.66 73.8598C107.993 73.8598 107.267 74.0998 106.48 74.5798C105.827 75.5264 105.093 76.4331 104.28 77.2998L102.8 76.2198C104.44 74.7131 105.747 72.8864 106.72 70.7398C104.88 70.7931 103.88 70.8264 103.72 70.8398L103.58 69.0198C104.033 69.2064 105.073 69.2998 106.7 69.2998C106.887 69.2998 107.087 69.2998 107.3 69.2998C107.7 68.1931 108.02 67.0131 108.26 65.7598L109.96 66.1398C109.747 67.2064 109.473 68.2331 109.14 69.2198C109.407 69.1931 109.673 69.1664 109.94 69.1398C112.033 69.0064 113.48 68.7598 114.28 68.3998L114.3 70.1198C113.1 70.3331 111.193 70.5131 108.58 70.6598C108.3 71.3531 107.98 72.0331 107.62 72.6998C107.927 72.5931 108.253 72.5398 108.6 72.5398C109.88 72.5398 110.847 73.0864 111.5 74.1798C111.58 74.3398 111.66 74.5131 111.74 74.6998C113.447 73.9664 114.907 73.4131 116.12 73.0398L117.04 74.6998C116.067 74.7664 114.427 75.2931 112.12 76.2798C112.24 76.9998 112.32 78.1064 112.36 79.5998L110.58 79.8998C110.713 79.1131 110.78 78.4931 110.78 78.0398C110.78 77.5731 110.76 77.1864 110.72 76.8798C110.387 77.0264 110.04 77.1864 109.68 77.3598C107.893 78.3731 107 79.2731 107 80.0598C107 81.0198 107.547 81.5664 108.64 81.6998C109.52 81.8064 110.447 81.8598 111.42 81.8598C112.393 81.8598 113.8 81.6731 115.64 81.2998L115.54 83.2398C113.9 83.3864 112.507 83.4598 111.36 83.4598C110.2 83.4598 109.247 83.3998 108.5 83.2798C106.313 82.9198 105.22 81.7664 105.22 79.8198C105.22 78.4598 106.913 76.9664 110.3 75.3398Z" fill="white"/>
<path d="M93.4 79.8602C92.7066 78.9402 92.0466 77.8869 91.42 76.7002L90.64 77.6802C90.32 78.0802 90.1466 78.2935 90.12 78.3202L89 76.6802C89.9866 75.9335 90.7466 75.0802 91.28 74.1202C92.08 72.6535 92.4866 71.5802 92.5 70.9002V70.4602L94.22 70.5602C94.1266 70.6535 94.0533 70.8335 94 71.1002C93.96 71.3669 93.9066 71.6002 93.84 71.8002H97.64L98.54 72.7802C98.22 75.4469 97.1666 77.8335 95.38 79.9402C96.5533 81.1535 97.7066 81.9202 98.84 82.2402C99.2 82.3602 99.4533 82.4202 99.6 82.4202L98.46 84.1002C98.3666 83.9935 98.1066 83.8202 97.68 83.5802C96.5066 82.9135 95.4133 82.0469 94.4 80.9802C93.28 82.1002 92.1066 82.9802 90.88 83.6202C90.4133 83.9002 90.1333 84.0869 90.04 84.1802L88.84 82.6002C90.44 82.2269 91.96 81.3135 93.4 79.8602ZM88.54 70.4402L90.24 70.5602L89.66 72.4602C89.34 73.4335 89.02 74.2469 88.7 74.9002V83.2202C88.7 83.5669 88.7333 83.9002 88.8 84.2202H87.1C87.1666 83.8869 87.2 83.5402 87.2 83.1802V77.3802C87.0933 77.5135 86.8933 77.7469 86.6 78.0802C86.32 78.4135 86.18 78.6135 86.18 78.6802L85 77.1202C85.9733 76.5335 86.7866 75.5069 87.44 74.0402C88.1733 72.3202 88.54 71.1202 88.54 70.4402ZM97.04 68.6402C98.04 68.6402 98.58 68.6069 98.66 68.5402V70.1202C98.4333 70.0535 98.1866 70.0202 97.92 70.0202H87.08C86.76 70.0202 86.46 70.0535 86.18 70.1202H86.16V68.5402C86.2266 68.6069 86.5866 68.6402 87.24 68.6402H91.48V66.8002C91.48 66.5869 91.4533 66.3935 91.4 66.2202H93.1C93.0466 66.3669 93.0133 66.5602 93 66.8002V68.6402H97.04ZM95.9 75.8202L94.78 76.9802C94.78 76.8602 94.5666 76.5802 94.14 76.1402C93.7133 75.7002 93.2866 75.3802 92.86 75.1802L93.8 73.9002L95.58 75.4602L95.9 75.8202ZM85.1 77.7402C84.9933 77.8469 84.7866 78.4469 84.48 79.5402C84.1866 80.6335 83.6533 81.9135 82.88 83.3802C82.7066 83.7002 82.58 83.9669 82.5 84.1802L81.08 82.8202C81.92 82.1402 82.7 80.4535 83.42 77.7602C83.5133 77.4135 83.56 77.1269 83.56 76.9002L85.1 77.7402ZM84.68 73.5202L83.62 74.8602C82.58 73.5535 81.6066 72.7402 80.7 72.4202L81.68 71.4002C82.7733 71.9469 83.7733 72.6535 84.68 73.5202ZM83.02 66.7002C83.9933 67.2069 84.94 67.8869 85.86 68.7402L84.72 69.9802C83.9733 68.9669 83 68.2269 81.8 67.7602L83.02 66.7002ZM94.36 78.7802C94.8666 78.1402 95.3333 77.4269 95.76 76.6402C96.36 75.4669 96.7666 74.3135 96.98 73.1802H93.4C93.12 73.9402 92.7466 74.6935 92.28 75.4402C92.76 76.4669 93.4533 77.5802 94.36 78.7802Z" fill="white"/>
<path d="M77.4799 73.2002L76.2399 74.7002C74.8532 74.1269 73.2532 72.8869 71.4399 70.9802L72.7999 69.9202C74.1066 71.4669 75.6666 72.5602 77.4799 73.2002ZM62.4799 73.1602C64.1466 72.7069 65.7199 71.6269 67.1999 69.9202L68.5599 70.9802C68.3732 71.0735 68.0066 71.3869 67.4599 71.9202C66.9132 72.4535 66.1932 73.0135 65.2999 73.6002C64.4066 74.2002 63.8932 74.5669 63.7599 74.7002L62.4799 73.1602ZM66.0199 81.8202H73.9799V78.8602H66.0199V81.8202ZM64.4999 78.2402L61.6799 79.5802L60.6399 77.8002C61.2399 77.7469 61.9132 77.5869 62.6599 77.3202C65.2599 76.4002 67.4999 74.8602 69.3799 72.7002H70.6199C72.3932 74.9135 74.5732 76.4402 77.1599 77.2802C77.6799 77.4935 78.4132 77.6802 79.3599 77.8402L78.3199 79.5802C78.2932 79.5269 77.9599 79.3735 77.3199 79.1202C76.6932 78.8669 76.0866 78.5802 75.4999 78.2602V83.3202C75.4999 83.8802 75.5332 84.1935 75.5999 84.2602H73.8799C73.9466 83.9935 73.9799 83.6869 73.9799 83.3402H66.0199C66.0199 83.7135 66.0532 84.0202 66.1199 84.2602H64.3999C64.4666 84.1935 64.4999 83.9002 64.4999 83.3802V78.2402ZM77.1799 71.9202V69.3202H62.8199V71.9202C62.8199 72.2135 62.8532 72.4802 62.9199 72.7202H61.2199C61.2866 72.5069 61.3199 72.2402 61.3199 71.9202V67.8002H69.2399V67.0002C69.2399 66.6135 69.2132 66.3469 69.1599 66.2002H70.8399C70.7866 66.3335 70.7599 66.6002 70.7599 67.0002V67.8002H78.6799V71.9202C78.6799 72.2135 78.7132 72.4802 78.7799 72.7202H77.0799C77.1466 72.4669 77.1799 72.2002 77.1799 71.9202ZM73.9399 77.3402C72.2999 76.3535 70.9866 75.3135 69.9999 74.2202C68.7866 75.5802 67.4799 76.6202 66.0799 77.3402H73.9399Z" fill="white"/>
<path d="M50.8601 76.1602C50.7801 76.4802 50.7401 76.7202 50.7401 76.8802C50.7401 77.0402 50.7801 77.2668 50.8601 77.5602H57.9601C58.4401 77.5602 58.7467 77.5268 58.8801 77.4602V79.0802C58.5867 79.0135 58.2801 78.9802 57.9601 78.9802H51.4001C51.9334 79.7935 52.8334 80.5468 54.1001 81.2402C55.3667 81.9468 56.8601 82.3468 58.5801 82.4402H59.1801L58.4401 84.3002C58.3067 84.2335 57.8201 84.1135 56.9801 83.9402C53.5934 83.2468 51.2601 81.6735 49.9801 79.2202C48.5934 81.6602 46.2734 83.2335 43.0201 83.9402C42.3134 84.0868 41.8267 84.2068 41.5601 84.3002L40.8201 82.4002C44.4334 82.4002 47.0201 81.2602 48.5801 78.9802H42.0001C41.6934 78.9802 41.4001 79.0135 41.1201 79.0802V77.4602C41.2534 77.5268 41.5601 77.5602 42.0401 77.5602H49.1401C49.1667 77.2268 49.1801 76.9468 49.1801 76.7202C49.1801 76.4935 49.1667 76.3068 49.1401 76.1602H50.8601ZM54.8401 66.6602C54.5467 67.4735 54.0601 68.2068 53.3801 68.8602H56.7001C57.0201 68.8602 57.3201 68.8335 57.6001 68.7802V70.3802C57.3601 70.3268 57.1067 70.3002 56.8401 70.3002H50.7601V71.6802H55.7401C56.4201 71.6802 56.7934 71.6468 56.8601 71.5802V73.2002C56.5801 73.1335 56.2734 73.1002 55.9401 73.1002H50.7601V74.4802H57.5401C58.0334 74.4802 58.4134 74.4535 58.6801 74.4002V76.0202C58.4667 75.9535 58.2267 75.9202 57.9601 75.9202H42.2201C41.7001 75.9202 41.4067 75.9535 41.3401 76.0202V74.4002C41.5801 74.4535 41.8667 74.4802 42.2001 74.4802H49.2401V73.1002H44.3001C43.8067 73.1002 43.4201 73.1335 43.1401 73.2002V71.5802C43.3667 71.6468 43.6134 71.6802 43.8801 71.6802H49.2401V70.3002H43.6201C43.1134 70.3002 42.7134 70.3268 42.4201 70.3802V68.7802C42.6734 68.8335 42.9801 68.8602 43.3401 68.8602H46.6401C46.1867 67.9668 45.6801 67.2268 45.1201 66.6402L46.8401 66.1602C47.5067 66.9068 47.9801 67.8068 48.2601 68.8602H51.5601C52.3334 67.9935 52.8667 67.0935 53.1601 66.1602L54.8401 66.6602Z" fill="white"/>
<path d="M19.5743 224.927L42.5427 189.817L59.1259 210.93L19.5743 224.927Z" fill="#E4BD3B"/>
</svg>
