<svg width="565" height="227" viewBox="0 0 565 227" fill="none" xmlns="http://www.w3.org/2000/svg">
<g clip-path="url(#clip0_208_1720)">
<circle cx="113.5" cy="113.5" r="113.5" fill="white"/>
<circle cx="451.5" cy="113.5" r="113.5" fill="white"/>
<path d="M171.58 163.7L170.22 165.08C169.393 163.92 168.02 162.693 166.1 161.4L167.38 160.08C168.767 160.947 170.167 162.153 171.58 163.7ZM166.3 173.88C169.047 173.693 171.827 172.4 174.64 170C176.413 168.333 177.94 166.04 179.22 163.12C179.353 162.813 179.433 162.527 179.46 162.26L181.36 162.82L180.96 163.6C178.067 170.24 173.533 174.247 167.36 175.62L166.3 173.88Z" fill="#E4BD3B"/>
<path d="M146.78 161.1C151.486 161.033 155.106 160.493 157.64 159.48L158.38 159.02L160.2 160.4L158.32 160.98C156.933 161.353 155.933 161.613 155.32 161.76L155.26 165.6H160.68C161.026 165.6 161.36 165.567 161.68 165.5V167.24C161.386 167.16 161.053 167.12 160.68 167.12H155.22C155.006 171.667 152.813 174.56 148.64 175.8L147.16 174.38C151.253 173.713 153.426 171.293 153.68 167.12H146.32C145.973 167.12 145.64 167.16 145.32 167.24V165.5C145.426 165.54 145.693 165.573 146.12 165.6H153.72L153.76 161.98C152.066 162.247 150.146 162.453 148 162.6L146.78 161.1Z" fill="#E4BD3B"/>
<path d="M132.44 173.34C133.333 173.593 134.013 173.72 134.48 173.72C134.947 173.72 135.227 173.7 135.32 173.66C135.547 173.553 135.66 173.287 135.66 172.86L135.7 166.1C134.473 168.353 131.54 170.96 126.9 173.92L125.66 172.52C129.807 170.427 132.893 167.793 134.92 164.62H127.92C127.52 164.62 127.107 164.68 126.68 164.8L125.9 162.74C126.487 162.913 127.113 163 127.78 163C127.82 163 127.867 163 127.92 163H135.7L135.66 160.44C135.66 160.213 135.58 159.647 135.42 158.74L137.52 159.02C137.32 159.633 137.227 160.2 137.24 160.72V163H141.06C141.367 163 141.66 162.967 141.94 162.9L141.7 164.74C141.46 164.673 141.193 164.64 140.9 164.64H137.24V173.58C137.24 174.767 136.58 175.36 135.26 175.36C133.94 175.36 133.267 175.367 133.24 175.38L132.44 173.34Z" fill="#E4BD3B"/>
<path d="M117.06 159.16L118.22 158.8C119.233 159.973 119.846 161.16 120.06 162.36L118.72 162.84C118.493 161.427 117.94 160.2 117.06 159.16ZM120.7 158.4C121.646 159.547 122.24 160.727 122.48 161.94L121.16 162.42C120.96 160.9 120.406 159.667 119.5 158.72L120.7 158.4ZM119.58 175.48C119.526 175.427 119.193 175.387 118.58 175.36H110.8C108.52 175.36 107.386 173.973 107.4 171.2V161.38C107.4 160.593 107.366 160.16 107.3 160.08L109.04 160.42C108.986 160.647 108.96 160.853 108.96 161.04V166.22C111.773 165.527 114.466 164.7 117.04 163.74C118.186 163.34 118.813 163.1 118.92 163.02L120.04 164.8L108.96 167.84V170.98C108.96 172.833 109.606 173.76 110.9 173.76L118.98 173.64C119.326 173.64 119.646 173.607 119.94 173.54L119.58 175.48Z" fill="#E4BD3B"/>
<path d="M101.7 168.42C101.7 169.14 101.273 169.5 100.42 169.5C99.5668 169.5 98.7935 169.473 98.1001 169.42L97.1001 167.44C98.3535 167.8 99.1668 167.98 99.5401 167.98C99.9001 167.98 100.113 167.947 100.18 167.88V159.42C100.18 159.1 100.147 158.793 100.08 158.5H101.78C101.727 158.753 101.7 159.04 101.7 159.36V168.42ZM97.3401 159.42C97.2735 159.62 97.2401 159.933 97.2401 160.36V165.84C97.2401 166.333 97.2735 166.647 97.3401 166.78H95.6201C95.6735 166.54 95.7068 166.28 95.7201 166V160.36C95.7201 159.867 95.6868 159.553 95.6201 159.42H97.3401ZM99.7201 172H94.2601V174.52H101.52C101.827 174.52 102.12 174.487 102.4 174.42V176.14C102.16 176.073 101.913 176.04 101.66 176.04H85.5201C85.0401 176.04 84.7335 176.073 84.6001 176.14V174.42C84.8401 174.487 85.1468 174.52 85.5201 174.52H92.7401V172H88.4201C87.3134 172 86.6935 172.033 86.5601 172.1V170.38C86.7601 170.447 87.0601 170.48 87.4601 170.48H92.7401V169.56C92.7401 169.013 92.7068 168.707 92.6401 168.64H94.3601C94.2935 168.867 94.2601 169.12 94.2601 169.4V170.48H98.5801C99.6868 170.48 100.307 170.447 100.44 170.38V172.1C100.187 172.033 99.9468 172 99.7201 172ZM92.5201 163.28H93.6001C93.9735 163.28 94.2334 163.24 94.3801 163.16V164.9C94.1668 164.833 93.9001 164.8 93.5801 164.8H92.5201V167.86C92.5201 168.433 92.5535 168.753 92.6201 168.82H90.9001C90.9668 168.62 91.0001 168.36 91.0001 168.04V164.8H88.6401C88.6401 166.507 87.8068 167.927 86.1401 169.06C85.5935 169.433 85.3001 169.627 85.2601 169.64L84.1201 168C86.0935 167.653 87.0935 166.587 87.1201 164.8H85.9001C85.3668 164.8 84.9468 164.833 84.6401 164.9V163.18C84.8668 163.247 85.2001 163.28 85.6401 163.28H87.1201V160.62C85.9468 160.633 85.2601 160.66 85.0601 160.7V159C85.3001 159.067 85.5868 159.1 85.9201 159.1H93.4001C93.6935 159.1 93.9734 159.067 94.2401 159V160.72C94.0134 160.653 93.7801 160.62 93.5401 160.62H92.5201V163.28ZM88.6401 160.62V163.28H91.0001V160.62H88.6401Z" fill="#E4BD3B"/>
<path d="M81.1 170.72L82.8 171.78C82.6933 171.98 82.62 172.8 82.58 174.24C82.34 175.64 81.62 176.34 80.42 176.34H75.38C74.3 176.34 73.76 175.773 73.76 174.64V159.46C73.76 159.1 73.7333 158.78 73.68 158.5H75.38C75.3133 158.753 75.28 159.073 75.28 159.46V166.12C77.8133 164.92 79.6867 163.3 80.9 161.26L82.6 162.46C82.5867 162.473 82.5133 162.54 82.38 162.66C82.2333 162.78 82.06 162.96 81.86 163.2C80.06 165.253 77.8667 166.82 75.28 167.9V174.3C75.3467 174.66 75.7467 174.84 76.48 174.84H79.6C80.1867 174.84 80.5333 174.827 80.64 174.8C81 174.667 81.18 173.953 81.18 172.66L81.1 170.72ZM68.34 175.48V165.86C67.5933 166.967 66.7667 167.947 65.86 168.8L64.5 167.5C67.22 165.22 69.08 162.16 70.08 158.32L71.76 158.58C71.72 158.607 71.62 158.893 71.46 159.44C71.06 160.933 70.5267 162.287 69.86 163.5V175.32C69.86 175.827 69.8933 176.147 69.96 176.28H68.24C68.3067 176.04 68.34 175.773 68.34 175.48Z" fill="#E4BD3B"/>
<path d="M49.44 162.46L48.04 163.42L47.74 162.8C46.2733 160.987 45.2267 159.96 44.6 159.72L45.9 158.94C47.4467 160.073 48.6267 161.247 49.44 162.46ZM61.18 174.64C62.02 174.627 62.5933 174.58 62.9 174.5L62.4 176.42C62.1867 176.353 61.9467 176.32 61.68 176.32H53.7C50.66 176.32 48.8 175.64 48.12 174.28C47.7733 174.667 47.1333 175.133 46.2 175.68L45.16 176.3L44 174.6C45.6533 174.293 46.76 173.727 47.32 172.9C47.4 172.78 47.44 172.693 47.44 172.64V167.42H45.92C45.52 167.42 45.1467 167.453 44.8 167.52V165.82L45.52 165.9H48.94V172.52C49.0333 172.853 49.2 173.187 49.44 173.52C50.0533 174.373 51.3667 174.8 53.38 174.8C53.4733 174.8 53.5667 174.8 53.66 174.8L61.18 174.64ZM50.26 165.52L48.7 164.28C49.7933 163.573 50.7733 162.427 51.64 160.84C52.12 159.973 52.36 159.227 52.36 158.6C52.36 158.507 52.3533 158.42 52.34 158.34L54.04 158.5C53.9867 158.647 53.9 158.953 53.78 159.42C53.6467 159.887 53.46 160.427 53.22 161.04H56.64C57.16 160.267 57.6133 159.353 58 158.3L59.74 158.8C59.26 159.76 58.74 160.507 58.18 161.04H60.94C61.38 161.04 61.7333 161.007 62 160.94V162.66C61.7467 162.593 61.4267 162.56 61.04 162.56H58.02V164.34H60.38C61.0333 164.34 61.3933 164.307 61.46 164.24V165.96C61.22 165.893 60.8933 165.86 60.48 165.86H58.02V167.68H60.22C60.7533 167.68 61.1667 167.647 61.46 167.58V169.28C61.1667 169.213 60.78 169.18 60.3 169.18H58.02V171.22H60.86C61.4867 171.22 61.96 171.187 62.28 171.12V172.82C61.68 172.767 61.2467 172.74 60.98 172.74H52.92C52.92 173.073 52.9533 173.38 53.02 173.66H51.32C51.3733 173.407 51.4 173.1 51.4 172.74V164.1L50.92 164.7C50.5333 165.127 50.3133 165.4 50.26 165.52ZM52.92 171.22H56.5V169.18H52.92V171.22ZM52.92 162.56V164.34H56.5V162.56H52.92ZM52.92 165.86V167.68H56.5V165.86H52.92Z" fill="#E4BD3B"/>
<g clip-path="url(#clip1_208_1720)">
<path d="M170.937 94.3018C170.937 94.3018 170.347 94.176 170.328 94.1705C169.822 94.0995 169.316 94.0202 168.81 93.9573C167.315 93.7632 165.797 93.6265 164.28 93.5362C159.897 93.2792 155.619 93.5937 151.299 94.3483C146.326 95.2177 141.415 96.4179 136.338 96.4453C134.378 96.4562 132.417 96.2183 130.457 95.9996C130.162 95.9668 128.855 95.6442 128.707 96.098C128.371 97.0085 129.845 99.2285 130.118 100.073C131.004 102.827 131.067 105.741 130.793 108.598" stroke="#E4BD3B" stroke-width="3" stroke-linecap="round" stroke-linejoin="round"/>
<path d="M55.063 96.6393C55.0849 96.426 57.4662 95.8163 57.6549 95.7589C60.2878 94.9059 62.9425 94.4493 65.7039 94.1759C74.5349 93.3037 82.6249 94.4712 91.2208 96.221C92.8667 96.5518 94.5098 96.806 96.153 96.9072C96.9541 96.9564 98.0914 96.7213 98.8488 97.022C99.2917 97.1916 99.0593 97.7438 98.9144 98.0309C98.4086 99.1409 97.7551 100.166 97.3751 101.339C96.4045 104.229 95.814 107.608 96.2569 110.643C97.9657 122.695 111.092 127.695 121.481 123.488" stroke="#E4BD3B" stroke-width="3" stroke-linecap="round" stroke-linejoin="round"/>
<path d="M133.188 115.13C133.125 115.056 133.398 115.053 133.483 115.023C133.693 114.966 133.882 114.922 134.073 114.884C134.642 114.774 135.213 114.733 135.801 114.728C137.551 114.711 139.298 115.094 140.9 115.808C144.271 117.309 147.137 120.513 146.737 124.412C146.612 125.615 146.147 126.747 145.578 127.802" stroke="#E4BD3B" stroke-width="3" stroke-linecap="round" stroke-linejoin="round"/>
<path d="M135.587 111.857C135.456 111.748 134.676 112.352 134.579 112.402C133.638 113.056 132.141 113.866 131.783 115.019C131.293 116.47 133.474 117.749 134.288 118.625" stroke="#E4BD3B" stroke-width="2" stroke-linecap="round" stroke-linejoin="round"/>
<path d="M129.414 121.467C129.141 121.511 128.805 122.785 128.742 123.015C128.321 124.65 128.468 126.648 129.037 128.223C130.787 132.906 137.781 135.807 142.185 133.196" stroke="#E4BD3B" stroke-width="3" stroke-linecap="round" stroke-linejoin="round"/>
<path d="M140.431 130.274C140.489 130.148 141.049 130.553 141.124 130.583C141.611 130.79 143.299 131.018 143.336 132.495C143.355 133.091 143.073 133.708 142.886 134.088C142.341 135.195 141.703 136.131 141.066 137.031" stroke="#E4BD3B" stroke-width="2" stroke-linecap="round" stroke-linejoin="round"/>
<path d="M137.265 36.5148C137.265 36.5531 135.515 37.8327 135.474 37.8764C133.41 39.6071 131.66 41.6986 129.976 43.8066C123.633 51.8283 118.408 60.8287 114.974 70.4745C113.689 74.0315 112.656 77.6705 111.855 81.3614C111.223 84.388 110.758 87.5103 109.599 90.4057C107.513 95.6933 103.067 100.519 103.467 106.523C103.636 109.273 104.962 112.07 107.218 113.722C111.6 116.923 118.198 116.152 120.768 111.132C122.769 107.215 121.653 102.703 120.177 98.8156C119.712 97.5989 118.829 96.5327 118.49 95.2832C117.774 92.653 118.11 89.4214 118.302 86.7584C119.313 73.9604 123.781 61.6189 129.765 50.3546C132.335 45.5509 134.99 40.6843 138.32 36.359" stroke="#E4BD3B" stroke-width="3" stroke-linecap="round" stroke-linejoin="round"/>
<path d="M131.102 21.2969V21.2959C131.169 21.3084 131.242 21.3337 131.323 21.3701C131.396 21.4058 131.462 21.448 131.528 21.502C131.589 21.5512 131.642 21.6077 131.689 21.6748C131.739 21.7437 131.778 21.8172 131.805 21.8877L131.81 21.9004C131.837 21.9676 131.856 22.0457 131.866 22.1338V22.1348C131.877 22.2293 131.878 22.313 131.868 22.3789L131.866 22.3945C131.857 22.4777 131.838 22.5536 131.811 22.625C129.897 26.7675 127.973 30.9104 126.049 35.0498C125.907 35.3543 125.702 35.5052 125.494 35.5693C125.275 35.6369 125.02 35.6178 124.788 35.5166C124.556 35.4151 124.377 35.2451 124.289 35.0508C124.206 34.869 124.184 34.6283 124.326 34.3232L127.524 27.46L126.76 26.8574C122.851 29.9711 118.982 33.1662 115.298 36.5811L115.297 36.583C107.955 43.455 101.509 51.4845 97.5938 61.0107C93.9959 69.7127 92.6986 79.5563 95.8398 88.6748V88.6758C96.0417 89.258 95.7297 89.744 95.2578 89.9463C95.0241 90.0464 94.7907 90.0549 94.6094 89.9883C94.4478 89.9289 94.2785 89.7922 94.1709 89.4902L94.1602 89.457C93.3797 87.1703 92.8307 84.8264 92.5127 82.4297L92.3906 81.3994C92.1027 78.6391 92.1197 75.8829 92.4502 73.127L92.4512 73.125C93.573 63.3819 98.025 54.1607 103.812 46.4248L103.813 46.4238C109.96 38.1793 117.817 31.5634 125.806 25.1699L125.401 24.2881L114.589 26.3135C114.283 26.3701 114.085 26.2884 113.949 26.165C113.8 26.0288 113.688 25.8035 113.658 25.5312C113.6 25.0079 113.84 24.5237 114.341 24.377L114.444 24.3525L130.88 21.2832C130.949 21.2781 131.021 21.2826 131.102 21.2969Z" fill="#E4BD3B" stroke="#E4BD3B"/>
</g>
<g clip-path="url(#clip2_208_1720)">
<path d="M284.35 115L298.166 101.183C298.44 100.865 298.582 100.454 298.566 100.035C298.55 99.6155 298.376 99.2176 298.079 98.9208C297.782 98.6239 297.384 98.45 296.965 98.4338C296.545 98.4176 296.135 98.5603 295.816 98.8334L282 112.65L268.183 98.8167C267.869 98.5029 267.444 98.3265 267 98.3265C266.556 98.3265 266.13 98.5029 265.816 98.8167C265.503 99.1305 265.326 99.5562 265.326 100C265.326 100.444 265.503 100.87 265.816 101.183L279.65 115L265.816 128.817C265.642 128.966 265.5 129.15 265.4 129.357C265.3 129.564 265.244 129.789 265.235 130.018C265.226 130.248 265.265 130.477 265.349 130.691C265.433 130.904 265.56 131.099 265.722 131.261C265.884 131.424 266.079 131.551 266.293 131.634C266.506 131.718 266.735 131.757 266.965 131.748C267.194 131.739 267.42 131.683 267.626 131.583C267.833 131.483 268.017 131.341 268.166 131.167L282 117.35L295.816 131.167C296.135 131.44 296.545 131.582 296.965 131.566C297.384 131.55 297.782 131.376 298.079 131.079C298.376 130.782 298.55 130.385 298.566 129.965C298.582 129.546 298.44 129.136 298.166 128.817L284.35 115Z" fill="white"/>
</g>
<g clip-path="url(#clip3_208_1720)">
<path d="M382.317 99.2133C382.269 99.2006 383.528 98.1721 383.602 98.1214C384.597 97.5106 385.643 97.0454 386.738 96.6751C390.252 95.5073 393.935 94.9439 397.618 94.6148C406.905 93.7729 416.551 94.2255 425.815 95.2604C427.501 95.4471 429.238 95.7098 430.923 95.5009C431.257 95.4629 432.917 94.7603 433.178 94.8996C433.582 95.1211 432.609 95.6212 432.348 95.9978C431.779 96.8302 431.279 97.7195 430.876 98.6373C429.712 101.223 428.977 104.078 428.643 106.891C427.74 114.674 431.423 122.184 438.69 125.596C452.302 131.979 464.537 120.744 466.057 107.42C466.436 104.204 466.509 100.875 466.201 97.6467C466.131 96.7637 465.418 94.7097 466.223 93.9976C467.053 93.2982 468.859 93.5134 469.833 93.4976C473.42 93.4343 476.96 93.7824 480.522 94.0894C492.709 95.1338 505.015 94.6749 517.202 94.2476" stroke="#E4BD3B" stroke-width="3" stroke-linecap="round" stroke-linejoin="round"/>
<path d="M475.039 27.4592C475.159 27.4143 474.755 27.5427 474.638 27.5876C474.332 27.6999 474.026 27.854 473.742 28.0241C473.035 28.451 472.398 28.9741 471.786 29.5166C469.994 31.0732 468.322 32.7807 466.767 34.5973C462.265 39.9445 458.4 45.8822 455.194 52.1151C452.838 56.6631 450.834 61.3876 449.067 66.2052C446.805 72.4446 445.061 78.8573 443.836 85.3856C443.199 88.6689 442.966 92.0422 442.164 95.2903C440.962 100.085 437.924 104.37 437.968 109.467C438.038 116.817 445.509 122.241 452.251 118.861C456.068 116.958 457.766 112.115 457.718 108.068C457.649 100.339 452.935 93.7369 453.241 85.8638C453.478 80.1315 454.891 74.4152 456.235 68.8755C459.794 54.3009 465.896 39.1581 475.698 27.6807" stroke="#E4BD3B" stroke-width="3" stroke-linecap="round" stroke-linejoin="round"/>
<path d="M470.982 80.1625C471.094 80.4317 471.41 80.1241 471.546 80.1113C471.974 80.0472 472.403 79.9703 472.831 79.919C474.409 79.7011 476.01 79.4575 477.585 79.3293" stroke="#E4BD3B" stroke-width="3" stroke-linecap="round" stroke-linejoin="round"/>
<path d="M419.673 61.5999C419.785 61.8691 420.102 61.5615 420.237 61.5486C420.666 61.4845 421.094 61.4076 421.522 61.3564C423.1 61.1385 424.702 60.8949 426.276 60.7667" stroke="#E4BD3B" stroke-width="3" stroke-linecap="round" stroke-linejoin="round"/>
<path d="M474.646 82.9924C474.631 85.0166 474.589 82.7031 474.571 82.6067C474.513 82.1247 474.456 81.5464 474.398 81.1609C474.186 79.5222 473.971 77.6906 473.76 76.7267" stroke="#E4BD3B" stroke-width="3" stroke-linecap="round" stroke-linejoin="round"/>
<path d="M490.791 38.769C490.791 38.769 490.791 39.2219 490.791 39.2316C490.791 39.7887 490.791 40.3457 490.791 40.9028C490.791 43.0235 490.791 45.141 490.791 47.2584" stroke="#E4BD3B" stroke-width="3" stroke-linecap="round" stroke-linejoin="round"/>
<path d="M487.019 43.4375C486.997 43.5648 487.21 43.3993 487.306 43.3866C487.519 43.3569 487.758 43.3272 487.971 43.306C488.636 43.2296 489.301 43.1532 489.992 43.081C491.822 42.8774 493.674 42.7076 495.507 42.5421" stroke="#E4BD3B" stroke-width="3" stroke-linecap="round" stroke-linejoin="round"/>
<path d="M439.182 36.8353C439.16 36.9626 439.373 36.7971 439.468 36.7844C439.681 36.7547 439.92 36.725 440.133 36.7038C440.799 36.6274 441.464 36.551 442.154 36.4789C443.984 36.2752 445.836 36.1054 447.67 35.9399" stroke="#E4BD3B" stroke-width="3" stroke-linecap="round" stroke-linejoin="round"/>
<path d="M443.583 32.1665C443.723 32.1569 443.487 32.3211 443.487 32.4015C443.392 32.6011 443.347 32.8072 443.347 33.0067C443.251 33.5186 443.2 34.0337 443.111 34.5455C442.92 36.2645 442.729 37.9868 442.684 39.7122" stroke="#E4BD3B" stroke-width="3" stroke-linecap="round" stroke-linejoin="round"/>
<path d="M423.22 57.22C423.22 57.4292 423.22 57.8197 423.22 58.0352C423.22 58.5911 423.22 59.144 423.22 59.6999C423.22 62.0144 423.22 64.3413 423.22 66.6526" stroke="#E4BD3B" stroke-width="3" stroke-linecap="round" stroke-linejoin="round"/>
</g>
<path d="M499.58 175.7L498.22 177.08C497.393 175.92 496.02 174.693 494.1 173.4L495.38 172.08C496.767 172.947 498.167 174.153 499.58 175.7ZM494.3 185.88C497.047 185.693 499.827 184.4 502.64 182C504.413 180.333 505.94 178.04 507.22 175.12C507.353 174.813 507.433 174.527 507.46 174.26L509.36 174.82L508.96 175.6C506.067 182.24 501.533 186.247 495.36 187.62L494.3 185.88Z" fill="#E4BD3B"/>
<path d="M474.44 182.74C475.173 182.913 475.62 183.007 475.78 183.02C476.953 183.127 479.06 183.533 482.1 184.24L484.12 184.84L487.72 186.06L487.76 186.08L487.32 187.92C484.12 186.227 480.28 185.153 475.8 184.7L474.76 184.66L474.44 182.74ZM485.36 179.28C485.88 179.493 486.253 179.6 486.48 179.6L486.1 181.44C485.567 181.12 484.967 180.853 484.3 180.64C482.06 179.747 479.587 179.153 476.88 178.86L475.9 178.82L475.62 176.92C476.313 177.093 477.047 177.227 477.82 177.32C479.793 177.587 482.307 178.24 485.36 179.28ZM484.9 173.76L485.94 174.1C486.207 174.22 486.52 174.313 486.88 174.38L486.54 176.1C485.74 175.713 485.187 175.48 484.88 175.4C481.52 174.293 478.44 173.693 475.64 173.6L475.36 171.74C475.88 171.927 476.267 172.027 476.52 172.04C479.56 172.333 482.353 172.907 484.9 173.76Z" fill="#E4BD3B"/>
<path d="M457.08 188.28L455.62 186.86C458.353 186.087 460.987 184.367 463.52 181.7C462.413 180.66 460.887 179.673 458.94 178.74L460.06 177.54C462.087 178.647 463.587 179.62 464.56 180.46C465.88 178.847 466.78 177.02 467.26 174.98L460.26 175.08C459.26 177.027 457.767 178.8 455.78 180.4L454.52 179.08C457.387 176.96 459.3 174.153 460.26 170.66L461.96 171.14C461.773 171.607 461.66 171.893 461.62 172C461.327 172.893 461.073 173.473 460.86 173.74L467.98 173.46L469.08 174.6C467.56 180.8 463.56 185.36 457.08 188.28Z" fill="#E4BD3B"/>
<path d="M445.06 171.16L446.22 170.8C447.233 171.973 447.846 173.16 448.06 174.36L446.72 174.84C446.493 173.427 445.94 172.2 445.06 171.16ZM448.7 170.4C449.646 171.547 450.24 172.727 450.48 173.94L449.16 174.42C448.96 172.9 448.406 171.667 447.5 170.72L448.7 170.4ZM447.58 187.48C447.526 187.427 447.193 187.387 446.58 187.36H438.8C436.52 187.36 435.386 185.973 435.4 183.2V173.38C435.4 172.593 435.366 172.16 435.3 172.08L437.04 172.42C436.986 172.647 436.96 172.853 436.96 173.04V178.22C439.773 177.527 442.466 176.7 445.04 175.74C446.186 175.34 446.813 175.1 446.92 175.02L448.04 176.8L436.96 179.84V182.98C436.96 184.833 437.606 185.76 438.9 185.76L446.98 185.64C447.326 185.64 447.646 185.607 447.94 185.54L447.58 187.48Z" fill="#E4BD3B"/>
<path d="M416.24 185.96V186.54C416.24 186.847 416.28 187.073 416.36 187.22H414.6C414.653 187.007 414.68 186.733 414.68 186.4V172.68H426.98L428.02 173.66V186.3C428.02 186.62 428.047 186.927 428.1 187.22H426.34C426.42 186.927 426.46 186.607 426.46 186.26V185.96H416.24ZM426.46 174.32C426.42 174.293 426.387 174.26 426.36 174.22H416.24V184.42H426.46V174.32Z" fill="#E4BD3B"/>
<path d="M407.04 171.94C407.04 172.327 407.18 172.653 407.46 172.92C407.727 173.187 408.053 173.32 408.44 173.32C408.827 173.32 409.153 173.187 409.42 172.92C409.7 172.653 409.84 172.327 409.84 171.94C409.84 171.553 409.7 171.22 409.42 170.94C409.153 170.673 408.827 170.54 408.44 170.54C408.053 170.54 407.727 170.673 407.46 170.94C407.18 171.22 407.04 171.553 407.04 171.94ZM408.44 174.22C407.8 174.22 407.26 173.993 406.82 173.54C406.38 173.1 406.16 172.567 406.16 171.94C406.16 171.327 406.38 170.793 406.82 170.34C407.26 169.9 407.8 169.68 408.44 169.68C409.08 169.68 409.62 169.907 410.06 170.36C410.5 170.813 410.72 171.347 410.72 171.96C410.72 172.587 410.5 173.12 410.06 173.56C409.62 174 409.08 174.22 408.44 174.22ZM397.36 187.06C396.16 187.553 395.56 187.813 395.56 187.84L394.3 186.2C396.247 185.827 398.053 185.107 399.72 184.04C403.32 181.667 405.353 178.72 405.82 175.2H394.04C393.667 175.2 393.32 175.227 393 175.28V173.54C393.32 173.607 393.667 173.64 394.04 173.64H406.46L407.48 174.6C406.96 180.373 403.587 184.527 397.36 187.06Z" fill="#E4BD3B"/>
<path d="M479.7 156.42C479.7 157.14 479.273 157.5 478.42 157.5C477.567 157.5 476.793 157.473 476.1 157.42L475.1 155.44C476.353 155.8 477.167 155.98 477.54 155.98C477.9 155.98 478.113 155.947 478.18 155.88V147.42C478.18 147.1 478.147 146.793 478.08 146.5H479.78C479.727 146.753 479.7 147.04 479.7 147.36V156.42ZM475.34 147.42C475.273 147.62 475.24 147.933 475.24 148.36V153.84C475.24 154.333 475.273 154.647 475.34 154.78H473.62C473.673 154.54 473.707 154.28 473.72 154V148.36C473.72 147.867 473.687 147.553 473.62 147.42H475.34ZM477.72 160H472.26V162.52H479.52C479.827 162.52 480.12 162.487 480.4 162.42V164.14C480.16 164.073 479.913 164.04 479.66 164.04H463.52C463.04 164.04 462.733 164.073 462.6 164.14V162.42C462.84 162.487 463.147 162.52 463.52 162.52H470.74V160H466.42C465.313 160 464.693 160.033 464.56 160.1V158.38C464.76 158.447 465.06 158.48 465.46 158.48H470.74V157.56C470.74 157.013 470.707 156.707 470.64 156.64H472.36C472.293 156.867 472.26 157.12 472.26 157.4V158.48H476.58C477.687 158.48 478.307 158.447 478.44 158.38V160.1C478.187 160.033 477.947 160 477.72 160ZM470.52 151.28H471.6C471.973 151.28 472.233 151.24 472.38 151.16V152.9C472.167 152.833 471.9 152.8 471.58 152.8H470.52V155.86C470.52 156.433 470.553 156.753 470.62 156.82H468.9C468.967 156.62 469 156.36 469 156.04V152.8H466.64C466.64 154.507 465.807 155.927 464.14 157.06C463.593 157.433 463.3 157.627 463.26 157.64L462.12 156C464.093 155.653 465.093 154.587 465.12 152.8H463.9C463.367 152.8 462.947 152.833 462.64 152.9V151.18C462.867 151.247 463.2 151.28 463.64 151.28H465.12V148.62C463.947 148.633 463.26 148.66 463.06 148.7V147C463.3 147.067 463.587 147.1 463.92 147.1H471.4C471.693 147.1 471.973 147.067 472.24 147V148.72C472.013 148.653 471.78 148.62 471.54 148.62H470.52V151.28ZM466.64 148.62V151.28H469V148.62H466.64Z" fill="#E4BD3B"/>
<path d="M451.42 162.52C453.98 162.08 456.187 161.24 458.04 160C458.76 159.52 459.187 159.173 459.32 158.96L460.66 160.18C460.153 160.42 459.74 160.667 459.42 160.92C457.633 162.24 455.007 163.3 451.54 164.1C450.873 164.26 450.527 164.353 450.5 164.38L449.48 162.7C450.16 162.687 450.807 162.627 451.42 162.52ZM456.76 157.44C457.08 157.253 457.313 157.04 457.46 156.8L458.8 157.92C458.587 158.08 458.373 158.227 458.16 158.36C455.747 159.787 453.727 160.68 452.1 161.04C451.58 161.147 451.16 161.28 450.84 161.44L449.84 159.76C452.04 159.587 454.347 158.813 456.76 157.44ZM449.88 156.96C451.547 156.787 453.26 156.247 455.02 155.34C455.353 155.153 455.587 154.94 455.72 154.7L457.08 155.86L455.04 157.08C454.187 157.547 453.327 157.9 452.46 158.14C451.58 158.38 451.053 158.54 450.88 158.62L449.88 156.96ZM458.32 149.96C457.84 150.907 457.047 151.913 455.94 152.98C457.7 153.9 459.487 154.447 461.3 154.62L460.4 156.38C460.347 156.313 460.047 156.193 459.5 156.02C457.633 155.447 456.053 154.76 454.76 153.96C454.547 154.227 453.287 154.853 450.98 155.84C450.327 156.12 449.96 156.3 449.88 156.38L448.84 154.74C450.347 154.607 451.873 154.047 453.42 153.06C452.86 152.687 452.193 152.06 451.42 151.18C451.047 151.953 450.58 152.753 450.02 153.58L448.84 152.08C450.453 150.547 451.393 148.647 451.66 146.38L453.34 146.62C453.26 146.753 453.14 147.04 452.98 147.48C452.82 147.933 452.713 148.26 452.66 148.46H459.18C459.513 148.46 459.813 148.427 460.08 148.36V150.06C459.8 149.993 459.5 149.96 459.18 149.96H458.32ZM448.68 149.52C448.613 149.693 448.58 149.993 448.58 150.42V161.08C448.58 161.613 448.613 161.913 448.68 161.98H446.96C447.027 161.687 447.06 161.387 447.06 161.08V150.42C447.06 150.087 447.027 149.787 446.96 149.52H448.68ZM444.34 163.54V155L443.1 157.18L442.1 155.38C444.127 153.007 445.213 150.013 445.36 146.4L447.04 146.62C446.973 146.713 446.9 147.033 446.82 147.58C446.74 148.127 446.567 148.987 446.3 150.16L445.84 151.66V163.36C445.84 163.707 445.873 164.02 445.94 164.3H444.24C444.307 164.06 444.34 163.807 444.34 163.54ZM452.34 149.96L452.28 150.12C452.853 150.853 453.64 151.547 454.64 152.2C455.427 151.573 456.113 150.827 456.7 149.96H452.34Z" fill="#E4BD3B"/>
<path d="M435.8 155.34H438.78V153.44H435.8V155.34ZM435.8 158.62H438.78V156.78H435.8V158.62ZM434.28 155.34V153.44H431.4V155.34H434.28ZM434.28 158.62V156.78H431.4V158.62H434.28ZM436.5 162.7C436.887 162.833 437.513 162.9 438.38 162.9C438.647 162.9 438.78 162.767 438.78 162.5V160.04H435.8V163.12C435.8 163.6 435.833 163.907 435.9 164.04H434.18C434.247 163.867 434.28 163.573 434.28 163.16V160.04H431.4V163.44C431.4 163.947 431.433 164.233 431.5 164.3H429.74C429.807 164.047 429.84 163.747 429.84 163.4V151.98H434.28V150.52H430.88C430.133 150.52 429.627 150.553 429.36 150.62V148.92C429.6 148.987 429.987 149.02 430.52 149.02H434.28V147.38C434.28 147.06 434.247 146.767 434.18 146.5H435.9C435.833 146.633 435.8 146.94 435.8 147.42V149.02H438.88C437.973 148.433 437.1 148 436.26 147.72L437.24 146.56C437.347 146.667 437.707 146.853 438.32 147.12C438.933 147.4 439.353 147.613 439.58 147.76C439.807 147.907 440.027 148 440.24 148.04L439.36 149.02C440.2 149.007 440.713 148.973 440.9 148.92V150.62C440.553 150.553 440.26 150.52 440.02 150.52H435.8V151.98H440.36V163C440.36 163.947 439.933 164.42 439.08 164.42H437.46L436.5 162.7ZM429.34 157.58L428.06 159.24C427.5 158.093 426.907 157.233 426.28 156.66V163.44C426.28 163.747 426.307 164.033 426.36 164.3H424.66C424.727 163.993 424.76 163.693 424.76 163.4V156.9L422.92 159.36L422.1 157.3C423.86 155.873 425.533 153.84 427.12 151.2H423.62C422.98 151.2 422.593 151.233 422.46 151.3V149.58C422.727 149.647 423.1 149.68 423.58 149.68H424.76V147.22C424.76 146.967 424.727 146.733 424.66 146.52H426.36C426.307 146.707 426.28 146.94 426.28 147.22V149.68H427.82L428.08 149.48L429.36 150.72L426.5 154.84C426.727 155.013 426.947 155.193 427.16 155.38C427.493 154.887 427.813 154.233 428.12 153.42L429.62 154.36C429.22 154.987 428.74 155.64 428.18 156.32C428.593 156.733 428.98 157.153 429.34 157.58Z" fill="#E4BD3B"/>
</g>
<defs>
<clipPath id="clip0_208_1720">
<rect width="565" height="227" fill="white"/>
</clipPath>
<clipPath id="clip1_208_1720">
<rect width="124" height="124" fill="white" transform="translate(51 14)"/>
</clipPath>
<clipPath id="clip2_208_1720">
<rect width="60" height="60" fill="white" transform="translate(252 85)"/>
</clipPath>
<clipPath id="clip3_208_1720">
<rect width="133" height="133" fill="white" transform="translate(378 12)"/>
</clipPath>
</defs>
</svg>
