<svg width="322" height="59" viewBox="0 0 322 59" fill="none" xmlns="http://www.w3.org/2000/svg">
<path d="M320.775 50.2903C315.545 51.7503 312.93 53.2753 312.93 54.8653V54.9103C312.93 55.3903 313.05 55.7453 313.29 55.9753C313.69 56.5453 314.69 56.8303 316.29 56.8303C317.89 56.8303 319.36 56.6853 320.7 56.3953L320.4 57.7753C317.8 57.9553 316.395 58.0453 316.185 58.0453C313.095 58.0453 311.55 57.0453 311.55 55.0453C311.55 53.9253 312.46 52.7403 314.28 51.4903C313.9 49.7603 313.48 48.2053 313.02 46.8253L312.87 46.3753L314.265 46.1953C314.265 46.5153 314.63 48.1453 315.36 51.0853C316.06 50.7753 316.78 50.4803 317.52 50.2003C318.27 49.9103 319.14 49.5103 320.13 49.0003L320.775 50.2903Z" fill="#3A4F63"/>
<path d="M316.995 35.4849C319.775 35.4849 321.17 36.6449 321.18 38.9649C321.18 41.5449 319.085 42.9349 314.895 43.1349C314.835 42.7649 314.64 42.3449 314.31 41.8749C318.06 41.7749 319.935 40.7699 319.935 38.8599C319.895 37.4199 318.89 36.6999 316.92 36.6999H316.875C315.105 36.8699 313.345 37.2699 311.595 37.8999C311.525 37.4299 311.275 36.9849 310.845 36.5649C313.985 35.8449 316.035 35.4849 316.995 35.4849Z" fill="#3A4F63"/>
<path d="M318.57 18.58C317.6 18.36 315.93 17.87 313.56 17.11L313.605 15.73C315.765 16.66 317.435 17.2 318.615 17.35L318.57 18.58ZM317.535 21.265C320.055 21.265 321.315 22.34 321.315 24.49C321.315 27.02 318.905 28.285 314.085 28.285C313.815 27.905 313.555 27.525 313.305 27.145C314.165 27.145 314.78 27.135 315.15 27.115C318.49 26.955 320.16 26.035 320.16 24.355C320.16 23.075 319.285 22.435 317.535 22.435H317.49C316.8 22.435 315.85 22.75 314.64 23.38C313.97 23.73 313.385 24.25 312.885 24.94L311.91 24.25C312.12 22.23 312.38 20.445 312.69 18.895L314.01 19.12C313.48 20.54 313.15 21.97 313.02 23.41C314.62 21.98 316.125 21.265 317.535 21.265Z" fill="#3A4F63"/>
<path d="M315.915 0.670001L317.25 0.625C317.28 1.115 317.53 2.02 318 3.34C319.44 3.16 320.625 2.9 321.555 2.56L321.585 3.76C320.585 4.02 319.51 4.23 318.36 4.39C318.9 5.79 319.65 7.115 320.61 8.365L320.145 9.34C318.735 8.56 317.215 8.17 315.585 8.17H315.54C313.9 8.18 313.02 8.755 312.9 9.895V9.955C312.89 11.265 314.235 11.925 316.935 11.935H317.34L319.335 11.89L318.765 13.06C318.685 13.1 318.55 13.12 318.36 13.12C316.38 13.12 315.035 13.025 314.325 12.835C312.615 12.385 311.76 11.495 311.76 10.165C311.76 8.115 312.985 7.085 315.435 7.075C316.795 7.075 317.975 7.33 318.975 7.84C318.455 7.28 317.87 6.18 317.22 4.54C316.33 4.65 315.425 4.73 314.505 4.78L311.82 4.855L311.415 3.565C311.885 3.645 312.555 3.685 313.425 3.685C314.295 3.685 315.425 3.62 316.815 3.49C316.515 2.66 316.215 1.72 315.915 0.670001Z" fill="#3A4F63"/>
<path d="M10.775 50.2903C5.54505 51.7503 2.93005 53.2753 2.93005 54.8653V54.9103C2.93005 55.3903 3.05005 55.7453 3.29005 55.9753C3.69005 56.5453 4.69005 56.8303 6.29005 56.8303C7.89005 56.8303 9.36005 56.6853 10.7 56.3953L10.4 57.7753C7.80005 57.9553 6.39505 58.0453 6.18505 58.0453C3.09505 58.0453 1.55005 57.0453 1.55005 55.0453C1.55005 53.9253 2.46005 52.7403 4.28005 51.4903C3.90005 49.7603 3.48005 48.2053 3.02005 46.8253L2.87005 46.3753L4.26505 46.1953C4.26505 46.5153 4.63005 48.1453 5.36005 51.0853C6.06005 50.7753 6.78005 50.4803 7.52005 50.2003C8.27005 49.9103 9.14005 49.5103 10.13 49.0003L10.775 50.2903Z" fill="#3A4F63"/>
<path d="M6.99497 35.4849C9.77497 35.4849 11.17 36.6449 11.18 38.9649C11.18 41.5449 9.08497 42.9349 4.89497 43.1349C4.83497 42.7649 4.63997 42.3449 4.30997 41.8749C8.05997 41.7749 9.93497 40.7699 9.93497 38.8599C9.89497 37.4199 8.88997 36.6999 6.91997 36.6999H6.87497C5.10497 36.8699 3.34497 37.2699 1.59497 37.8999C1.52497 37.4299 1.27497 36.9849 0.844971 36.5649C3.98497 35.8449 6.03497 35.4849 6.99497 35.4849Z" fill="#3A4F63"/>
<path d="M12.5449 27.8802C12.2849 27.9102 11.8349 27.9252 11.1949 27.9252C10.5549 27.9252 10.0699 27.9252 9.73988 27.9252C6.89988 27.9252 5.47988 27.2452 5.47988 25.8852C5.47988 24.9252 5.94988 24.2402 6.88988 23.8302L7.45988 24.5352C6.84988 24.8152 6.54988 25.2352 6.55988 25.7952C6.55988 26.4552 7.56488 26.7852 9.57488 26.7852C10.4449 26.7852 11.3299 26.7202 12.2299 26.5902L12.5449 26.5152V27.8802ZM12.0349 21.5502C11.3649 21.4102 10.6049 21.3402 9.75488 21.3402C8.91488 21.3402 7.75488 21.5102 6.27488 21.8502L6.13988 20.8602C7.40988 20.4402 8.97488 20.2302 10.8349 20.2302C11.3449 20.2302 11.7449 20.2552 12.0349 20.3052V21.5502ZM0.379883 28.1352C1.59988 25.7752 2.64488 22.7452 3.51488 19.0452C2.57488 19.0852 1.65488 19.1052 0.754883 19.1052L0.469883 17.9352C0.949883 17.9452 1.53488 17.9502 2.22488 17.9502C2.91488 17.9502 3.43488 17.9352 3.78488 17.9052C3.95488 17.2252 4.03988 16.7002 4.03988 16.3302C4.03988 15.9602 4.03488 15.6952 4.02488 15.5352C4.18488 15.5852 4.59488 15.6202 5.25488 15.6402L4.83488 17.8602C7.05488 17.7602 8.53488 17.6102 9.27488 17.4102V18.7002C7.91488 18.8502 6.39988 18.9552 4.72988 19.0152C3.87988 22.8052 2.86988 25.9402 1.69988 28.4202L0.379883 28.1352Z" fill="#3A4F63"/>
<path d="M11.3449 11.9503C10.4949 10.7703 8.64994 8.50029 5.80994 5.14029C5.70994 5.06029 5.59994 5.02029 5.47994 5.02029C5.35994 5.02029 5.23494 5.11029 5.10494 5.29029L1.69994 9.53529L0.439941 8.69529C0.849941 8.35529 1.09494 8.13529 1.17494 8.03529C2.01494 7.27529 3.02494 6.10029 4.20494 4.51029C4.51494 4.08029 4.94994 3.86029 5.50994 3.85029C6.10994 3.89029 6.50994 4.10529 6.70994 4.49529L12.5599 11.1703L11.3449 11.9503ZM8.83994 2.27529L9.78494 1.97529C10.5049 2.89529 10.9849 3.99029 11.2249 5.26029L10.1599 5.63529C9.96994 4.30529 9.52994 3.18529 8.83994 2.27529ZM11.6749 1.67529C12.3649 2.58529 12.8399 3.66529 13.0999 4.91529L12.0499 5.30529C11.8699 3.94529 11.4249 2.82029 10.7149 1.93029L11.6749 1.67529Z" fill="#3A4F63"/>
<line y1="-0.413672" x2="263.095" y2="-0.413672" transform="matrix(1 -8.74228e-08 -8.74228e-08 -1 30 25.0513)" stroke="#3A4F63" stroke-width="0.827344"/>
<line y1="-0.413672" x2="12.4102" y2="-0.413672" transform="matrix(-4.37114e-08 -1 -1 4.37114e-08 30 32.2212)" stroke="#3A4F63" stroke-width="0.827344"/>
<line y1="-0.413672" x2="12.4102" y2="-0.413672" transform="matrix(-4.37114e-08 -1 -1 4.37114e-08 161.548 32.2212)" stroke="#3A4F63" stroke-width="0.827344"/>
<line y1="-0.413672" x2="12.4102" y2="-0.413672" transform="matrix(-4.37114e-08 -1 -1 4.37114e-08 293.095 32.2212)" stroke="#3A4F63" stroke-width="0.827344"/>
<line y1="-0.413672" x2="12.4102" y2="-0.413672" transform="matrix(-4.37114e-08 -1 -1 4.37114e-08 249.246 32.2212)" stroke="#3A4F63" stroke-width="0.827344"/>
<line y1="-0.413672" x2="12.4102" y2="-0.413672" transform="matrix(-4.37114e-08 -1 -1 4.37114e-08 205.397 32.2212)" stroke="#3A4F63" stroke-width="0.827344"/>
<line y1="-0.413672" x2="12.4102" y2="-0.413672" transform="matrix(-4.37114e-08 -1 -1 4.37114e-08 117.699 32.2212)" stroke="#3A4F63" stroke-width="0.827344"/>
<line y1="-0.413672" x2="12.4102" y2="-0.413672" transform="matrix(-4.37114e-08 -1 -1 4.37114e-08 73.8494 32.2212)" stroke="#3A4F63" stroke-width="0.827344"/>
<rect x="0.195007" width="5.76534" height="5.76534" transform="matrix(0.707107 0.707107 0.707107 -0.707107 245.442 25.3299)" fill="#E4BD3B" stroke="#3A4F63" stroke-width="0.275781"/>
</svg>
