<svg width="1170" height="45" viewBox="0 0 1170 45" fill="none" xmlns="http://www.w3.org/2000/svg">
<path d="M1169.84 20.6643C1161.47 23.0003 1157.29 25.4403 1157.29 27.9843V28.0563C1157.29 28.8243 1157.48 29.3923 1157.86 29.7603C1158.5 30.6723 1160.1 31.1283 1162.66 31.1283C1165.22 31.1283 1167.58 30.8963 1169.72 30.4323L1169.24 32.6403C1165.08 32.9283 1162.83 33.0723 1162.5 33.0723C1157.55 33.0723 1155.08 31.4723 1155.08 28.2723C1155.08 26.4803 1156.54 24.5843 1159.45 22.5843C1158.84 19.8163 1158.17 17.3283 1157.43 15.1203L1157.19 14.4003L1159.42 14.1123C1159.42 14.6243 1160.01 17.2323 1161.18 21.9363C1162.3 21.4403 1163.45 20.9683 1164.63 20.5203C1165.83 20.0563 1167.22 19.4163 1168.81 18.6003L1169.84 20.6643Z" fill="#3A4F63"/>
<path d="M1139.79 20.9756C1144.24 20.9756 1146.47 22.8316 1146.49 26.5436C1146.49 30.6716 1143.14 32.8956 1136.43 33.2156C1136.34 32.6236 1136.02 31.9516 1135.5 31.1996C1141.5 31.0396 1144.5 29.4316 1144.5 26.3756C1144.43 24.0716 1142.82 22.9196 1139.67 22.9196H1139.6C1136.77 23.1916 1133.95 23.8316 1131.15 24.8396C1131.04 24.0876 1130.64 23.3756 1129.95 22.7036C1134.98 21.5516 1138.26 20.9756 1139.79 20.9756Z" fill="#3A4F63"/>
<path d="M1118.31 17.9282C1116.76 17.5762 1114.09 16.7922 1110.3 15.5762L1110.37 13.3682C1113.82 14.8562 1116.5 15.7202 1118.38 15.9602L1118.31 17.9282ZM1116.66 22.2242C1120.69 22.2242 1122.7 23.9442 1122.7 27.3842C1122.7 31.4322 1118.85 33.4562 1111.14 33.4562C1110.7 32.8482 1110.29 32.2402 1109.89 31.6322C1111.26 31.6322 1112.25 31.6162 1112.84 31.5842C1118.18 31.3282 1120.86 29.8562 1120.86 27.1682C1120.86 25.1202 1119.46 24.0962 1116.66 24.0962H1116.58C1115.48 24.0962 1113.96 24.6002 1112.02 25.6082C1110.95 26.1682 1110.02 27.0002 1109.22 28.1042L1107.66 27.0002C1107.99 23.7682 1108.41 20.9122 1108.9 18.4322L1111.02 18.7922C1110.17 21.0642 1109.64 23.3522 1109.43 25.6562C1111.99 23.3682 1114.4 22.2242 1116.66 22.2242Z" fill="#3A4F63"/>
<path d="M1090.06 13.2722L1092.2 13.2002C1092.25 13.9842 1092.65 15.4322 1093.4 17.5442C1095.7 17.2562 1097.6 16.8402 1099.09 16.2962L1099.14 18.2162C1097.54 18.6322 1095.82 18.9682 1093.98 19.2242C1094.84 21.4642 1096.04 23.5842 1097.58 25.5842L1096.83 27.1442C1094.58 25.8962 1092.14 25.2722 1089.54 25.2722H1089.46C1086.84 25.2882 1085.43 26.2082 1085.24 28.0322V28.1282C1085.22 30.2242 1087.38 31.2802 1091.7 31.2962H1092.34L1095.54 31.2242L1094.62 33.0962C1094.5 33.1602 1094.28 33.1922 1093.98 33.1922C1090.81 33.1922 1088.66 33.0402 1087.52 32.7362C1084.78 32.0162 1083.42 30.5922 1083.42 28.4642C1083.42 25.1842 1085.38 23.5362 1089.3 23.5202C1091.47 23.5202 1093.36 23.9282 1094.96 24.7442C1094.13 23.8482 1093.19 22.0882 1092.15 19.4642C1090.73 19.6402 1089.28 19.7682 1087.81 19.8482L1083.51 19.9682L1082.86 17.9042C1083.62 18.0322 1084.69 18.0962 1086.08 18.0962C1087.47 18.0962 1089.28 17.9922 1091.5 17.7842C1091.02 16.4562 1090.54 14.9522 1090.06 13.2722Z" fill="#3A4F63"/>
<path d="M88.8401 20.6643C80.4721 23.0003 76.2881 25.4403 76.2881 27.9843V28.0563C76.2881 28.8243 76.4801 29.3923 76.8641 29.7603C77.5041 30.6723 79.1041 31.1283 81.6641 31.1283C84.2241 31.1283 86.5761 30.8963 88.7201 30.4323L88.2401 32.6403C84.0801 32.9283 81.8321 33.0723 81.4961 33.0723C76.5521 33.0723 74.0801 31.4723 74.0801 28.2723C74.0801 26.4803 75.5361 24.5843 78.4481 22.5843C77.8401 19.8163 77.1681 17.3283 76.4321 15.1203L76.1921 14.4003L78.4241 14.1123C78.4241 14.6243 79.0081 17.2323 80.1761 21.9363C81.2961 21.4403 82.4481 20.9683 83.6321 20.5203C84.8321 20.0563 86.2241 19.4163 87.8081 18.6003L88.8401 20.6643Z" fill="#3A4F63"/>
<path d="M58.7921 20.9756C63.2401 20.9756 65.4721 22.8316 65.4881 26.5436C65.4881 30.6716 62.1361 32.8956 55.4321 33.2156C55.3361 32.6236 55.0241 31.9516 54.4961 31.1996C60.4961 31.0396 63.4962 29.4316 63.4962 26.3756C63.4322 24.0716 61.8242 22.9196 58.6721 22.9196H58.6002C55.7682 23.1916 52.9521 23.8316 50.1521 24.8396C50.0401 24.0876 49.6401 23.3756 48.9521 22.7036C53.9761 21.5516 57.2561 20.9756 58.7921 20.9756Z" fill="#3A4F63"/>
<path d="M43.672 32.8077C43.256 32.8557 42.536 32.8797 41.512 32.8797C40.488 32.8797 39.712 32.8797 39.184 32.8797C34.64 32.8797 32.368 31.7917 32.368 29.6157C32.368 28.0797 33.12 26.9837 34.624 26.3277L35.536 27.4557C34.56 27.9037 34.08 28.5757 34.096 29.4717C34.096 30.5277 35.704 31.0557 38.92 31.0557C40.312 31.0557 41.728 30.9517 43.168 30.7437L43.672 30.6237V32.8077ZM42.856 22.6797C41.784 22.4557 40.568 22.3437 39.208 22.3437C37.864 22.3437 36.008 22.6157 33.64 23.1597L33.424 21.5757C35.456 20.9037 37.96 20.5677 40.936 20.5677C41.752 20.5677 42.392 20.6077 42.856 20.6877V22.6797ZM24.208 33.2157C26.16 29.4397 27.832 24.5917 29.224 18.6717C27.72 18.7357 26.248 18.7677 24.808 18.7677L24.352 16.8957C25.12 16.9117 26.056 16.9197 27.16 16.9197C28.264 16.9197 29.096 16.8957 29.656 16.8477C29.928 15.7597 30.064 14.9197 30.064 14.3277C30.064 13.7357 30.056 13.3117 30.04 13.0557C30.296 13.1357 30.952 13.1917 32.008 13.2237L31.336 16.7757C34.888 16.6157 37.256 16.3757 38.44 16.0557V18.1197C36.264 18.3597 33.84 18.5277 31.168 18.6237C29.808 24.6877 28.192 29.7037 26.32 33.6717L24.208 33.2157Z" fill="#3A4F63"/>
<path d="M17.7522 31.3199C16.3922 29.4319 13.4402 25.7999 8.8962 20.4239C8.7362 20.2959 8.5602 20.2319 8.3682 20.2319C8.1762 20.2319 7.9762 20.3759 7.7682 20.6639L2.3202 27.4559L0.304199 26.1119C0.960199 25.5679 1.3522 25.2159 1.4802 25.0559C2.8242 23.8399 4.4402 21.9599 6.3282 19.4159C6.8242 18.7279 7.5202 18.3759 8.4162 18.3599C9.3762 18.4239 10.0162 18.7679 10.3362 19.3919L19.6962 30.0719L17.7522 31.3199ZM13.7442 15.8399L15.2562 15.3599C16.4082 16.8319 17.1762 18.5839 17.5602 20.6159L15.8562 21.2159C15.5522 19.0879 14.8482 17.2959 13.7442 15.8399ZM18.2802 14.8799C19.3842 16.3359 20.1442 18.0639 20.5602 20.0639L18.8802 20.6879C18.5922 18.5119 17.8802 16.7119 16.7442 15.2879L18.2802 14.8799Z" fill="#3A4F63"/>
<line x1="110" y1="21.5" x2="1064" y2="21.5001" stroke="#3A4F63" stroke-width="3"/>
<line x1="111.5" y1="6.55671e-08" x2="111.5" y2="45" stroke="#3A4F63" stroke-width="3"/>
<line x1="588.5" y1="6.55671e-08" x2="588.5" y2="45" stroke="#3A4F63" stroke-width="3"/>
<line x1="1065.5" y1="6.55671e-08" x2="1065.5" y2="45" stroke="#3A4F63" stroke-width="3"/>
<line x1="906.5" y1="6.55671e-08" x2="906.5" y2="45" stroke="#3A4F63" stroke-width="3"/>
<line x1="747.5" y1="6.55671e-08" x2="747.5" y2="45" stroke="#3A4F63" stroke-width="3"/>
<line x1="429.5" y1="6.55671e-08" x2="429.5" y2="45" stroke="#3A4F63" stroke-width="3"/>
<line x1="270.5" y1="6.55671e-08" x2="270.5" y2="45" stroke="#3A4F63" stroke-width="3"/>
<rect x="891.707" y="21.4893" width="20.9055" height="20.9055" transform="rotate(-45 891.707 21.4893)" fill="#E4BD3B" stroke="#3A4F63"/>
</svg>
