<svg width="30" height="30" viewBox="0 0 30 30" fill="none" xmlns="http://www.w3.org/2000/svg">
<path d="M22.5 25.9375H7.5C6.58832 25.9375 5.71398 25.5753 5.06932 24.9307C4.42466 24.286 4.0625 23.4117 4.0625 22.5V7.5C4.0625 6.58832 4.42466 5.71398 5.06932 5.06932C5.71398 4.42466 6.58832 4.0625 7.5 4.0625H18.575C18.8236 4.0625 19.0621 4.16127 19.2379 4.33709C19.4137 4.5129 19.5125 4.75136 19.5125 5C19.5125 5.24864 19.4137 5.4871 19.2379 5.66291C19.0621 5.83873 18.8236 5.9375 18.575 5.9375H7.5C7.0856 5.9375 6.68817 6.10212 6.39515 6.39515C6.10212 6.68817 5.9375 7.0856 5.9375 7.5V22.5C5.9375 22.9144 6.10212 23.3118 6.39515 23.6049C6.68817 23.8979 7.0856 24.0625 7.5 24.0625H22.5C22.9144 24.0625 23.3118 23.8979 23.6049 23.6049C23.8979 23.3118 24.0625 22.9144 24.0625 22.5V12.8625C24.0625 12.6139 24.1613 12.3754 24.3371 12.1996C24.5129 12.0238 24.7514 11.925 25 11.925C25.2486 11.925 25.4871 12.0238 25.6629 12.1996C25.8387 12.3754 25.9375 12.6139 25.9375 12.8625V22.5C25.9375 23.4117 25.5753 24.286 24.9307 24.9307C24.286 25.5753 23.4117 25.9375 22.5 25.9375Z" fill="#3A4F63"/>
<path d="M13.1252 19.0625C12.884 19.044 12.6597 18.9319 12.5002 18.75L8.75022 15C8.66667 14.825 8.63941 14.6285 8.67219 14.4374C8.70498 14.2463 8.79619 14.0701 8.93328 13.933C9.07037 13.7959 9.24658 13.7047 9.43766 13.672C9.62874 13.6392 9.82528 13.6664 10.0002 13.75L13.0877 16.8375L23.7502 6.24998C23.9252 6.16643 24.1217 6.13917 24.3128 6.17195C24.5039 6.20473 24.6801 6.29595 24.8172 6.43304C24.9543 6.57012 25.0455 6.74634 25.0782 6.93741C25.111 7.12849 25.0838 7.32504 25.0002 7.49998L13.7502 18.75C13.5908 18.9319 13.3664 19.044 13.1252 19.0625Z" fill="#3A4F63"/>
</svg>
